<mxfile host="app.diagrams.net" agent="Mozilla/5.0 (Windows NT 10.0; Win64; x64) AppleWebKit/537.36 (KHTML, like Gecko) Chrome/133.0.0.0 Safari/537.36" version="26.0.16" pages="2">
  <diagram name="MIPS-gral" id="lGc7REONpYNARfuNNczA">
    <mxGraphModel dx="2199" dy="1955" grid="1" gridSize="10" guides="1" tooltips="1" connect="1" arrows="1" fold="1" page="1" pageScale="1" pageWidth="827" pageHeight="1169" math="0" shadow="0">
      <root>
        <mxCell id="0" />
        <mxCell id="1" parent="0" />
        <mxCell id="2RqJ-Z-hNAkJ4BRyuHzx-9" style="edgeStyle=orthogonalEdgeStyle;rounded=0;orthogonalLoop=1;jettySize=auto;html=1;" parent="1" source="2RqJ-Z-hNAkJ4BRyuHzx-2" target="2RqJ-Z-hNAkJ4BRyuHzx-8" edge="1">
          <mxGeometry relative="1" as="geometry" />
        </mxCell>
        <mxCell id="2RqJ-Z-hNAkJ4BRyuHzx-62" style="edgeStyle=orthogonalEdgeStyle;rounded=0;orthogonalLoop=1;jettySize=auto;html=1;entryX=0;entryY=0.5;entryDx=0;entryDy=0;" parent="1" source="2RqJ-Z-hNAkJ4BRyuHzx-2" target="2RqJ-Z-hNAkJ4BRyuHzx-61" edge="1">
          <mxGeometry relative="1" as="geometry" />
        </mxCell>
        <mxCell id="2RqJ-Z-hNAkJ4BRyuHzx-2" value="" style="swimlane;startSize=0;" parent="1" vertex="1">
          <mxGeometry x="-30" y="500" width="90" height="90" as="geometry" />
        </mxCell>
        <mxCell id="2RqJ-Z-hNAkJ4BRyuHzx-3" value="PC&lt;br&gt;" style="text;html=1;align=center;verticalAlign=middle;resizable=0;points=[];autosize=1;strokeColor=none;fillColor=none;" parent="2RqJ-Z-hNAkJ4BRyuHzx-2" vertex="1">
          <mxGeometry x="25" y="30" width="40" height="30" as="geometry" />
        </mxCell>
        <mxCell id="2RqJ-Z-hNAkJ4BRyuHzx-6" value="" style="swimlane;startSize=0;" parent="1" vertex="1">
          <mxGeometry x="230" y="510" width="170" height="180" as="geometry" />
        </mxCell>
        <mxCell id="2RqJ-Z-hNAkJ4BRyuHzx-7" value="MEM INSTRUCTIONS" style="text;html=1;align=center;verticalAlign=middle;resizable=0;points=[];autosize=1;strokeColor=none;fillColor=none;" parent="2RqJ-Z-hNAkJ4BRyuHzx-6" vertex="1">
          <mxGeometry x="15" y="120" width="140" height="30" as="geometry" />
        </mxCell>
        <mxCell id="2RqJ-Z-hNAkJ4BRyuHzx-8" value="ADDR" style="text;html=1;align=center;verticalAlign=middle;resizable=0;points=[];autosize=1;strokeColor=none;fillColor=none;" parent="2RqJ-Z-hNAkJ4BRyuHzx-6" vertex="1">
          <mxGeometry y="20" width="60" height="30" as="geometry" />
        </mxCell>
        <mxCell id="2RqJ-Z-hNAkJ4BRyuHzx-15" value="DR" style="text;html=1;align=center;verticalAlign=middle;resizable=0;points=[];autosize=1;strokeColor=none;fillColor=none;" parent="2RqJ-Z-hNAkJ4BRyuHzx-6" vertex="1">
          <mxGeometry x="130" y="75" width="40" height="30" as="geometry" />
        </mxCell>
        <mxCell id="2RqJ-Z-hNAkJ4BRyuHzx-28" style="edgeStyle=orthogonalEdgeStyle;rounded=0;orthogonalLoop=1;jettySize=auto;html=1;entryX=0;entryY=0.5;entryDx=0;entryDy=0;" parent="1" source="2RqJ-Z-hNAkJ4BRyuHzx-10" target="2RqJ-Z-hNAkJ4BRyuHzx-16" edge="1">
          <mxGeometry relative="1" as="geometry" />
        </mxCell>
        <mxCell id="2RqJ-Z-hNAkJ4BRyuHzx-34" style="edgeStyle=orthogonalEdgeStyle;rounded=0;orthogonalLoop=1;jettySize=auto;html=1;" parent="1" source="2RqJ-Z-hNAkJ4BRyuHzx-10" edge="1">
          <mxGeometry relative="1" as="geometry">
            <mxPoint x="870" y="780" as="targetPoint" />
            <Array as="points">
              <mxPoint x="700" y="600" />
              <mxPoint x="700" y="781" />
            </Array>
          </mxGeometry>
        </mxCell>
        <mxCell id="2RqJ-Z-hNAkJ4BRyuHzx-10" value="" style="verticalLabelPosition=bottom;verticalAlign=top;html=1;shape=mxgraph.basic.patternFillRect;fillStyle=diag;step=5;fillStrokeWidth=0.2;fillStrokeColor=#dddddd;direction=south;" parent="1" vertex="1">
          <mxGeometry x="530" y="325" width="30" height="550" as="geometry" />
        </mxCell>
        <mxCell id="2RqJ-Z-hNAkJ4BRyuHzx-11" value="IF/ID" style="text;html=1;align=center;verticalAlign=middle;resizable=0;points=[];autosize=1;strokeColor=none;fillColor=none;" parent="1" vertex="1">
          <mxGeometry x="520" y="295" width="50" height="30" as="geometry" />
        </mxCell>
        <mxCell id="2RqJ-Z-hNAkJ4BRyuHzx-16" value="" style="swimlane;startSize=0;" parent="1" vertex="1">
          <mxGeometry x="830" y="500" width="150" height="180" as="geometry" />
        </mxCell>
        <mxCell id="2RqJ-Z-hNAkJ4BRyuHzx-17" value="BANK REGISTERS" style="text;html=1;align=center;verticalAlign=middle;resizable=0;points=[];autosize=1;strokeColor=none;fillColor=none;" parent="2RqJ-Z-hNAkJ4BRyuHzx-16" vertex="1">
          <mxGeometry x="20" y="110" width="130" height="30" as="geometry" />
        </mxCell>
        <mxCell id="2RqJ-Z-hNAkJ4BRyuHzx-18" value="RA" style="text;html=1;align=center;verticalAlign=middle;resizable=0;points=[];autosize=1;strokeColor=none;fillColor=none;" parent="2RqJ-Z-hNAkJ4BRyuHzx-16" vertex="1">
          <mxGeometry x="10" y="20" width="40" height="30" as="geometry" />
        </mxCell>
        <mxCell id="2RqJ-Z-hNAkJ4BRyuHzx-19" value="busA" style="text;html=1;align=center;verticalAlign=middle;resizable=0;points=[];autosize=1;strokeColor=none;fillColor=none;" parent="2RqJ-Z-hNAkJ4BRyuHzx-16" vertex="1">
          <mxGeometry x="100" y="20" width="50" height="30" as="geometry" />
        </mxCell>
        <mxCell id="2RqJ-Z-hNAkJ4BRyuHzx-20" value="RB" style="text;html=1;align=center;verticalAlign=middle;resizable=0;points=[];autosize=1;strokeColor=none;fillColor=none;" parent="2RqJ-Z-hNAkJ4BRyuHzx-16" vertex="1">
          <mxGeometry x="10" y="50" width="40" height="30" as="geometry" />
        </mxCell>
        <mxCell id="2RqJ-Z-hNAkJ4BRyuHzx-21" value="RW&lt;br&gt;" style="text;html=1;align=center;verticalAlign=middle;resizable=0;points=[];autosize=1;strokeColor=none;fillColor=none;" parent="2RqJ-Z-hNAkJ4BRyuHzx-16" vertex="1">
          <mxGeometry x="10" y="80" width="40" height="30" as="geometry" />
        </mxCell>
        <mxCell id="2RqJ-Z-hNAkJ4BRyuHzx-22" value="busDW" style="text;html=1;align=center;verticalAlign=middle;resizable=0;points=[];autosize=1;strokeColor=none;fillColor=none;" parent="2RqJ-Z-hNAkJ4BRyuHzx-16" vertex="1">
          <mxGeometry x="-5" y="140" width="60" height="30" as="geometry" />
        </mxCell>
        <mxCell id="2RqJ-Z-hNAkJ4BRyuHzx-23" value="busB" style="text;html=1;align=center;verticalAlign=middle;resizable=0;points=[];autosize=1;strokeColor=none;fillColor=none;" parent="2RqJ-Z-hNAkJ4BRyuHzx-16" vertex="1">
          <mxGeometry x="100" y="80" width="50" height="30" as="geometry" />
        </mxCell>
        <mxCell id="2RqJ-Z-hNAkJ4BRyuHzx-25" style="edgeStyle=orthogonalEdgeStyle;rounded=0;orthogonalLoop=1;jettySize=auto;html=1;entryX=0.5;entryY=1;entryDx=0;entryDy=0;entryPerimeter=0;" parent="1" source="2RqJ-Z-hNAkJ4BRyuHzx-15" target="2RqJ-Z-hNAkJ4BRyuHzx-10" edge="1">
          <mxGeometry relative="1" as="geometry" />
        </mxCell>
        <mxCell id="2RqJ-Z-hNAkJ4BRyuHzx-26" style="edgeStyle=orthogonalEdgeStyle;rounded=0;orthogonalLoop=1;jettySize=auto;html=1;entryX=-0.006;entryY=0.178;entryDx=0;entryDy=0;entryPerimeter=0;" parent="1" source="2RqJ-Z-hNAkJ4BRyuHzx-10" target="2RqJ-Z-hNAkJ4BRyuHzx-16" edge="1">
          <mxGeometry relative="1" as="geometry" />
        </mxCell>
        <mxCell id="2RqJ-Z-hNAkJ4BRyuHzx-27" style="edgeStyle=orthogonalEdgeStyle;rounded=0;orthogonalLoop=1;jettySize=auto;html=1;entryX=-0.012;entryY=0.339;entryDx=0;entryDy=0;entryPerimeter=0;" parent="1" source="2RqJ-Z-hNAkJ4BRyuHzx-10" target="2RqJ-Z-hNAkJ4BRyuHzx-16" edge="1">
          <mxGeometry relative="1" as="geometry" />
        </mxCell>
        <mxCell id="2RqJ-Z-hNAkJ4BRyuHzx-125" style="edgeStyle=orthogonalEdgeStyle;rounded=0;orthogonalLoop=1;jettySize=auto;html=1;" parent="1" source="2RqJ-Z-hNAkJ4BRyuHzx-29" edge="1">
          <mxGeometry relative="1" as="geometry">
            <mxPoint x="1420" y="490" as="targetPoint" />
            <Array as="points">
              <mxPoint x="1420" y="590" />
              <mxPoint x="1420" y="521" />
              <mxPoint x="1421" y="521" />
            </Array>
          </mxGeometry>
        </mxCell>
        <mxCell id="2RqJ-Z-hNAkJ4BRyuHzx-126" value="zero&lt;br&gt;" style="edgeLabel;html=1;align=center;verticalAlign=middle;resizable=0;points=[];" parent="2RqJ-Z-hNAkJ4BRyuHzx-125" vertex="1" connectable="0">
          <mxGeometry x="0.4767" y="-1" relative="1" as="geometry">
            <mxPoint as="offset" />
          </mxGeometry>
        </mxCell>
        <mxCell id="2RqJ-Z-hNAkJ4BRyuHzx-29" value="ALU" style="shape=step;perimeter=stepPerimeter;whiteSpace=wrap;html=1;fixedSize=1;" parent="1" vertex="1">
          <mxGeometry x="1290" y="550" width="120" height="80" as="geometry" />
        </mxCell>
        <mxCell id="2RqJ-Z-hNAkJ4BRyuHzx-40" style="edgeStyle=orthogonalEdgeStyle;rounded=0;orthogonalLoop=1;jettySize=auto;html=1;entryX=0;entryY=0.75;entryDx=0;entryDy=0;" parent="1" source="2RqJ-Z-hNAkJ4BRyuHzx-30" target="2RqJ-Z-hNAkJ4BRyuHzx-29" edge="1">
          <mxGeometry relative="1" as="geometry" />
        </mxCell>
        <mxCell id="2RqJ-Z-hNAkJ4BRyuHzx-30" value="MUX&lt;br&gt;" style="ellipse;whiteSpace=wrap;html=1;direction=south;" parent="1" vertex="1">
          <mxGeometry x="1140" y="580" width="50" height="100" as="geometry" />
        </mxCell>
        <mxCell id="2RqJ-Z-hNAkJ4BRyuHzx-31" value="&amp;lt;&amp;lt;2" style="ellipse;whiteSpace=wrap;html=1;direction=south;" parent="1" vertex="1">
          <mxGeometry x="1060" y="348" width="50" height="50" as="geometry" />
        </mxCell>
        <mxCell id="2RqJ-Z-hNAkJ4BRyuHzx-33" value="Extencion&lt;br&gt;&amp;nbsp;Signo" style="ellipse;whiteSpace=wrap;html=1;direction=south;" parent="1" vertex="1">
          <mxGeometry x="870" y="760" width="80" height="40" as="geometry" />
        </mxCell>
        <mxCell id="2RqJ-Z-hNAkJ4BRyuHzx-38" value="" style="endArrow=classic;html=1;rounded=0;entryX=0.7;entryY=0.96;entryDx=0;entryDy=0;entryPerimeter=0;" parent="1" target="2RqJ-Z-hNAkJ4BRyuHzx-30" edge="1">
          <mxGeometry width="50" height="50" relative="1" as="geometry">
            <mxPoint x="1090" y="650" as="sourcePoint" />
            <mxPoint x="1120" y="600" as="targetPoint" />
            <Array as="points">
              <mxPoint x="1110" y="650" />
            </Array>
          </mxGeometry>
        </mxCell>
        <mxCell id="2RqJ-Z-hNAkJ4BRyuHzx-42" value="" style="swimlane;startSize=0;" parent="1" vertex="1">
          <mxGeometry x="1590" y="510" width="150" height="150" as="geometry" />
        </mxCell>
        <mxCell id="2RqJ-Z-hNAkJ4BRyuHzx-43" value="MEM DATOS&lt;br&gt;" style="text;html=1;align=center;verticalAlign=middle;resizable=0;points=[];autosize=1;strokeColor=none;fillColor=none;" parent="2RqJ-Z-hNAkJ4BRyuHzx-42" vertex="1">
          <mxGeometry x="35" y="100" width="100" height="30" as="geometry" />
        </mxCell>
        <mxCell id="2RqJ-Z-hNAkJ4BRyuHzx-44" value="ADDR" style="text;html=1;align=center;verticalAlign=middle;resizable=0;points=[];autosize=1;strokeColor=none;fillColor=none;" parent="2RqJ-Z-hNAkJ4BRyuHzx-42" vertex="1">
          <mxGeometry x="-10" y="20" width="60" height="30" as="geometry" />
        </mxCell>
        <mxCell id="2RqJ-Z-hNAkJ4BRyuHzx-45" value="DR" style="text;html=1;align=center;verticalAlign=middle;resizable=0;points=[];autosize=1;strokeColor=none;fillColor=none;" parent="2RqJ-Z-hNAkJ4BRyuHzx-42" vertex="1">
          <mxGeometry x="110" y="70" width="40" height="30" as="geometry" />
        </mxCell>
        <mxCell id="2RqJ-Z-hNAkJ4BRyuHzx-46" value="DW" style="text;html=1;align=center;verticalAlign=middle;resizable=0;points=[];autosize=1;strokeColor=none;fillColor=none;" parent="2RqJ-Z-hNAkJ4BRyuHzx-42" vertex="1">
          <mxGeometry y="120" width="40" height="30" as="geometry" />
        </mxCell>
        <mxCell id="2RqJ-Z-hNAkJ4BRyuHzx-51" value="MUX&lt;br&gt;" style="ellipse;whiteSpace=wrap;html=1;direction=south;" parent="1" vertex="1">
          <mxGeometry x="1920" y="630" width="50" height="100" as="geometry" />
        </mxCell>
        <mxCell id="2RqJ-Z-hNAkJ4BRyuHzx-59" value="" style="shape=sumEllipse;perimeter=ellipsePerimeter;whiteSpace=wrap;html=1;backgroundOutline=1;" parent="1" vertex="1">
          <mxGeometry x="1161" y="200" width="80" height="80" as="geometry" />
        </mxCell>
        <mxCell id="2RqJ-Z-hNAkJ4BRyuHzx-60" value="SUMADOR&lt;br&gt;" style="text;html=1;align=center;verticalAlign=middle;resizable=0;points=[];autosize=1;strokeColor=none;fillColor=none;" parent="1" vertex="1">
          <mxGeometry x="1161" y="280" width="80" height="30" as="geometry" />
        </mxCell>
        <mxCell id="2RqJ-Z-hNAkJ4BRyuHzx-71" style="edgeStyle=orthogonalEdgeStyle;rounded=0;orthogonalLoop=1;jettySize=auto;html=1;entryX=0;entryY=1;entryDx=0;entryDy=0;" parent="1" source="2RqJ-Z-hNAkJ4BRyuHzx-61" target="2RqJ-Z-hNAkJ4BRyuHzx-68" edge="1">
          <mxGeometry relative="1" as="geometry">
            <Array as="points">
              <mxPoint x="320" y="360" />
              <mxPoint x="320" y="85" />
            </Array>
          </mxGeometry>
        </mxCell>
        <mxCell id="2RqJ-Z-hNAkJ4BRyuHzx-61" value="" style="shape=sumEllipse;perimeter=ellipsePerimeter;whiteSpace=wrap;html=1;backgroundOutline=1;" parent="1" vertex="1">
          <mxGeometry x="220" y="318" width="80" height="80" as="geometry" />
        </mxCell>
        <mxCell id="2RqJ-Z-hNAkJ4BRyuHzx-63" value="" style="endArrow=classic;html=1;rounded=0;entryX=0;entryY=0;entryDx=0;entryDy=0;" parent="1" target="2RqJ-Z-hNAkJ4BRyuHzx-61" edge="1">
          <mxGeometry width="50" height="50" relative="1" as="geometry">
            <mxPoint x="90" y="330" as="sourcePoint" />
            <mxPoint x="440" y="410" as="targetPoint" />
          </mxGeometry>
        </mxCell>
        <mxCell id="2RqJ-Z-hNAkJ4BRyuHzx-64" value="+4" style="text;html=1;align=center;verticalAlign=middle;resizable=0;points=[];autosize=1;strokeColor=none;fillColor=none;" parent="1" vertex="1">
          <mxGeometry x="120" y="295" width="40" height="30" as="geometry" />
        </mxCell>
        <mxCell id="2RqJ-Z-hNAkJ4BRyuHzx-65" value="SUMADOR&lt;br&gt;" style="text;html=1;align=center;verticalAlign=middle;resizable=0;points=[];autosize=1;strokeColor=none;fillColor=none;" parent="1" vertex="1">
          <mxGeometry x="220" y="368" width="80" height="30" as="geometry" />
        </mxCell>
        <mxCell id="2RqJ-Z-hNAkJ4BRyuHzx-67" style="edgeStyle=orthogonalEdgeStyle;rounded=0;orthogonalLoop=1;jettySize=auto;html=1;entryX=0.075;entryY=0.813;entryDx=0;entryDy=0;entryPerimeter=0;" parent="1" source="2RqJ-Z-hNAkJ4BRyuHzx-31" target="2RqJ-Z-hNAkJ4BRyuHzx-59" edge="1">
          <mxGeometry relative="1" as="geometry">
            <Array as="points">
              <mxPoint x="1120" y="335" />
              <mxPoint x="1120" y="265" />
            </Array>
          </mxGeometry>
        </mxCell>
        <mxCell id="2RqJ-Z-hNAkJ4BRyuHzx-72" style="edgeStyle=orthogonalEdgeStyle;rounded=0;orthogonalLoop=1;jettySize=auto;html=1;entryX=0;entryY=0.5;entryDx=0;entryDy=0;" parent="1" source="2RqJ-Z-hNAkJ4BRyuHzx-68" target="2RqJ-Z-hNAkJ4BRyuHzx-2" edge="1">
          <mxGeometry relative="1" as="geometry">
            <Array as="points">
              <mxPoint x="490" y="120" />
              <mxPoint x="490" y="50" />
              <mxPoint x="-50" y="50" />
              <mxPoint x="-50" y="545" />
            </Array>
          </mxGeometry>
        </mxCell>
        <mxCell id="2RqJ-Z-hNAkJ4BRyuHzx-68" value="MUX&lt;br&gt;" style="ellipse;whiteSpace=wrap;html=1;direction=south;" parent="1" vertex="1">
          <mxGeometry x="370" y="70" width="50" height="100" as="geometry" />
        </mxCell>
        <mxCell id="2RqJ-Z-hNAkJ4BRyuHzx-77" style="edgeStyle=orthogonalEdgeStyle;rounded=0;orthogonalLoop=1;jettySize=auto;html=1;entryX=1;entryY=0.5;entryDx=0;entryDy=0;" parent="1" source="2RqJ-Z-hNAkJ4BRyuHzx-74" target="2RqJ-Z-hNAkJ4BRyuHzx-31" edge="1">
          <mxGeometry relative="1" as="geometry">
            <Array as="points">
              <mxPoint x="1085" y="780" />
            </Array>
          </mxGeometry>
        </mxCell>
        <mxCell id="2RqJ-Z-hNAkJ4BRyuHzx-80" style="edgeStyle=orthogonalEdgeStyle;rounded=0;orthogonalLoop=1;jettySize=auto;html=1;entryX=0;entryY=1;entryDx=0;entryDy=0;" parent="1" source="2RqJ-Z-hNAkJ4BRyuHzx-74" target="2RqJ-Z-hNAkJ4BRyuHzx-30" edge="1">
          <mxGeometry relative="1" as="geometry">
            <Array as="points">
              <mxPoint x="1070" y="595" />
              <mxPoint x="1070" y="595" />
            </Array>
          </mxGeometry>
        </mxCell>
        <mxCell id="2RqJ-Z-hNAkJ4BRyuHzx-82" style="edgeStyle=orthogonalEdgeStyle;rounded=0;orthogonalLoop=1;jettySize=auto;html=1;entryX=0;entryY=0.25;entryDx=0;entryDy=0;" parent="1" source="2RqJ-Z-hNAkJ4BRyuHzx-74" target="2RqJ-Z-hNAkJ4BRyuHzx-29" edge="1">
          <mxGeometry relative="1" as="geometry">
            <Array as="points">
              <mxPoint x="1200" y="520" />
              <mxPoint x="1200" y="574" />
            </Array>
          </mxGeometry>
        </mxCell>
        <mxCell id="tcZKiTuZh_uuGgO6nxxK-7" style="edgeStyle=orthogonalEdgeStyle;rounded=0;orthogonalLoop=1;jettySize=auto;html=1;entryX=0;entryY=0.5;entryDx=0;entryDy=0;exitX=0.72;exitY=-0.058;exitDx=0;exitDy=0;exitPerimeter=0;fillColor=#ffe6cc;strokeColor=#d79b00;" parent="1" source="2RqJ-Z-hNAkJ4BRyuHzx-74" target="tcZKiTuZh_uuGgO6nxxK-6" edge="1">
          <mxGeometry relative="1" as="geometry" />
        </mxCell>
        <mxCell id="2RqJ-Z-hNAkJ4BRyuHzx-74" value="" style="verticalLabelPosition=bottom;verticalAlign=top;html=1;shape=mxgraph.basic.patternFillRect;fillStyle=diag;step=5;fillStrokeWidth=0.2;fillStrokeColor=#dddddd;direction=south;" parent="1" vertex="1">
          <mxGeometry x="1020" y="320" width="30" height="640" as="geometry" />
        </mxCell>
        <mxCell id="2RqJ-Z-hNAkJ4BRyuHzx-75" style="edgeStyle=orthogonalEdgeStyle;rounded=0;orthogonalLoop=1;jettySize=auto;html=1;entryX=0.72;entryY=1.033;entryDx=0;entryDy=0;entryPerimeter=0;" parent="1" source="2RqJ-Z-hNAkJ4BRyuHzx-33" target="2RqJ-Z-hNAkJ4BRyuHzx-74" edge="1">
          <mxGeometry relative="1" as="geometry" />
        </mxCell>
        <mxCell id="2RqJ-Z-hNAkJ4BRyuHzx-78" style="edgeStyle=orthogonalEdgeStyle;rounded=0;orthogonalLoop=1;jettySize=auto;html=1;entryX=0.336;entryY=1.067;entryDx=0;entryDy=0;entryPerimeter=0;" parent="1" source="2RqJ-Z-hNAkJ4BRyuHzx-19" target="2RqJ-Z-hNAkJ4BRyuHzx-74" edge="1">
          <mxGeometry relative="1" as="geometry" />
        </mxCell>
        <mxCell id="2RqJ-Z-hNAkJ4BRyuHzx-79" style="edgeStyle=orthogonalEdgeStyle;rounded=0;orthogonalLoop=1;jettySize=auto;html=1;entryX=0.43;entryY=1;entryDx=0;entryDy=0;entryPerimeter=0;" parent="1" source="2RqJ-Z-hNAkJ4BRyuHzx-23" target="2RqJ-Z-hNAkJ4BRyuHzx-74" edge="1">
          <mxGeometry relative="1" as="geometry" />
        </mxCell>
        <mxCell id="2RqJ-Z-hNAkJ4BRyuHzx-85" style="edgeStyle=orthogonalEdgeStyle;rounded=0;orthogonalLoop=1;jettySize=auto;html=1;entryX=0.06;entryY=1.067;entryDx=0;entryDy=0;entryPerimeter=0;" parent="1" source="2RqJ-Z-hNAkJ4BRyuHzx-61" target="2RqJ-Z-hNAkJ4BRyuHzx-10" edge="1">
          <mxGeometry relative="1" as="geometry" />
        </mxCell>
        <mxCell id="2RqJ-Z-hNAkJ4BRyuHzx-86" style="edgeStyle=orthogonalEdgeStyle;rounded=0;orthogonalLoop=1;jettySize=auto;html=1;entryX=0.05;entryY=1.1;entryDx=0;entryDy=0;entryPerimeter=0;" parent="1" source="2RqJ-Z-hNAkJ4BRyuHzx-10" target="2RqJ-Z-hNAkJ4BRyuHzx-74" edge="1">
          <mxGeometry relative="1" as="geometry">
            <Array as="points">
              <mxPoint x="690" y="352" />
              <mxPoint x="690" y="352" />
            </Array>
          </mxGeometry>
        </mxCell>
        <mxCell id="2RqJ-Z-hNAkJ4BRyuHzx-87" style="edgeStyle=orthogonalEdgeStyle;rounded=0;orthogonalLoop=1;jettySize=auto;html=1;entryX=0.075;entryY=0.138;entryDx=0;entryDy=0;entryPerimeter=0;" parent="1" source="2RqJ-Z-hNAkJ4BRyuHzx-74" target="2RqJ-Z-hNAkJ4BRyuHzx-59" edge="1">
          <mxGeometry relative="1" as="geometry">
            <Array as="points">
              <mxPoint x="1070" y="330" />
              <mxPoint x="1070" y="211" />
            </Array>
          </mxGeometry>
        </mxCell>
        <mxCell id="2RqJ-Z-hNAkJ4BRyuHzx-88" value="ID/EX" style="text;html=1;align=center;verticalAlign=middle;resizable=0;points=[];autosize=1;strokeColor=none;fillColor=none;" parent="1" vertex="1">
          <mxGeometry x="1010" y="280" width="50" height="30" as="geometry" />
        </mxCell>
        <mxCell id="2RqJ-Z-hNAkJ4BRyuHzx-89" value="" style="verticalLabelPosition=bottom;verticalAlign=top;html=1;shape=mxgraph.basic.patternFillRect;fillStyle=diag;step=5;fillStrokeWidth=0.2;fillStrokeColor=#dddddd;direction=south;" parent="1" vertex="1">
          <mxGeometry x="1440" y="318" width="30" height="642" as="geometry" />
        </mxCell>
        <mxCell id="2RqJ-Z-hNAkJ4BRyuHzx-90" style="edgeStyle=orthogonalEdgeStyle;rounded=0;orthogonalLoop=1;jettySize=auto;html=1;entryX=0.623;entryY=1.2;entryDx=0;entryDy=0;entryPerimeter=0;" parent="1" target="2RqJ-Z-hNAkJ4BRyuHzx-89" edge="1">
          <mxGeometry relative="1" as="geometry">
            <Array as="points">
              <mxPoint x="1070" y="600" />
              <mxPoint x="1070" y="718" />
            </Array>
            <mxPoint x="1050" y="600" as="sourcePoint" />
          </mxGeometry>
        </mxCell>
        <mxCell id="tcZKiTuZh_uuGgO6nxxK-26" value="R2" style="edgeLabel;html=1;align=center;verticalAlign=middle;resizable=0;points=[];" parent="2RqJ-Z-hNAkJ4BRyuHzx-90" vertex="1" connectable="0">
          <mxGeometry x="0.8466" relative="1" as="geometry">
            <mxPoint as="offset" />
          </mxGeometry>
        </mxCell>
        <mxCell id="2RqJ-Z-hNAkJ4BRyuHzx-91" style="edgeStyle=orthogonalEdgeStyle;rounded=0;orthogonalLoop=1;jettySize=auto;html=1;entryX=0.025;entryY=0.4;entryDx=0;entryDy=0;entryPerimeter=0;" parent="1" source="2RqJ-Z-hNAkJ4BRyuHzx-89" target="2RqJ-Z-hNAkJ4BRyuHzx-46" edge="1">
          <mxGeometry relative="1" as="geometry">
            <Array as="points">
              <mxPoint x="1530" y="720" />
              <mxPoint x="1530" y="642" />
            </Array>
          </mxGeometry>
        </mxCell>
        <mxCell id="2RqJ-Z-hNAkJ4BRyuHzx-92" style="edgeStyle=orthogonalEdgeStyle;rounded=0;orthogonalLoop=1;jettySize=auto;html=1;entryX=0.425;entryY=1.133;entryDx=0;entryDy=0;entryPerimeter=0;" parent="1" source="2RqJ-Z-hNAkJ4BRyuHzx-29" target="2RqJ-Z-hNAkJ4BRyuHzx-89" edge="1">
          <mxGeometry relative="1" as="geometry" />
        </mxCell>
        <mxCell id="2RqJ-Z-hNAkJ4BRyuHzx-93" style="edgeStyle=orthogonalEdgeStyle;rounded=0;orthogonalLoop=1;jettySize=auto;html=1;entryX=0.033;entryY=0.5;entryDx=0;entryDy=0;entryPerimeter=0;" parent="1" source="2RqJ-Z-hNAkJ4BRyuHzx-89" target="2RqJ-Z-hNAkJ4BRyuHzx-44" edge="1">
          <mxGeometry relative="1" as="geometry">
            <Array as="points">
              <mxPoint x="1525" y="590" />
              <mxPoint x="1525" y="545" />
            </Array>
          </mxGeometry>
        </mxCell>
        <mxCell id="2RqJ-Z-hNAkJ4BRyuHzx-97" style="edgeStyle=orthogonalEdgeStyle;rounded=0;orthogonalLoop=1;jettySize=auto;html=1;entryX=1;entryY=1;entryDx=0;entryDy=0;" parent="1" source="2RqJ-Z-hNAkJ4BRyuHzx-95" target="2RqJ-Z-hNAkJ4BRyuHzx-51" edge="1">
          <mxGeometry relative="1" as="geometry">
            <Array as="points">
              <mxPoint x="1875" y="770" />
              <mxPoint x="1875" y="715" />
            </Array>
          </mxGeometry>
        </mxCell>
        <mxCell id="2RqJ-Z-hNAkJ4BRyuHzx-100" style="edgeStyle=orthogonalEdgeStyle;rounded=0;orthogonalLoop=1;jettySize=auto;html=1;" parent="1" source="2RqJ-Z-hNAkJ4BRyuHzx-95" target="2RqJ-Z-hNAkJ4BRyuHzx-51" edge="1">
          <mxGeometry relative="1" as="geometry">
            <Array as="points">
              <mxPoint x="1875" y="600" />
              <mxPoint x="1875" y="680" />
            </Array>
          </mxGeometry>
        </mxCell>
        <mxCell id="2RqJ-Z-hNAkJ4BRyuHzx-95" value="" style="verticalLabelPosition=bottom;verticalAlign=top;html=1;shape=mxgraph.basic.patternFillRect;fillStyle=diag;step=5;fillStrokeWidth=0.2;fillStrokeColor=#dddddd;direction=south;" parent="1" vertex="1">
          <mxGeometry x="1800" y="318" width="30" height="642" as="geometry" />
        </mxCell>
        <mxCell id="2RqJ-Z-hNAkJ4BRyuHzx-96" style="edgeStyle=orthogonalEdgeStyle;rounded=0;orthogonalLoop=1;jettySize=auto;html=1;entryX=0.699;entryY=1.133;entryDx=0;entryDy=0;entryPerimeter=0;" parent="1" source="2RqJ-Z-hNAkJ4BRyuHzx-89" target="2RqJ-Z-hNAkJ4BRyuHzx-95" edge="1">
          <mxGeometry relative="1" as="geometry">
            <Array as="points">
              <mxPoint x="1510" y="590" />
              <mxPoint x="1510" y="767" />
            </Array>
          </mxGeometry>
        </mxCell>
        <mxCell id="2RqJ-Z-hNAkJ4BRyuHzx-98" value="EX/MEM" style="text;html=1;align=center;verticalAlign=middle;resizable=0;points=[];autosize=1;strokeColor=none;fillColor=none;" parent="1" vertex="1">
          <mxGeometry x="1420" y="288" width="70" height="30" as="geometry" />
        </mxCell>
        <mxCell id="2RqJ-Z-hNAkJ4BRyuHzx-99" style="edgeStyle=orthogonalEdgeStyle;rounded=0;orthogonalLoop=1;jettySize=auto;html=1;entryX=0.431;entryY=1;entryDx=0;entryDy=0;entryPerimeter=0;fillColor=#f8cecc;strokeColor=#b85450;" parent="1" source="2RqJ-Z-hNAkJ4BRyuHzx-45" target="2RqJ-Z-hNAkJ4BRyuHzx-95" edge="1">
          <mxGeometry relative="1" as="geometry" />
        </mxCell>
        <mxCell id="2RqJ-Z-hNAkJ4BRyuHzx-104" style="edgeStyle=orthogonalEdgeStyle;rounded=0;orthogonalLoop=1;jettySize=auto;html=1;entryX=-0.04;entryY=0.5;entryDx=0;entryDy=0;entryPerimeter=0;" parent="1" source="2RqJ-Z-hNAkJ4BRyuHzx-51" target="2RqJ-Z-hNAkJ4BRyuHzx-22" edge="1">
          <mxGeometry relative="1" as="geometry">
            <Array as="points">
              <mxPoint x="2000" y="680" />
              <mxPoint x="2000" y="1040" />
              <mxPoint x="780" y="1040" />
              <mxPoint x="780" y="655" />
            </Array>
          </mxGeometry>
        </mxCell>
        <mxCell id="2RqJ-Z-hNAkJ4BRyuHzx-105" style="edgeStyle=orthogonalEdgeStyle;rounded=0;orthogonalLoop=1;jettySize=auto;html=1;entryX=0.083;entryY=1.033;entryDx=0;entryDy=0;entryPerimeter=0;" parent="1" source="2RqJ-Z-hNAkJ4BRyuHzx-59" target="2RqJ-Z-hNAkJ4BRyuHzx-89" edge="1">
          <mxGeometry relative="1" as="geometry" />
        </mxCell>
        <mxCell id="2RqJ-Z-hNAkJ4BRyuHzx-106" style="edgeStyle=orthogonalEdgeStyle;rounded=0;orthogonalLoop=1;jettySize=auto;html=1;entryX=0.81;entryY=1;entryDx=0;entryDy=0;entryPerimeter=0;" parent="1" source="2RqJ-Z-hNAkJ4BRyuHzx-89" target="2RqJ-Z-hNAkJ4BRyuHzx-68" edge="1">
          <mxGeometry relative="1" as="geometry">
            <Array as="points">
              <mxPoint x="1530" y="370" />
              <mxPoint x="1530" y="180" />
              <mxPoint x="350" y="180" />
              <mxPoint x="350" y="151" />
            </Array>
          </mxGeometry>
        </mxCell>
        <mxCell id="2RqJ-Z-hNAkJ4BRyuHzx-108" value="Se obtiene una instruccion a partir de una direccion de memoria dada por el PC. Se direcciona por ADDR" style="shape=note;whiteSpace=wrap;html=1;backgroundOutline=1;darkOpacity=0.05;fillColor=#f8cecc;strokeColor=#b85450;" parent="1" vertex="1">
          <mxGeometry x="110" y="580" width="120" height="110" as="geometry" />
        </mxCell>
        <mxCell id="2RqJ-Z-hNAkJ4BRyuHzx-109" value="Hay que definir cuantas entradas va tener esta memoria" style="shape=note;whiteSpace=wrap;html=1;backgroundOutline=1;darkOpacity=0.05;fillColor=#f8cecc;strokeColor=#b85450;" parent="1" vertex="1">
          <mxGeometry x="255" y="690" width="120" height="110" as="geometry" />
        </mxCell>
        <mxCell id="2RqJ-Z-hNAkJ4BRyuHzx-110" value="" style="shape=note;whiteSpace=wrap;html=1;backgroundOutline=1;darkOpacity=0.05;fillColor=#f8cecc;strokeColor=#b85450;" parent="1" vertex="1">
          <mxGeometry x="-10" y="150" width="120" height="110" as="geometry" />
        </mxCell>
        <mxCell id="2RqJ-Z-hNAkJ4BRyuHzx-111" value="Registros obtenidos a partir de decodificar la instruccion obtenida en DR de la mem inst" style="shape=note;whiteSpace=wrap;html=1;backgroundOutline=1;darkOpacity=0.05;fillColor=#f8cecc;strokeColor=#b85450;" parent="1" vertex="1">
          <mxGeometry x="707" y="395" width="120" height="110" as="geometry" />
        </mxCell>
        <mxCell id="2RqJ-Z-hNAkJ4BRyuHzx-112" value="Riegos Estructurales solucioados con 2 memorias, inst y datos" style="shape=note;whiteSpace=wrap;html=1;backgroundOutline=1;darkOpacity=0.05;fillColor=#dae8fc;strokeColor=#6c8ebf;" parent="1" vertex="1">
          <mxGeometry x="670" y="-100" width="100" height="90" as="geometry" />
        </mxCell>
        <mxCell id="2RqJ-Z-hNAkJ4BRyuHzx-114" value="Cuando se quiera WRITE de registos, la salida de la ALU va al mux y escrbire por DW y el busW," style="shape=note;whiteSpace=wrap;html=1;backgroundOutline=1;darkOpacity=0.05;fillColor=#ffe6cc;strokeColor=#d79b00;" parent="1" vertex="1">
          <mxGeometry x="1610" y="778" width="140" height="90" as="geometry" />
        </mxCell>
        <mxCell id="2RqJ-Z-hNAkJ4BRyuHzx-117" value="Cuando se quiera READ hay que sacar por DR&amp;nbsp;&amp;nbsp;" style="shape=note;whiteSpace=wrap;html=1;backgroundOutline=1;darkOpacity=0.05;fillColor=#f8cecc;strokeColor=#b85450;" parent="1" vertex="1">
          <mxGeometry x="1840" y="495" width="140" height="90" as="geometry" />
        </mxCell>
        <mxCell id="2RqJ-Z-hNAkJ4BRyuHzx-121" value="sumador para direccion de salto?" style="shape=note;whiteSpace=wrap;html=1;backgroundOutline=1;darkOpacity=0.05;fillColor=#f8cecc;strokeColor=#b85450;" parent="1" vertex="1">
          <mxGeometry x="1170" y="303" width="100" height="65" as="geometry" />
        </mxCell>
        <mxCell id="2RqJ-Z-hNAkJ4BRyuHzx-127" value="valida si el salto es tomado o no" style="shape=note;whiteSpace=wrap;html=1;backgroundOutline=1;darkOpacity=0.05;fillColor=#dae8fc;strokeColor=#6c8ebf;size=0;" parent="1" vertex="1">
          <mxGeometry x="1340" y="440" width="90" height="45" as="geometry" />
        </mxCell>
        <mxCell id="2RqJ-Z-hNAkJ4BRyuHzx-128" value="&amp;nbsp;almacenar un dato desde la memoria de registros hacia la memoria de datos (STORE), o cargar un dato en la memoria de registros desde la memoria de datos (LOAD)" style="shape=note;whiteSpace=wrap;html=1;backgroundOutline=1;darkOpacity=0.05;fillColor=#dae8fc;strokeColor=#6c8ebf;size=0;" parent="1" vertex="1">
          <mxGeometry x="1590" y="380" width="150" height="125" as="geometry" />
        </mxCell>
        <mxCell id="tcZKiTuZh_uuGgO6nxxK-2" value="" style="endArrow=classic;html=1;rounded=0;entryX=0.5;entryY=0;entryDx=0;entryDy=0;fillColor=#ffe6cc;strokeColor=#d79b00;exitX=0.25;exitY=0;exitDx=0;exitDy=0;exitPerimeter=0;" parent="1" source="2RqJ-Z-hNAkJ4BRyuHzx-95" target="2RqJ-Z-hNAkJ4BRyuHzx-16" edge="1">
          <mxGeometry width="50" height="50" relative="1" as="geometry">
            <mxPoint x="910" y="-20" as="sourcePoint" />
            <mxPoint x="770" y="390" as="targetPoint" />
            <Array as="points">
              <mxPoint x="1920" y="480" />
              <mxPoint x="1920" />
              <mxPoint x="905" y="-10" />
            </Array>
          </mxGeometry>
        </mxCell>
        <mxCell id="tcZKiTuZh_uuGgO6nxxK-4" value="RegWrte" style="text;html=1;align=center;verticalAlign=middle;resizable=0;points=[];autosize=1;strokeColor=none;fillColor=none;" parent="1" vertex="1">
          <mxGeometry x="905" y="435" width="70" height="30" as="geometry" />
        </mxCell>
        <mxCell id="tcZKiTuZh_uuGgO6nxxK-5" value="SEÑAL DE CONTROL PARA ESCRIBIR REGISTERS&lt;br&gt;" style="text;html=1;align=center;verticalAlign=middle;resizable=0;points=[];autosize=1;strokeColor=none;fillColor=none;" parent="1" vertex="1">
          <mxGeometry x="1260" y="-30" width="310" height="30" as="geometry" />
        </mxCell>
        <mxCell id="tcZKiTuZh_uuGgO6nxxK-8" style="edgeStyle=orthogonalEdgeStyle;rounded=0;orthogonalLoop=1;jettySize=auto;html=1;entryX=0.5;entryY=1;entryDx=0;entryDy=0;fillColor=#ffe6cc;strokeColor=#d79b00;" parent="1" source="tcZKiTuZh_uuGgO6nxxK-6" target="2RqJ-Z-hNAkJ4BRyuHzx-29" edge="1">
          <mxGeometry relative="1" as="geometry" />
        </mxCell>
        <mxCell id="tcZKiTuZh_uuGgO6nxxK-6" value="ALU CTRL&lt;br&gt;" style="ellipse;whiteSpace=wrap;html=1;fillColor=#ffe6cc;strokeColor=#d79b00;" parent="1" vertex="1">
          <mxGeometry x="1170" y="755" width="100" height="50" as="geometry" />
        </mxCell>
        <mxCell id="tcZKiTuZh_uuGgO6nxxK-9" value="ALU ctrl" style="text;html=1;align=center;verticalAlign=middle;resizable=0;points=[];autosize=1;strokeColor=none;fillColor=none;" parent="1" vertex="1">
          <mxGeometry x="1345" y="638" width="70" height="30" as="geometry" />
        </mxCell>
        <mxCell id="tcZKiTuZh_uuGgO6nxxK-10" value="/3" style="text;html=1;align=center;verticalAlign=middle;resizable=0;points=[];autosize=1;strokeColor=none;fillColor=none;" parent="1" vertex="1">
          <mxGeometry x="1285" y="778" width="30" height="30" as="geometry" />
        </mxCell>
        <mxCell id="tcZKiTuZh_uuGgO6nxxK-11" value="Opcode /6" style="text;html=1;align=center;verticalAlign=middle;resizable=0;points=[];autosize=1;strokeColor=none;fillColor=none;" parent="1" vertex="1">
          <mxGeometry x="1100" y="778" width="80" height="30" as="geometry" />
        </mxCell>
        <mxCell id="tcZKiTuZh_uuGgO6nxxK-12" value="Señal para escribir RD en instrucciones tipo R e I&lt;br&gt;" style="shape=note;whiteSpace=wrap;html=1;backgroundOutline=1;darkOpacity=0.05;fillColor=#ffe6cc;strokeColor=#d79b00;" parent="1" vertex="1">
          <mxGeometry x="1400" y="-140" width="100" height="90" as="geometry" />
        </mxCell>
        <mxCell id="tcZKiTuZh_uuGgO6nxxK-13" value="Señal que le dice que hacer a la ALU&lt;br&gt;" style="shape=note;whiteSpace=wrap;html=1;backgroundOutline=1;darkOpacity=0.05;fillColor=#ffe6cc;strokeColor=#d79b00;" parent="1" vertex="1">
          <mxGeometry x="1170" y="808" width="100" height="90" as="geometry" />
        </mxCell>
        <mxCell id="tcZKiTuZh_uuGgO6nxxK-15" value="Para la inst tipo R o si es un inmediato por el extesion de signo" style="shape=note;whiteSpace=wrap;html=1;backgroundOutline=1;darkOpacity=0.05;fillColor=#f8cecc;strokeColor=#b85450;" parent="1" vertex="1">
          <mxGeometry x="1190" y="648" width="120" height="50" as="geometry" />
        </mxCell>
        <mxCell id="tcZKiTuZh_uuGgO6nxxK-16" value="inmedi" style="text;html=1;align=center;verticalAlign=middle;resizable=0;points=[];autosize=1;strokeColor=none;fillColor=none;" parent="1" vertex="1">
          <mxGeometry x="1090" y="658" width="60" height="30" as="geometry" />
        </mxCell>
        <mxCell id="tcZKiTuZh_uuGgO6nxxK-17" value="" style="endArrow=classic;html=1;rounded=0;entryX=1;entryY=0.5;entryDx=0;entryDy=0;fillColor=#ffe6cc;strokeColor=#d79b00;" parent="1" target="2RqJ-Z-hNAkJ4BRyuHzx-30" edge="1">
          <mxGeometry width="50" height="50" relative="1" as="geometry">
            <mxPoint x="1165" y="740" as="sourcePoint" />
            <mxPoint x="1270" y="680" as="targetPoint" />
          </mxGeometry>
        </mxCell>
        <mxCell id="tcZKiTuZh_uuGgO6nxxK-18" value="Alu ctrl srtc B" style="text;html=1;align=center;verticalAlign=middle;resizable=0;points=[];autosize=1;strokeColor=none;fillColor=none;" parent="1" vertex="1">
          <mxGeometry x="1120" y="725" width="90" height="30" as="geometry" />
        </mxCell>
        <mxCell id="tcZKiTuZh_uuGgO6nxxK-20" value="Este MUX ve si el dato a RD es por un LOAD o por una tipo R o I" style="shape=note;whiteSpace=wrap;html=1;backgroundOutline=1;darkOpacity=0.05;fillColor=#f8cecc;strokeColor=#b85450;" parent="1" vertex="1">
          <mxGeometry x="2020" y="648" width="130" height="72" as="geometry" />
        </mxCell>
        <mxCell id="tcZKiTuZh_uuGgO6nxxK-21" value="LOAD" style="text;html=1;align=center;verticalAlign=middle;resizable=0;points=[];autosize=1;strokeColor=none;fillColor=none;" parent="1" vertex="1">
          <mxGeometry x="1510" y="518" width="60" height="30" as="geometry" />
        </mxCell>
        <mxCell id="tcZKiTuZh_uuGgO6nxxK-23" value="" style="endArrow=classic;html=1;rounded=0;entryX=1;entryY=0.5;entryDx=0;entryDy=0;fillColor=#ffe6cc;strokeColor=#d79b00;" parent="1" edge="1">
          <mxGeometry width="50" height="50" relative="1" as="geometry">
            <mxPoint x="1944.38" y="790" as="sourcePoint" />
            <mxPoint x="1944.38" y="730" as="targetPoint" />
          </mxGeometry>
        </mxCell>
        <mxCell id="tcZKiTuZh_uuGgO6nxxK-24" value="Señal para esrcibir resultado de ALU o LOAD" style="shape=note;whiteSpace=wrap;html=1;backgroundOutline=1;darkOpacity=0.05;fillColor=#ffe6cc;strokeColor=#d79b00;" parent="1" vertex="1">
          <mxGeometry x="1880" y="800" width="100" height="90" as="geometry" />
        </mxCell>
        <mxCell id="tcZKiTuZh_uuGgO6nxxK-25" value="MemToReg" style="text;html=1;align=center;verticalAlign=middle;resizable=0;points=[];autosize=1;strokeColor=none;fillColor=none;" parent="1" vertex="1">
          <mxGeometry x="1910" y="758" width="80" height="30" as="geometry" />
        </mxCell>
        <mxCell id="tcZKiTuZh_uuGgO6nxxK-27" value="Para guardar en la memoria cuando es un STORE" style="shape=note;whiteSpace=wrap;html=1;backgroundOutline=1;darkOpacity=0.05;fillColor=#f8cecc;strokeColor=#b85450;" parent="1" vertex="1">
          <mxGeometry x="1370" y="728" width="100" height="60" as="geometry" />
        </mxCell>
        <mxCell id="tcZKiTuZh_uuGgO6nxxK-28" value="A" style="text;html=1;align=center;verticalAlign=middle;resizable=0;points=[];autosize=1;strokeColor=none;fillColor=none;" parent="1" vertex="1">
          <mxGeometry x="1275" y="518" width="30" height="30" as="geometry" />
        </mxCell>
        <mxCell id="tcZKiTuZh_uuGgO6nxxK-29" value="B" style="text;html=1;align=center;verticalAlign=middle;resizable=0;points=[];autosize=1;strokeColor=none;fillColor=none;" parent="1" vertex="1">
          <mxGeometry x="1265" y="608" width="30" height="30" as="geometry" />
        </mxCell>
        <mxCell id="tcZKiTuZh_uuGgO6nxxK-30" value="RS1" style="text;html=1;align=center;verticalAlign=middle;resizable=0;points=[];autosize=1;strokeColor=none;fillColor=none;" parent="1" vertex="1">
          <mxGeometry x="1050" y="495" width="50" height="30" as="geometry" />
        </mxCell>
        <mxCell id="tcZKiTuZh_uuGgO6nxxK-32" value="&lt;span style=&quot;color: rgb(0, 0, 0); font-family: Helvetica; font-size: 12px; font-style: normal; font-variant-ligatures: normal; font-variant-caps: normal; font-weight: 400; letter-spacing: normal; orphans: 2; text-align: center; text-indent: 0px; text-transform: none; widows: 2; word-spacing: 0px; -webkit-text-stroke-width: 0px; background-color: rgb(251, 251, 251); text-decoration-thickness: initial; text-decoration-style: initial; text-decoration-color: initial; float: none; display: inline !important;&quot;&gt;RS2&lt;/span&gt;" style="text;whiteSpace=wrap;html=1;" parent="1" vertex="1">
          <mxGeometry x="1050" y="565" width="60" height="40" as="geometry" />
        </mxCell>
        <mxCell id="tcZKiTuZh_uuGgO6nxxK-33" value="" style="endArrow=classic;html=1;rounded=0;entryX=0.587;entryY=1.028;entryDx=0;entryDy=0;entryPerimeter=0;fillColor=#ffe6cc;strokeColor=#d79b00;" parent="1" target="2RqJ-Z-hNAkJ4BRyuHzx-42" edge="1">
          <mxGeometry width="50" height="50" relative="1" as="geometry">
            <mxPoint x="1480" y="410" as="sourcePoint" />
            <mxPoint x="1520" y="680" as="targetPoint" />
            <Array as="points">
              <mxPoint x="1500" y="410" />
              <mxPoint x="1500" y="690" />
              <mxPoint x="1680" y="690" />
            </Array>
          </mxGeometry>
        </mxCell>
        <mxCell id="tcZKiTuZh_uuGgO6nxxK-34" value="MemWR ctrl&lt;br&gt;" style="text;html=1;align=center;verticalAlign=middle;resizable=0;points=[];autosize=1;strokeColor=none;fillColor=none;" parent="1" vertex="1">
          <mxGeometry x="1635" y="688" width="90" height="30" as="geometry" />
        </mxCell>
        <mxCell id="tcZKiTuZh_uuGgO6nxxK-35" value="PC BRANCH" style="text;html=1;align=center;verticalAlign=middle;resizable=0;points=[];autosize=1;strokeColor=none;fillColor=none;" parent="1" vertex="1">
          <mxGeometry x="1520" y="260" width="90" height="30" as="geometry" />
        </mxCell>
        <mxCell id="tcZKiTuZh_uuGgO6nxxK-36" value="nextPCsrc" style="text;html=1;align=center;verticalAlign=middle;resizable=0;points=[];autosize=1;strokeColor=none;fillColor=none;" parent="1" vertex="1">
          <mxGeometry x="414" y="140" width="80" height="30" as="geometry" />
        </mxCell>
        <mxCell id="tcZKiTuZh_uuGgO6nxxK-37" value="" style="endArrow=classic;html=1;rounded=0;fillColor=#fff2cc;strokeColor=#d6b656;entryX=0.668;entryY=0.008;entryDx=0;entryDy=0;entryPerimeter=0;" parent="1" target="2RqJ-Z-hNAkJ4BRyuHzx-68" edge="1">
          <mxGeometry width="50" height="50" relative="1" as="geometry">
            <mxPoint x="510" y="136" as="sourcePoint" />
            <mxPoint x="429" y="128" as="targetPoint" />
          </mxGeometry>
        </mxCell>
      </root>
    </mxGraphModel>
  </diagram>
  <diagram id="Z4pRhoSVNK497K8uG6vg" name="MIPS2023">
    <mxGraphModel dx="3217" dy="2456" grid="1" gridSize="10" guides="1" tooltips="1" connect="1" arrows="1" fold="1" page="1" pageScale="1" pageWidth="827" pageHeight="1169" math="0" shadow="0">
      <root>
        <mxCell id="0" />
        <mxCell id="1" parent="0" />
        <mxCell id="jJp0ub6KG7U2lXxTCfqB-1" style="edgeStyle=orthogonalEdgeStyle;rounded=0;orthogonalLoop=1;jettySize=auto;html=1;" parent="1" source="jJp0ub6KG7U2lXxTCfqB-3" edge="1">
          <mxGeometry relative="1" as="geometry">
            <mxPoint x="230.00000000000045" y="545" as="targetPoint" />
          </mxGeometry>
        </mxCell>
        <mxCell id="jJp0ub6KG7U2lXxTCfqB-2" style="edgeStyle=orthogonalEdgeStyle;rounded=0;orthogonalLoop=1;jettySize=auto;html=1;entryX=0;entryY=0.5;entryDx=0;entryDy=0;" parent="1" source="jJp0ub6KG7U2lXxTCfqB-3" target="jJp0ub6KG7U2lXxTCfqB-9" edge="1">
          <mxGeometry relative="1" as="geometry" />
        </mxCell>
        <mxCell id="jJp0ub6KG7U2lXxTCfqB-3" value="" style="swimlane;startSize=0;" parent="1" vertex="1">
          <mxGeometry x="-30" y="500" width="90" height="90" as="geometry" />
        </mxCell>
        <mxCell id="jJp0ub6KG7U2lXxTCfqB-4" value="PC&lt;br&gt;" style="text;html=1;align=center;verticalAlign=middle;resizable=0;points=[];autosize=1;strokeColor=none;fillColor=none;" parent="jJp0ub6KG7U2lXxTCfqB-3" vertex="1">
          <mxGeometry x="25" y="30" width="40" height="30" as="geometry" />
        </mxCell>
        <mxCell id="WbOWvlH4ZXxiy0UvsYZo-4" style="edgeStyle=orthogonalEdgeStyle;rounded=0;orthogonalLoop=1;jettySize=auto;html=1;" parent="1" source="u0YVO1Xili40BDTapkqs-97" edge="1">
          <mxGeometry relative="1" as="geometry">
            <mxPoint x="610" y="358" as="targetPoint" />
          </mxGeometry>
        </mxCell>
        <mxCell id="jJp0ub6KG7U2lXxTCfqB-9" value="" style="shape=sumEllipse;perimeter=ellipsePerimeter;whiteSpace=wrap;html=1;backgroundOutline=1;" parent="1" vertex="1">
          <mxGeometry x="220" y="318" width="80" height="80" as="geometry" />
        </mxCell>
        <mxCell id="jJp0ub6KG7U2lXxTCfqB-10" value="" style="endArrow=classic;html=1;rounded=0;entryX=0;entryY=0;entryDx=0;entryDy=0;" parent="1" target="jJp0ub6KG7U2lXxTCfqB-9" edge="1">
          <mxGeometry width="50" height="50" relative="1" as="geometry">
            <mxPoint x="160" y="330" as="sourcePoint" />
            <mxPoint x="440" y="410" as="targetPoint" />
          </mxGeometry>
        </mxCell>
        <mxCell id="jJp0ub6KG7U2lXxTCfqB-11" value="+4" style="text;html=1;align=center;verticalAlign=middle;resizable=0;points=[];autosize=1;strokeColor=none;fillColor=none;" parent="1" vertex="1">
          <mxGeometry x="140" y="295" width="40" height="30" as="geometry" />
        </mxCell>
        <mxCell id="jJp0ub6KG7U2lXxTCfqB-12" value="SUMADOR&lt;br&gt;" style="text;html=1;align=center;verticalAlign=middle;resizable=0;points=[];autosize=1;strokeColor=none;fillColor=none;" parent="1" vertex="1">
          <mxGeometry x="220" y="398" width="80" height="30" as="geometry" />
        </mxCell>
        <mxCell id="jJp0ub6KG7U2lXxTCfqB-13" value="o_PC" style="text;html=1;align=center;verticalAlign=middle;resizable=0;points=[];autosize=1;strokeColor=none;fillColor=none;" parent="1" vertex="1">
          <mxGeometry x="60" y="544" width="50" height="30" as="geometry" />
        </mxCell>
        <mxCell id="w3CyG1-K6nYdBdU8kx03-1" style="edgeStyle=orthogonalEdgeStyle;rounded=0;orthogonalLoop=1;jettySize=auto;html=1;exitX=0.539;exitY=-0.182;exitDx=0;exitDy=0;exitPerimeter=0;entryX=0;entryY=0;entryDx=0;entryDy=57.5;entryPerimeter=0;" parent="1" source="jJp0ub6KG7U2lXxTCfqB-38" target="WbOWvlH4ZXxiy0UvsYZo-13" edge="1">
          <mxGeometry relative="1" as="geometry">
            <mxPoint x="889.9999999999995" y="500" as="targetPoint" />
            <Array as="points">
              <mxPoint x="880" y="566" />
              <mxPoint x="880" y="416" />
            </Array>
          </mxGeometry>
        </mxCell>
        <mxCell id="jJp0ub6KG7U2lXxTCfqB-38" value="" style="rounded=1;whiteSpace=wrap;html=1;direction=south;fillColor=#d5e8d4;strokeColor=#82b366;" parent="1" vertex="1">
          <mxGeometry x="615" y="-280" width="40" height="1570" as="geometry" />
        </mxCell>
        <mxCell id="jJp0ub6KG7U2lXxTCfqB-39" value="IF/ID" style="text;html=1;align=center;verticalAlign=middle;resizable=0;points=[];autosize=1;strokeColor=none;fillColor=none;" parent="1" vertex="1">
          <mxGeometry x="610" y="-320" width="50" height="30" as="geometry" />
        </mxCell>
        <mxCell id="jJp0ub6KG7U2lXxTCfqB-36" style="edgeStyle=orthogonalEdgeStyle;rounded=0;orthogonalLoop=1;jettySize=auto;html=1;entryX=0.542;entryY=1.125;entryDx=0;entryDy=0;entryPerimeter=0;" parent="1" target="jJp0ub6KG7U2lXxTCfqB-38" edge="1">
          <mxGeometry relative="1" as="geometry">
            <mxPoint x="590" y="570" as="targetPoint" />
            <mxPoint x="419.99999999999955" y="570.0000000000005" as="sourcePoint" />
          </mxGeometry>
        </mxCell>
        <mxCell id="jJp0ub6KG7U2lXxTCfqB-41" value="o_instruction" style="text;html=1;align=center;verticalAlign=middle;resizable=0;points=[];autosize=1;strokeColor=none;fillColor=none;" parent="1" vertex="1">
          <mxGeometry x="655" y="568" width="90" height="30" as="geometry" />
        </mxCell>
        <mxCell id="CHy98axEKr6K8oAnqVOJ-1" value="&lt;div style=&quot;color: rgb(204, 204, 204); background-color: rgb(31, 31, 31); font-family: &amp;quot;Droid Sans Mono&amp;quot;, &amp;quot;monospace&amp;quot;, monospace; font-size: 14px; line-height: 19px; white-space-collapse: preserve;&quot;&gt;&lt;br&gt;&lt;/div&gt;" style="text;html=1;align=center;verticalAlign=middle;resizable=0;points=[];autosize=1;strokeColor=none;fillColor=none;" parent="1" vertex="1">
          <mxGeometry x="170" y="360" width="20" height="30" as="geometry" />
        </mxCell>
        <mxCell id="CHy98axEKr6K8oAnqVOJ-2" value="&lt;div&gt;o_PC&lt;br&gt;&lt;/div&gt;" style="text;html=1;align=center;verticalAlign=middle;resizable=0;points=[];autosize=1;strokeColor=none;fillColor=none;" parent="1" vertex="1">
          <mxGeometry x="160" y="360" width="50" height="30" as="geometry" />
        </mxCell>
        <mxCell id="iI_WoV8NiBqzTbPs9fMz-11" value="" style="endArrow=classic;html=1;rounded=0;fillColor=#f8cecc;strokeColor=#b85450;exitX=0;exitY=0.75;exitDx=0;exitDy=0;" parent="1" edge="1">
          <mxGeometry width="50" height="50" relative="1" as="geometry">
            <mxPoint x="1210" y="-400" as="sourcePoint" />
            <mxPoint x="-25" y="483" as="targetPoint" />
            <Array as="points">
              <mxPoint x="-30" y="-400" />
              <mxPoint x="-25" y="448" />
            </Array>
          </mxGeometry>
        </mxCell>
        <mxCell id="iI_WoV8NiBqzTbPs9fMz-12" value="i_pc_write" style="text;html=1;align=center;verticalAlign=middle;resizable=0;points=[];autosize=1;strokeColor=none;fillColor=none;" parent="1" vertex="1">
          <mxGeometry x="-105" y="450" width="80" height="30" as="geometry" />
        </mxCell>
        <mxCell id="iI_WoV8NiBqzTbPs9fMz-14" value="o_pc_4" style="text;html=1;align=center;verticalAlign=middle;resizable=0;points=[];autosize=1;strokeColor=none;fillColor=none;" parent="1" vertex="1">
          <mxGeometry x="295" y="360" width="60" height="30" as="geometry" />
        </mxCell>
        <mxCell id="iI_WoV8NiBqzTbPs9fMz-15" value="" style="endArrow=classic;html=1;rounded=0;entryX=0;entryY=0.5;entryDx=0;entryDy=0;fillColor=#dae8fc;strokeColor=#6c8ebf;exitX=1;exitY=0.25;exitDx=0;exitDy=0;" parent="1" source="lK-7c_NvrQv9jkDDaKJB-1" edge="1">
          <mxGeometry width="50" height="50" relative="1" as="geometry">
            <mxPoint x="139.32999999999998" y="757" as="sourcePoint" />
            <mxPoint x="230.00000000000045" y="600" as="targetPoint" />
            <Array as="points">
              <mxPoint x="140" y="936" />
              <mxPoint x="140" y="600" />
            </Array>
          </mxGeometry>
        </mxCell>
        <mxCell id="iI_WoV8NiBqzTbPs9fMz-16" value="i_instruction_address" style="text;html=1;align=center;verticalAlign=middle;resizable=0;points=[];autosize=1;strokeColor=none;fillColor=none;" parent="1" vertex="1">
          <mxGeometry y="720" width="140" height="30" as="geometry" />
        </mxCell>
        <mxCell id="iI_WoV8NiBqzTbPs9fMz-18" value="" style="endArrow=classic;html=1;rounded=0;fillColor=#dae8fc;strokeColor=#6c8ebf;exitX=0.75;exitY=1;exitDx=0;exitDy=0;entryX=0.5;entryY=1;entryDx=0;entryDy=0;" parent="1" source="lK-7c_NvrQv9jkDDaKJB-1" target="WbOWvlH4ZXxiy0UvsYZo-9" edge="1">
          <mxGeometry width="50" height="50" relative="1" as="geometry">
            <mxPoint x="330" y="816.5" as="sourcePoint" />
            <mxPoint x="325" y="690" as="targetPoint" />
            <Array as="points">
              <mxPoint x="-52" y="1060" />
              <mxPoint x="325" y="1060" />
            </Array>
          </mxGeometry>
        </mxCell>
        <mxCell id="iI_WoV8NiBqzTbPs9fMz-19" value="i_flag_write_intruc" style="text;html=1;align=center;verticalAlign=middle;resizable=0;points=[];autosize=1;strokeColor=none;fillColor=none;" parent="1" vertex="1">
          <mxGeometry x="330" y="710" width="120" height="30" as="geometry" />
        </mxCell>
        <mxCell id="o05d-LFxR7mWOTT_J0bf-1" value="" style="shape=sumEllipse;perimeter=ellipsePerimeter;whiteSpace=wrap;html=1;backgroundOutline=1;" parent="1" vertex="1">
          <mxGeometry x="210" y="173" width="80" height="80" as="geometry" />
        </mxCell>
        <mxCell id="o05d-LFxR7mWOTT_J0bf-2" value="" style="endArrow=classic;html=1;rounded=0;entryX=0;entryY=0;entryDx=0;entryDy=0;" parent="1" target="o05d-LFxR7mWOTT_J0bf-1" edge="1">
          <mxGeometry width="50" height="50" relative="1" as="geometry">
            <mxPoint x="80" y="185" as="sourcePoint" />
            <mxPoint x="430" y="265" as="targetPoint" />
          </mxGeometry>
        </mxCell>
        <mxCell id="o05d-LFxR7mWOTT_J0bf-3" value="+8" style="text;html=1;align=center;verticalAlign=middle;resizable=0;points=[];autosize=1;strokeColor=none;fillColor=none;" parent="1" vertex="1">
          <mxGeometry x="110" y="150" width="40" height="30" as="geometry" />
        </mxCell>
        <mxCell id="o05d-LFxR7mWOTT_J0bf-4" value="SUMADOR&lt;br&gt;" style="text;html=1;align=center;verticalAlign=middle;resizable=0;points=[];autosize=1;strokeColor=none;fillColor=none;" parent="1" vertex="1">
          <mxGeometry x="210" y="253" width="80" height="30" as="geometry" />
        </mxCell>
        <mxCell id="o05d-LFxR7mWOTT_J0bf-5" value="&lt;div style=&quot;color: rgb(204, 204, 204); background-color: rgb(31, 31, 31); font-family: &amp;quot;Droid Sans Mono&amp;quot;, &amp;quot;monospace&amp;quot;, monospace; font-size: 14px; line-height: 19px; white-space-collapse: preserve;&quot;&gt;&lt;br&gt;&lt;/div&gt;" style="text;html=1;align=center;verticalAlign=middle;resizable=0;points=[];autosize=1;strokeColor=none;fillColor=none;" parent="1" vertex="1">
          <mxGeometry x="160" y="215" width="20" height="30" as="geometry" />
        </mxCell>
        <mxCell id="o05d-LFxR7mWOTT_J0bf-6" value="&lt;div&gt;o_PC&lt;br&gt;&lt;/div&gt;" style="text;html=1;align=center;verticalAlign=middle;resizable=0;points=[];autosize=1;strokeColor=none;fillColor=none;" parent="1" vertex="1">
          <mxGeometry x="150" y="215" width="50" height="30" as="geometry" />
        </mxCell>
        <mxCell id="o05d-LFxR7mWOTT_J0bf-7" value="o_pc_8" style="text;html=1;align=center;verticalAlign=middle;resizable=0;points=[];autosize=1;strokeColor=none;fillColor=none;" parent="1" vertex="1">
          <mxGeometry x="285" y="215" width="60" height="30" as="geometry" />
        </mxCell>
        <mxCell id="o05d-LFxR7mWOTT_J0bf-8" style="edgeStyle=orthogonalEdgeStyle;rounded=0;orthogonalLoop=1;jettySize=auto;html=1;entryX=0;entryY=0.5;entryDx=0;entryDy=0;" parent="1" source="jJp0ub6KG7U2lXxTCfqB-13" target="o05d-LFxR7mWOTT_J0bf-1" edge="1">
          <mxGeometry relative="1" as="geometry">
            <mxPoint x="85.80000000000018" y="527.3399999999997" as="sourcePoint" />
            <mxPoint x="50" y="202.5" as="targetPoint" />
            <Array as="points">
              <mxPoint x="100" y="213" />
            </Array>
          </mxGeometry>
        </mxCell>
        <mxCell id="o05d-LFxR7mWOTT_J0bf-14" value="&lt;div style=&quot;text-align: start;&quot;&gt;&lt;br&gt;&lt;/div&gt;" style="text;html=1;align=center;verticalAlign=middle;resizable=0;points=[];autosize=1;strokeColor=none;fillColor=none;" parent="1" vertex="1">
          <mxGeometry x="-240" y="758" width="20" height="30" as="geometry" />
        </mxCell>
        <mxCell id="o05d-LFxR7mWOTT_J0bf-19" value="NEW PC" style="text;html=1;align=center;verticalAlign=middle;resizable=0;points=[];autosize=1;strokeColor=none;fillColor=none;" parent="1" vertex="1">
          <mxGeometry x="-240" y="560" width="70" height="30" as="geometry" />
        </mxCell>
        <mxCell id="z44TfpannLhRyxi1QggI-6" value="" style="endArrow=classic;html=1;rounded=0;entryX=-0.016;entryY=0.711;entryDx=0;entryDy=0;fillColor=#dae8fc;strokeColor=#6c8ebf;entryPerimeter=0;exitX=1;exitY=0.5;exitDx=0;exitDy=0;" parent="1" source="lK-7c_NvrQv9jkDDaKJB-1" edge="1">
          <mxGeometry width="50" height="50" relative="1" as="geometry">
            <mxPoint x="160" y="820" as="sourcePoint" />
            <mxPoint x="226.96000000000004" y="637.98" as="targetPoint" />
            <Array as="points">
              <mxPoint x="160" y="950" />
              <mxPoint x="160" y="840" />
              <mxPoint x="160" y="640" />
            </Array>
          </mxGeometry>
        </mxCell>
        <mxCell id="z44TfpannLhRyxi1QggI-7" value="i_instruction" style="text;html=1;align=center;verticalAlign=middle;resizable=0;points=[];autosize=1;strokeColor=none;fillColor=none;" parent="1" vertex="1">
          <mxGeometry x="150" y="728" width="90" height="30" as="geometry" />
        </mxCell>
        <mxCell id="lK-7c_NvrQv9jkDDaKJB-1" value="UnitDebug" style="shape=parallelogram;perimeter=parallelogramPerimeter;whiteSpace=wrap;html=1;fixedSize=1;fillColor=#dae8fc;strokeColor=#6c8ebf;" parent="1" vertex="1">
          <mxGeometry x="-210" y="910" width="210" height="70" as="geometry" />
        </mxCell>
        <mxCell id="lK-7c_NvrQv9jkDDaKJB-2" value="o_dato_mem_ins" style="text;html=1;align=center;verticalAlign=middle;resizable=0;points=[];autosize=1;strokeColor=none;fillColor=none;" parent="1" vertex="1">
          <mxGeometry x="-15" y="950" width="120" height="30" as="geometry" />
        </mxCell>
        <mxCell id="lK-7c_NvrQv9jkDDaKJB-3" value="o_select_mem_ins_dir" style="text;html=1;align=center;verticalAlign=middle;resizable=0;points=[];autosize=1;strokeColor=none;fillColor=none;" parent="1" vertex="1">
          <mxGeometry y="910" width="140" height="30" as="geometry" />
        </mxCell>
        <mxCell id="lK-7c_NvrQv9jkDDaKJB-4" value="o_flag_instr_write" style="text;html=1;align=center;verticalAlign=middle;resizable=0;points=[];autosize=1;strokeColor=none;fillColor=none;" parent="1" vertex="1">
          <mxGeometry x="-30" y="1020" width="120" height="30" as="geometry" />
        </mxCell>
        <mxCell id="WbOWvlH4ZXxiy0UvsYZo-1" value="" style="endArrow=classic;html=1;rounded=0;fillColor=#f8cecc;strokeColor=#b85450;exitX=-0.004;exitY=0.398;exitDx=0;exitDy=0;exitPerimeter=0;" parent="1" edge="1">
          <mxGeometry width="50" height="50" relative="1" as="geometry">
            <mxPoint x="1120.0000000000007" y="-352.34000000000015" as="sourcePoint" />
            <mxPoint x="610" y="-150" as="targetPoint" />
            <Array as="points">
              <mxPoint x="521" y="-350" />
              <mxPoint x="520.68" y="-150" />
            </Array>
          </mxGeometry>
        </mxCell>
        <mxCell id="WbOWvlH4ZXxiy0UvsYZo-3" value="i_IFID_unit_risk_write" style="text;html=1;align=center;verticalAlign=middle;resizable=0;points=[];autosize=1;strokeColor=none;fillColor=none;" parent="1" vertex="1">
          <mxGeometry x="380" y="-230" width="140" height="30" as="geometry" />
        </mxCell>
        <mxCell id="WbOWvlH4ZXxiy0UvsYZo-5" style="edgeStyle=orthogonalEdgeStyle;rounded=0;orthogonalLoop=1;jettySize=auto;html=1;entryX=0.314;entryY=0.961;entryDx=0;entryDy=0;entryPerimeter=0;" parent="1" source="o05d-LFxR7mWOTT_J0bf-1" target="jJp0ub6KG7U2lXxTCfqB-38" edge="1">
          <mxGeometry relative="1" as="geometry" />
        </mxCell>
        <mxCell id="WbOWvlH4ZXxiy0UvsYZo-6" value="i_pc4" style="text;html=1;align=center;verticalAlign=middle;resizable=0;points=[];autosize=1;strokeColor=none;fillColor=none;" parent="1" vertex="1">
          <mxGeometry x="695" y="368" width="50" height="30" as="geometry" />
        </mxCell>
        <mxCell id="WbOWvlH4ZXxiy0UvsYZo-7" value="i_pc8" style="text;html=1;align=center;verticalAlign=middle;resizable=0;points=[];autosize=1;strokeColor=none;fillColor=none;" parent="1" vertex="1">
          <mxGeometry x="700" y="223" width="50" height="30" as="geometry" />
        </mxCell>
        <mxCell id="WbOWvlH4ZXxiy0UvsYZo-9" value="" style="swimlane;startSize=0;" parent="1" vertex="1">
          <mxGeometry x="230" y="515" width="190" height="180" as="geometry" />
        </mxCell>
        <mxCell id="WbOWvlH4ZXxiy0UvsYZo-10" value="MEM INSTRUCTIONS" style="text;html=1;align=center;verticalAlign=middle;resizable=0;points=[];autosize=1;strokeColor=none;fillColor=none;" parent="WbOWvlH4ZXxiy0UvsYZo-9" vertex="1">
          <mxGeometry x="15" y="120" width="140" height="30" as="geometry" />
        </mxCell>
        <mxCell id="WbOWvlH4ZXxiy0UvsYZo-11" value="ADDR" style="text;html=1;align=center;verticalAlign=middle;resizable=0;points=[];autosize=1;strokeColor=none;fillColor=none;" parent="WbOWvlH4ZXxiy0UvsYZo-9" vertex="1">
          <mxGeometry y="20" width="60" height="30" as="geometry" />
        </mxCell>
        <mxCell id="WbOWvlH4ZXxiy0UvsYZo-12" value="DR" style="text;html=1;align=center;verticalAlign=middle;resizable=0;points=[];autosize=1;strokeColor=none;fillColor=none;" parent="WbOWvlH4ZXxiy0UvsYZo-9" vertex="1">
          <mxGeometry x="150" y="45" width="40" height="30" as="geometry" />
        </mxCell>
        <mxCell id="WbOWvlH4ZXxiy0UvsYZo-13" value="BANK REGISTERS" style="shape=cylinder3;whiteSpace=wrap;html=1;boundedLbl=1;backgroundOutline=1;size=15;" parent="1" vertex="1">
          <mxGeometry x="1140" y="358" width="180" height="352" as="geometry" />
        </mxCell>
        <mxCell id="lI9d6Rv77IIza7JA3m1U-1" value="" style="endArrow=classic;html=1;rounded=0;entryX=0.5;entryY=0;entryDx=0;entryDy=0;entryPerimeter=0;fillColor=#1ba1e2;strokeColor=#006EAF;exitX=0;exitY=0;exitDx=0;exitDy=0;" parent="1" source="_TVw85CBntGOAsQvyyHS-52" target="WbOWvlH4ZXxiy0UvsYZo-13" edge="1">
          <mxGeometry width="50" height="50" relative="1" as="geometry">
            <mxPoint x="1230" y="-100" as="sourcePoint" />
            <mxPoint x="1460" y="400" as="targetPoint" />
            <Array as="points">
              <mxPoint x="5240" y="-490" />
              <mxPoint x="1600" y="-490" />
              <mxPoint x="1230" y="-90" />
            </Array>
          </mxGeometry>
        </mxCell>
        <mxCell id="lI9d6Rv77IIza7JA3m1U-3" value="&lt;div&gt;&lt;div&gt;i_flag_regWrite&lt;br&gt;&lt;/div&gt;&lt;/div&gt;" style="text;html=1;align=center;verticalAlign=middle;resizable=0;points=[];autosize=1;strokeColor=none;fillColor=none;" parent="1" vertex="1">
          <mxGeometry x="1230" y="295" width="100" height="30" as="geometry" />
        </mxCell>
        <mxCell id="w3CyG1-K6nYdBdU8kx03-3" value="&lt;div&gt;i_addr_RS&lt;/div&gt;instrucction [25-21]" style="text;html=1;align=center;verticalAlign=middle;resizable=0;points=[];autosize=1;strokeColor=none;fillColor=none;" parent="1" vertex="1">
          <mxGeometry x="1020" y="423" width="120" height="40" as="geometry" />
        </mxCell>
        <mxCell id="w3CyG1-K6nYdBdU8kx03-6" value="" style="endArrow=classic;html=1;rounded=0;entryX=0;entryY=0;entryDx=0;entryDy=142.5;entryPerimeter=0;" parent="1" source="u0YVO1Xili40BDTapkqs-100" target="WbOWvlH4ZXxiy0UvsYZo-13" edge="1">
          <mxGeometry width="50" height="50" relative="1" as="geometry">
            <mxPoint x="880" y="500" as="sourcePoint" />
            <mxPoint x="1330" y="390" as="targetPoint" />
          </mxGeometry>
        </mxCell>
        <mxCell id="w3CyG1-K6nYdBdU8kx03-7" value="&lt;div&gt;&lt;br&gt;&lt;/div&gt;&lt;div&gt;i_addr_RT&lt;/div&gt;instrucction [20-16]" style="text;html=1;align=center;verticalAlign=middle;resizable=0;points=[];autosize=1;strokeColor=none;fillColor=none;" parent="1" vertex="1">
          <mxGeometry x="1010" y="483" width="120" height="60" as="geometry" />
        </mxCell>
        <mxCell id="w3CyG1-K6nYdBdU8kx03-8" value="Write Reg" style="text;html=1;align=center;verticalAlign=middle;resizable=0;points=[];autosize=1;strokeColor=none;fillColor=none;" parent="1" vertex="1">
          <mxGeometry x="1140" y="590" width="80" height="30" as="geometry" />
        </mxCell>
        <mxCell id="w3CyG1-K6nYdBdU8kx03-10" value="" style="endArrow=classic;html=1;rounded=0;entryX=-0.025;entryY=0.3;entryDx=0;entryDy=0;entryPerimeter=0;fillColor=#ffe6cc;strokeColor=#d79b00;exitX=1;exitY=1;exitDx=0;exitDy=0;" parent="1" source="CIXFdN_R7IZpRCdpcp0h-8" target="w3CyG1-K6nYdBdU8kx03-8" edge="1">
          <mxGeometry width="50" height="50" relative="1" as="geometry">
            <mxPoint x="6140" y="690" as="sourcePoint" />
            <mxPoint x="1330" y="620" as="targetPoint" />
            <Array as="points">
              <mxPoint x="6380" y="1680" />
              <mxPoint x="980" y="1690" />
              <mxPoint x="990" y="600" />
            </Array>
          </mxGeometry>
        </mxCell>
        <mxCell id="w3CyG1-K6nYdBdU8kx03-11" value="i_addr_rd" style="text;html=1;align=center;verticalAlign=middle;resizable=0;points=[];autosize=1;strokeColor=none;fillColor=none;" parent="1" vertex="1">
          <mxGeometry x="1060" y="598" width="70" height="30" as="geometry" />
        </mxCell>
        <mxCell id="w3CyG1-K6nYdBdU8kx03-12" value="MEM_WB" style="text;html=1;align=center;verticalAlign=middle;resizable=0;points=[];autosize=1;strokeColor=none;fillColor=none;" parent="1" vertex="1">
          <mxGeometry x="990" y="706.5" width="80" height="30" as="geometry" />
        </mxCell>
        <mxCell id="w3CyG1-K6nYdBdU8kx03-13" value="Write Data" style="text;html=1;align=center;verticalAlign=middle;resizable=0;points=[];autosize=1;strokeColor=none;fillColor=none;" parent="1" vertex="1">
          <mxGeometry x="1150" y="650" width="80" height="30" as="geometry" />
        </mxCell>
        <mxCell id="w3CyG1-K6nYdBdU8kx03-14" value="" style="endArrow=classic;html=1;rounded=0;entryX=-0.025;entryY=0.3;entryDx=0;entryDy=0;entryPerimeter=0;fillColor=#ffe6cc;strokeColor=#d79b00;exitX=1;exitY=0.5;exitDx=0;exitDy=0;" parent="1" source="CIXFdN_R7IZpRCdpcp0h-8" edge="1">
          <mxGeometry width="50" height="50" relative="1" as="geometry">
            <mxPoint x="6541.428571428572" y="1160" as="sourcePoint" />
            <mxPoint x="1140" y="657.5" as="targetPoint" />
            <Array as="points">
              <mxPoint x="6510" y="630" />
              <mxPoint x="6510" y="1630" />
              <mxPoint x="4100" y="1630" />
              <mxPoint x="1000" y="1640" />
              <mxPoint x="1010" y="660" />
            </Array>
          </mxGeometry>
        </mxCell>
        <mxCell id="w3CyG1-K6nYdBdU8kx03-15" value="i_data_write" style="text;html=1;align=center;verticalAlign=middle;resizable=0;points=[];autosize=1;strokeColor=none;fillColor=none;" parent="1" vertex="1">
          <mxGeometry x="1055" y="658" width="90" height="30" as="geometry" />
        </mxCell>
        <mxCell id="w3CyG1-K6nYdBdU8kx03-16" value="" style="endArrow=classic;html=1;rounded=0;entryX=0.45;entryY=1.096;entryDx=0;entryDy=0;entryPerimeter=0;" parent="1" target="NUGC_-o1-TNJPC-z7ICF-3" edge="1">
          <mxGeometry width="50" height="50" relative="1" as="geometry">
            <mxPoint x="1320" y="418" as="sourcePoint" />
            <mxPoint x="1470" y="418" as="targetPoint" />
          </mxGeometry>
        </mxCell>
        <mxCell id="w3CyG1-K6nYdBdU8kx03-17" value="" style="endArrow=classic;html=1;rounded=0;" parent="1" edge="1">
          <mxGeometry width="50" height="50" relative="1" as="geometry">
            <mxPoint x="1320" y="500" as="sourcePoint" />
            <mxPoint x="1760" y="500" as="targetPoint" />
          </mxGeometry>
        </mxCell>
        <mxCell id="w3CyG1-K6nYdBdU8kx03-18" value="o_rs" style="text;html=1;align=center;verticalAlign=middle;resizable=0;points=[];autosize=1;strokeColor=none;fillColor=none;" parent="1" vertex="1">
          <mxGeometry x="1320" y="390" width="50" height="30" as="geometry" />
        </mxCell>
        <mxCell id="w3CyG1-K6nYdBdU8kx03-19" value="o_rt" style="text;html=1;align=center;verticalAlign=middle;resizable=0;points=[];autosize=1;strokeColor=none;fillColor=none;" parent="1" vertex="1">
          <mxGeometry x="1330" y="468" width="40" height="30" as="geometry" />
        </mxCell>
        <mxCell id="l50qr1YYsGoIvzfQQoYm-8" style="edgeStyle=orthogonalEdgeStyle;rounded=0;orthogonalLoop=1;jettySize=auto;html=1;exitX=1;exitY=0.5;exitDx=0;exitDy=0;entryX=0.75;entryY=1;entryDx=0;entryDy=0;" parent="1" source="l50qr1YYsGoIvzfQQoYm-2" target="NUGC_-o1-TNJPC-z7ICF-3" edge="1">
          <mxGeometry relative="1" as="geometry">
            <mxPoint x="1370" y="965" as="targetPoint" />
          </mxGeometry>
        </mxCell>
        <mxCell id="ktexYi1xWLIS-waPTfyc-31" style="edgeStyle=orthogonalEdgeStyle;rounded=0;orthogonalLoop=1;jettySize=auto;html=1;exitX=1;exitY=0.5;exitDx=0;exitDy=0;entryX=1;entryY=0.25;entryDx=0;entryDy=0;" edge="1" parent="1" source="l50qr1YYsGoIvzfQQoYm-2" target="ktexYi1xWLIS-waPTfyc-30">
          <mxGeometry relative="1" as="geometry" />
        </mxCell>
        <mxCell id="l50qr1YYsGoIvzfQQoYm-2" value="Extensor sign" style="ellipse;whiteSpace=wrap;html=1;" parent="1" vertex="1">
          <mxGeometry x="1090" y="925" width="120" height="80" as="geometry" />
        </mxCell>
        <mxCell id="l50qr1YYsGoIvzfQQoYm-3" value="" style="endArrow=classic;html=1;rounded=0;entryX=0;entryY=0.5;entryDx=0;entryDy=0;" parent="1" source="u0YVO1Xili40BDTapkqs-71" target="l50qr1YYsGoIvzfQQoYm-2" edge="1">
          <mxGeometry width="50" height="50" relative="1" as="geometry">
            <mxPoint x="880" y="560" as="sourcePoint" />
            <mxPoint x="1070" y="860" as="targetPoint" />
            <Array as="points">
              <mxPoint x="880" y="965" />
            </Array>
          </mxGeometry>
        </mxCell>
        <mxCell id="l50qr1YYsGoIvzfQQoYm-4" value="i_id_inmediate&lt;div&gt;&amp;nbsp;instrucction [15-0]&lt;br&gt;&lt;/div&gt;" style="text;html=1;align=center;verticalAlign=middle;resizable=0;points=[];autosize=1;strokeColor=none;fillColor=none;" parent="1" vertex="1">
          <mxGeometry x="980" y="970" width="120" height="40" as="geometry" />
        </mxCell>
        <mxCell id="l50qr1YYsGoIvzfQQoYm-5" value="" style="endArrow=classic;html=1;rounded=0;fillColor=#dae8fc;strokeColor=#6c8ebf;" parent="1" edge="1">
          <mxGeometry width="50" height="50" relative="1" as="geometry">
            <mxPoint x="1440" y="-940" as="sourcePoint" />
            <mxPoint x="1160" y="1005" as="targetPoint" />
            <Array as="points">
              <mxPoint x="1450" y="1170" />
              <mxPoint x="1160" y="1170" />
            </Array>
          </mxGeometry>
        </mxCell>
        <mxCell id="l50qr1YYsGoIvzfQQoYm-6" value="i_extension_mode" style="text;html=1;align=center;verticalAlign=middle;resizable=0;points=[];autosize=1;strokeColor=none;fillColor=none;" parent="1" vertex="1">
          <mxGeometry x="1160" y="1040" width="120" height="30" as="geometry" />
        </mxCell>
        <mxCell id="l50qr1YYsGoIvzfQQoYm-7" value="16 /" style="text;html=1;align=center;verticalAlign=middle;resizable=0;points=[];autosize=1;strokeColor=none;fillColor=none;" parent="1" vertex="1">
          <mxGeometry x="910" y="938" width="40" height="30" as="geometry" />
        </mxCell>
        <mxCell id="l50qr1YYsGoIvzfQQoYm-9" value="o_extension" style="text;html=1;align=center;verticalAlign=middle;resizable=0;points=[];autosize=1;strokeColor=none;fillColor=none;" parent="1" vertex="1">
          <mxGeometry x="1210" y="968" width="90" height="30" as="geometry" />
        </mxCell>
        <mxCell id="l50qr1YYsGoIvzfQQoYm-10" value="/ 32" style="text;html=1;align=center;verticalAlign=middle;resizable=0;points=[];autosize=1;strokeColor=none;fillColor=none;" parent="1" vertex="1">
          <mxGeometry x="1310" y="938" width="40" height="30" as="geometry" />
        </mxCell>
        <mxCell id="NUGC_-o1-TNJPC-z7ICF-1" value="" style="endArrow=classic;html=1;rounded=0;entryX=0;entryY=0.5;entryDx=0;entryDy=0;" parent="1" source="u0YVO1Xili40BDTapkqs-103" target="NUGC_-o1-TNJPC-z7ICF-4" edge="1">
          <mxGeometry width="50" height="50" relative="1" as="geometry">
            <mxPoint x="880" y="420" as="sourcePoint" />
            <mxPoint x="1760" y="180" as="targetPoint" />
            <Array as="points">
              <mxPoint x="880" y="180" />
              <mxPoint x="1000" y="180" />
              <mxPoint x="1000" y="40" />
            </Array>
          </mxGeometry>
        </mxCell>
        <mxCell id="Ghwof6MFSF0Sdk-0VfBn-14" style="edgeStyle=orthogonalEdgeStyle;rounded=0;orthogonalLoop=1;jettySize=auto;html=1;entryX=0;entryY=0;entryDx=0;entryDy=0;fillColor=#f8cecc;strokeColor=#b85450;" parent="1" source="NUGC_-o1-TNJPC-z7ICF-3" target="Ghwof6MFSF0Sdk-0VfBn-12" edge="1">
          <mxGeometry relative="1" as="geometry" />
        </mxCell>
        <mxCell id="Ghwof6MFSF0Sdk-0VfBn-31" style="edgeStyle=orthogonalEdgeStyle;rounded=0;orthogonalLoop=1;jettySize=auto;html=1;exitX=0.2;exitY=-0.025;exitDx=0;exitDy=0;exitPerimeter=0;fillColor=#1ba1e2;strokeColor=#006EAF;" parent="1" source="NUGC_-o1-TNJPC-z7ICF-3" target="Ghwof6MFSF0Sdk-0VfBn-30" edge="1">
          <mxGeometry relative="1" as="geometry">
            <Array as="points">
              <mxPoint x="2183" y="24" />
              <mxPoint x="2183" y="760" />
            </Array>
          </mxGeometry>
        </mxCell>
        <mxCell id="Ghwof6MFSF0Sdk-0VfBn-33" style="edgeStyle=orthogonalEdgeStyle;rounded=0;orthogonalLoop=1;jettySize=auto;html=1;entryX=0;entryY=0.5;entryDx=0;entryDy=0;" parent="1" source="u0YVO1Xili40BDTapkqs-86" target="Ghwof6MFSF0Sdk-0VfBn-30" edge="1">
          <mxGeometry relative="1" as="geometry">
            <Array as="points">
              <mxPoint x="2110" y="495" />
              <mxPoint x="2110" y="801" />
            </Array>
          </mxGeometry>
        </mxCell>
        <mxCell id="Ghwof6MFSF0Sdk-0VfBn-66" style="edgeStyle=orthogonalEdgeStyle;rounded=0;orthogonalLoop=1;jettySize=auto;html=1;fillColor=#1ba1e2;strokeColor=#006EAF;" parent="1" source="NUGC_-o1-TNJPC-z7ICF-3" edge="1">
          <mxGeometry relative="1" as="geometry">
            <mxPoint x="2799.999999999999" y="1101.1764705882354" as="targetPoint" />
            <Array as="points">
              <mxPoint x="2180" y="20" />
              <mxPoint x="2180" y="1101" />
            </Array>
          </mxGeometry>
        </mxCell>
        <mxCell id="u0YVO1Xili40BDTapkqs-9" style="edgeStyle=orthogonalEdgeStyle;rounded=0;orthogonalLoop=1;jettySize=auto;html=1;entryX=1;entryY=0.5;entryDx=0;entryDy=0;" parent="1" target="_TVw85CBntGOAsQvyyHS-2" edge="1">
          <mxGeometry relative="1" as="geometry">
            <mxPoint x="1805" y="590.0000000000005" as="sourcePoint" />
            <mxPoint x="2820" y="540.0000000000005" as="targetPoint" />
            <Array as="points">
              <mxPoint x="2313" y="590" />
              <mxPoint x="2313" y="540" />
            </Array>
          </mxGeometry>
        </mxCell>
        <mxCell id="u0YVO1Xili40BDTapkqs-12" style="edgeStyle=orthogonalEdgeStyle;rounded=0;orthogonalLoop=1;jettySize=auto;html=1;fillColor=#e1d5e7;strokeColor=#9673a6;" parent="1" source="NUGC_-o1-TNJPC-z7ICF-3" target="u0YVO1Xili40BDTapkqs-1" edge="1">
          <mxGeometry relative="1" as="geometry">
            <Array as="points">
              <mxPoint x="2740" y="680" />
              <mxPoint x="2740" y="900" />
            </Array>
          </mxGeometry>
        </mxCell>
        <mxCell id="NUGC_-o1-TNJPC-z7ICF-3" value="" style="rounded=1;whiteSpace=wrap;html=1;direction=south;fillColor=#d5e8d4;strokeColor=#82b366;" parent="1" vertex="1">
          <mxGeometry x="1765" y="-290" width="40" height="1570" as="geometry" />
        </mxCell>
        <mxCell id="NwUbeB443bCVUs3IPGjA-8" style="edgeStyle=orthogonalEdgeStyle;rounded=0;orthogonalLoop=1;jettySize=auto;html=1;exitX=1;exitY=0.5;exitDx=0;exitDy=0;entryX=1;entryY=0.75;entryDx=0;entryDy=0;" parent="1" source="NUGC_-o1-TNJPC-z7ICF-4" target="NUGC_-o1-TNJPC-z7ICF-7" edge="1">
          <mxGeometry relative="1" as="geometry" />
        </mxCell>
        <mxCell id="NUGC_-o1-TNJPC-z7ICF-4" value="&amp;lt;&amp;lt;2" style="ellipse;whiteSpace=wrap;html=1;" parent="1" vertex="1">
          <mxGeometry x="1250" width="120" height="80" as="geometry" />
        </mxCell>
        <mxCell id="NUGC_-o1-TNJPC-z7ICF-7" value="SUMADOR&amp;nbsp;&lt;div&gt;JUMP&lt;/div&gt;" style="shape=dataStorage;whiteSpace=wrap;html=1;fixedSize=1;direction=west;" parent="1" vertex="1">
          <mxGeometry x="1480" y="30" width="150" height="80" as="geometry" />
        </mxCell>
        <mxCell id="NUGC_-o1-TNJPC-z7ICF-9" value="&lt;blockquote style=&quot;margin: 0 0 0 40px; border: none; padding: 0px;&quot;&gt;i_ifid_jump&lt;br&gt;instrucction&amp;nbsp;&lt;span style=&quot;background-color: initial;&quot;&gt;[25-0]&lt;/span&gt;&lt;/blockquote&gt;" style="text;html=1;align=center;verticalAlign=middle;resizable=0;points=[];autosize=1;strokeColor=none;fillColor=none;" parent="1" vertex="1">
          <mxGeometry x="1045" y="40" width="160" height="40" as="geometry" />
        </mxCell>
        <mxCell id="NUGC_-o1-TNJPC-z7ICF-11" value="UNIT RISK&lt;div&gt;&lt;br&gt;&lt;/div&gt;" style="whiteSpace=wrap;html=1;aspect=fixed;fillColor=#f8cecc;strokeColor=#b85450;" parent="1" vertex="1">
          <mxGeometry x="1120" y="-450" width="170" height="170" as="geometry" />
        </mxCell>
        <mxCell id="NUGC_-o1-TNJPC-z7ICF-29" style="edgeStyle=orthogonalEdgeStyle;rounded=0;orthogonalLoop=1;jettySize=auto;html=1;fillColor=#f8cecc;strokeColor=#b85450;entryX=0.429;entryY=0.845;entryDx=0;entryDy=0;entryPerimeter=0;exitX=1;exitY=0.25;exitDx=0;exitDy=0;" parent="1" source="NUGC_-o1-TNJPC-z7ICF-11" target="wfumtmsn9IRY_r2d7sni-31" edge="1">
          <mxGeometry relative="1" as="geometry">
            <mxPoint x="1080" y="-830" as="targetPoint" />
            <mxPoint x="1120" y="-419" as="sourcePoint" />
            <Array as="points">
              <mxPoint x="1400" y="-419" />
              <mxPoint x="1400" y="-830" />
              <mxPoint x="1700" y="-830" />
            </Array>
          </mxGeometry>
        </mxCell>
        <mxCell id="NUGC_-o1-TNJPC-z7ICF-13" value="" style="endArrow=classic;html=1;rounded=0;entryX=1;entryY=0;entryDx=0;entryDy=0;exitX=0.06;exitY=-0.092;exitDx=0;exitDy=0;exitPerimeter=0;fillColor=#1ba1e2;strokeColor=#006EAF;" parent="1" source="NUGC_-o1-TNJPC-z7ICF-3" target="NUGC_-o1-TNJPC-z7ICF-11" edge="1">
          <mxGeometry width="50" height="50" relative="1" as="geometry">
            <mxPoint x="1510" y="-100" as="sourcePoint" />
            <mxPoint x="1560" y="-150" as="targetPoint" />
            <Array as="points">
              <mxPoint x="1820" y="-196" />
              <mxPoint x="1820" y="-650" />
              <mxPoint x="1290" y="-650" />
            </Array>
          </mxGeometry>
        </mxCell>
        <mxCell id="NUGC_-o1-TNJPC-z7ICF-14" value="i_IDEX_mem_read" style="text;whiteSpace=wrap;" parent="1" vertex="1">
          <mxGeometry x="1285" y="-680" width="130" height="40" as="geometry" />
        </mxCell>
        <mxCell id="NUGC_-o1-TNJPC-z7ICF-15" value="ID/EX" style="text;html=1;align=center;verticalAlign=middle;resizable=0;points=[];autosize=1;strokeColor=none;fillColor=none;" parent="1" vertex="1">
          <mxGeometry x="1750" y="-330" width="50" height="30" as="geometry" />
        </mxCell>
        <mxCell id="NUGC_-o1-TNJPC-z7ICF-16" value="" style="endArrow=classic;html=1;rounded=0;entryX=0.25;entryY=0;entryDx=0;entryDy=0;exitX=0.829;exitY=-0.039;exitDx=0;exitDy=0;exitPerimeter=0;fillColor=#f8cecc;strokeColor=#b85450;" parent="1" source="u0YVO1Xili40BDTapkqs-20" edge="1">
          <mxGeometry width="50" height="50" relative="1" as="geometry">
            <mxPoint x="3570" y="778.5714285714286" as="sourcePoint" />
            <mxPoint x="1214.29" y="-460" as="targetPoint" />
            <Array as="points">
              <mxPoint x="3720" y="1052" />
              <mxPoint x="3720" y="-780" />
              <mxPoint x="1214" y="-770" />
            </Array>
          </mxGeometry>
        </mxCell>
        <mxCell id="NUGC_-o1-TNJPC-z7ICF-17" value="i_EXMEM_mem_read" style="text;html=1;align=center;verticalAlign=middle;resizable=0;points=[];autosize=1;strokeColor=none;fillColor=none;" parent="1" vertex="1">
          <mxGeometry x="1250" y="-740" width="140" height="30" as="geometry" />
        </mxCell>
        <mxCell id="NUGC_-o1-TNJPC-z7ICF-18" value="" style="endArrow=classic;html=1;rounded=0;entryX=0;entryY=1;entryDx=0;entryDy=0;fillColor=#f8cecc;strokeColor=#b85450;" parent="1" edge="1">
          <mxGeometry width="50" height="50" relative="1" as="geometry">
            <mxPoint x="1770" y="-226" as="sourcePoint" />
            <mxPoint x="1290" y="-380" as="targetPoint" />
            <Array as="points">
              <mxPoint x="1770" y="-226" />
              <mxPoint x="1740" y="-226" />
              <mxPoint x="1740" y="-380" />
            </Array>
          </mxGeometry>
        </mxCell>
        <mxCell id="NUGC_-o1-TNJPC-z7ICF-20" value="" style="endArrow=classic;html=1;rounded=0;entryX=0.5;entryY=0;entryDx=0;entryDy=0;fillColor=#1ba1e2;strokeColor=#006EAF;exitX=0.033;exitY=0.067;exitDx=0;exitDy=0;exitPerimeter=0;" parent="1" source="u0YVO1Xili40BDTapkqs-20" edge="1">
          <mxGeometry width="50" height="50" relative="1" as="geometry">
            <mxPoint x="1250" y="-750" as="sourcePoint" />
            <mxPoint x="1250" y="-460" as="targetPoint" />
            <Array as="points">
              <mxPoint x="3640" y="-200" />
              <mxPoint x="3640" y="-700" />
              <mxPoint x="1250" y="-700" />
            </Array>
          </mxGeometry>
        </mxCell>
        <mxCell id="NUGC_-o1-TNJPC-z7ICF-22" value="i_EXMEM_rt" style="text;html=1;align=center;verticalAlign=middle;resizable=0;points=[];autosize=1;strokeColor=none;fillColor=none;" parent="1" vertex="1">
          <mxGeometry x="1152.5" y="-510" width="90" height="30" as="geometry" />
        </mxCell>
        <mxCell id="NUGC_-o1-TNJPC-z7ICF-23" value="" style="endArrow=classic;html=1;rounded=0;entryX=0.25;entryY=1;entryDx=0;entryDy=0;fillColor=#f8cecc;strokeColor=#b85450;" parent="1" source="u0YVO1Xili40BDTapkqs-107" target="NUGC_-o1-TNJPC-z7ICF-11" edge="1">
          <mxGeometry width="50" height="50" relative="1" as="geometry">
            <mxPoint x="880" y="190" as="sourcePoint" />
            <mxPoint x="1150" y="-210" as="targetPoint" />
            <Array as="points">
              <mxPoint x="880" y="-200" />
              <mxPoint x="1080" y="-200" />
              <mxPoint x="1163" y="-200" />
            </Array>
          </mxGeometry>
        </mxCell>
        <mxCell id="NUGC_-o1-TNJPC-z7ICF-24" value="i_IFID_rs" style="text;html=1;align=center;verticalAlign=middle;resizable=0;points=[];autosize=1;strokeColor=none;fillColor=none;" parent="1" vertex="1">
          <mxGeometry x="1090" y="-280" width="70" height="30" as="geometry" />
        </mxCell>
        <mxCell id="NUGC_-o1-TNJPC-z7ICF-25" value="&lt;div&gt;i_addr_RS&lt;/div&gt;&lt;div&gt;instrucction [25-21]&lt;/div&gt;" style="text;html=1;align=center;verticalAlign=middle;resizable=0;points=[];autosize=1;strokeColor=none;fillColor=none;" parent="1" vertex="1">
          <mxGeometry x="900" y="-250" width="120" height="40" as="geometry" />
        </mxCell>
        <mxCell id="NUGC_-o1-TNJPC-z7ICF-26" value="" style="endArrow=classic;html=1;rounded=0;entryX=0.75;entryY=1;entryDx=0;entryDy=0;fillColor=#f8cecc;strokeColor=#b85450;" parent="1" target="NUGC_-o1-TNJPC-z7ICF-11" edge="1">
          <mxGeometry width="50" height="50" relative="1" as="geometry">
            <mxPoint x="1170" y="-200" as="sourcePoint" />
            <mxPoint x="1150" y="130" as="targetPoint" />
            <Array as="points">
              <mxPoint x="1248" y="-200" />
            </Array>
          </mxGeometry>
        </mxCell>
        <mxCell id="NUGC_-o1-TNJPC-z7ICF-27" value="i_IFID_rt" style="text;html=1;align=center;verticalAlign=middle;resizable=0;points=[];autosize=1;strokeColor=none;fillColor=none;" parent="1" vertex="1">
          <mxGeometry x="1180" y="-280" width="70" height="30" as="geometry" />
        </mxCell>
        <mxCell id="NUGC_-o1-TNJPC-z7ICF-28" value="&lt;div&gt;&lt;br&gt;&lt;/div&gt;&lt;div&gt;i_addr_RT&lt;/div&gt;instrucction [20-16]" style="text;html=1;align=center;verticalAlign=middle;resizable=0;points=[];autosize=1;strokeColor=none;fillColor=none;" parent="1" vertex="1">
          <mxGeometry x="890" y="-190" width="120" height="60" as="geometry" />
        </mxCell>
        <mxCell id="NUGC_-o1-TNJPC-z7ICF-30" value="o_risk_mux" style="text;html=1;align=center;verticalAlign=middle;resizable=0;points=[];autosize=1;strokeColor=none;fillColor=none;" parent="1" vertex="1">
          <mxGeometry x="1320" y="-480" width="80" height="30" as="geometry" />
        </mxCell>
        <mxCell id="NwUbeB443bCVUs3IPGjA-3" style="edgeStyle=orthogonalEdgeStyle;rounded=0;orthogonalLoop=1;jettySize=auto;html=1;exitX=0.5;exitY=1;exitDx=0;exitDy=0;fillColor=#f8cecc;strokeColor=#b85450;entryX=0.183;entryY=-0.007;entryDx=0;entryDy=0;entryPerimeter=0;" parent="1" source="wfumtmsn9IRY_r2d7sni-1" target="NUGC_-o1-TNJPC-z7ICF-11" edge="1">
          <mxGeometry relative="1" as="geometry">
            <mxPoint x="1150" y="-470" as="targetPoint" />
            <Array as="points">
              <mxPoint x="1150" y="-860" />
              <mxPoint x="1150" y="-480" />
              <mxPoint x="1151" y="-480" />
            </Array>
          </mxGeometry>
        </mxCell>
        <mxCell id="wfumtmsn9IRY_r2d7sni-1" value="UNIT CONTROL" style="ellipse;whiteSpace=wrap;html=1;fillColor=#dae8fc;strokeColor=#6c8ebf;" parent="1" vertex="1">
          <mxGeometry x="1015" y="-1040" width="365" height="180" as="geometry" />
        </mxCell>
        <mxCell id="wfumtmsn9IRY_r2d7sni-2" value="" style="endArrow=classic;html=1;rounded=0;entryX=0;entryY=0.5;entryDx=0;entryDy=0;fillColor=#1ba1e2;strokeColor=#006EAF;" parent="1" target="wfumtmsn9IRY_r2d7sni-1" edge="1">
          <mxGeometry width="50" height="50" relative="1" as="geometry">
            <mxPoint x="830" y="560" as="sourcePoint" />
            <mxPoint x="890" y="510" as="targetPoint" />
            <Array as="points">
              <mxPoint x="820" y="-950" />
            </Array>
          </mxGeometry>
        </mxCell>
        <mxCell id="wfumtmsn9IRY_r2d7sni-3" value="i_ctl_instruction" style="text;html=1;align=center;verticalAlign=middle;resizable=0;points=[];autosize=1;strokeColor=none;fillColor=none;" parent="1" vertex="1">
          <mxGeometry x="845" y="-980" width="110" height="30" as="geometry" />
        </mxCell>
        <mxCell id="wfumtmsn9IRY_r2d7sni-4" value="i_ctl_instr_funct" style="text;html=1;align=center;verticalAlign=middle;resizable=0;points=[];autosize=1;strokeColor=none;fillColor=none;" parent="1" vertex="1">
          <mxGeometry x="845" y="-942" width="110" height="30" as="geometry" />
        </mxCell>
        <mxCell id="wfumtmsn9IRY_r2d7sni-27" value="" style="edgeStyle=orthogonalEdgeStyle;rounded=0;orthogonalLoop=1;jettySize=auto;html=1;" parent="1" edge="1">
          <mxGeometry relative="1" as="geometry">
            <mxPoint x="1525" y="-1060" as="targetPoint" />
          </mxGeometry>
        </mxCell>
        <mxCell id="wfumtmsn9IRY_r2d7sni-28" value="" style="shape=flexArrow;endArrow=classic;html=1;rounded=0;exitX=1;exitY=0.5;exitDx=0;exitDy=0;fillColor=#1ba1e2;strokeColor=#006EAF;" parent="1" source="wfumtmsn9IRY_r2d7sni-1" edge="1">
          <mxGeometry width="50" height="50" relative="1" as="geometry">
            <mxPoint x="1690" y="-920" as="sourcePoint" />
            <mxPoint x="1640" y="-950" as="targetPoint" />
          </mxGeometry>
        </mxCell>
        <mxCell id="wfumtmsn9IRY_r2d7sni-29" value="&lt;div&gt;o_register_rd&lt;/div&gt;&lt;div&gt;o_jal&lt;/div&gt;&lt;div&gt;o_lui&lt;/div&gt;&lt;div&gt;o_halt&lt;/div&gt;&lt;div&gt;&lt;br&gt;&lt;/div&gt;&lt;div&gt;&lt;br&gt;&lt;/div&gt;&lt;div&gt;&lt;br&gt;&lt;/div&gt;" style="text;html=1;align=center;verticalAlign=middle;resizable=0;points=[];autosize=1;strokeColor=none;fillColor=none;" parent="1" vertex="1">
          <mxGeometry x="1925" y="-1012.5" width="90" height="110" as="geometry" />
        </mxCell>
        <mxCell id="wfumtmsn9IRY_r2d7sni-30" value="&lt;div&gt;&lt;br&gt;&lt;/div&gt;&lt;div&gt;o_mem_read&lt;/div&gt;&lt;div&gt;o_mem_write&lt;/div&gt;&lt;div&gt;o_alu_src&lt;/div&gt;&lt;div&gt;o_zero_extend&lt;/div&gt;&lt;div&gt;o_extension_mode&lt;/div&gt;&lt;div&gt;o_mem_to_reg&lt;/div&gt;&lt;div&gt;o_alu_op&lt;/div&gt;&lt;div&gt;o_register_write&lt;/div&gt;&lt;div&gt;o_datamem_size&lt;/div&gt;&lt;div&gt;o_data_load_size&lt;/div&gt;" style="text;html=1;align=center;verticalAlign=middle;resizable=0;points=[];autosize=1;strokeColor=none;fillColor=none;" parent="1" vertex="1">
          <mxGeometry x="1910" y="-960" width="120" height="170" as="geometry" />
        </mxCell>
        <mxCell id="wfumtmsn9IRY_r2d7sni-31" value="MUX CTL" style="triangle;whiteSpace=wrap;html=1;" parent="1" vertex="1">
          <mxGeometry x="1640" y="-1022.5" width="140" height="145" as="geometry" />
        </mxCell>
        <mxCell id="wfumtmsn9IRY_r2d7sni-33" value="" style="shape=flexArrow;endArrow=classic;html=1;rounded=0;exitX=1;exitY=0.5;exitDx=0;exitDy=0;fillColor=#1ba1e2;strokeColor=#006EAF;" parent="1" source="wfumtmsn9IRY_r2d7sni-31" edge="1">
          <mxGeometry width="50" height="50" relative="1" as="geometry">
            <mxPoint x="1570" y="-470" as="sourcePoint" />
            <mxPoint x="1760" as="targetPoint" />
            <Array as="points">
              <mxPoint x="1880" y="-950" />
              <mxPoint x="1880" y="-810" />
              <mxPoint x="1520" y="-810" />
              <mxPoint x="1520" />
            </Array>
          </mxGeometry>
        </mxCell>
        <mxCell id="wfumtmsn9IRY_r2d7sni-34" value="&lt;div&gt;o_extension_mode&lt;/div&gt;&lt;div&gt;&lt;br&gt;&lt;/div&gt;" style="text;html=1;align=center;verticalAlign=middle;resizable=0;points=[];autosize=1;strokeColor=none;fillColor=none;" parent="1" vertex="1">
          <mxGeometry x="1440" y="-895" width="120" height="40" as="geometry" />
        </mxCell>
        <mxCell id="m9P4-m5ET00KoZv7AFJx-3" value="" style="endArrow=classic;html=1;rounded=0;exitX=0.32;exitY=-0.004;exitDx=0;exitDy=0;exitPerimeter=0;" parent="1" source="jJp0ub6KG7U2lXxTCfqB-38" edge="1">
          <mxGeometry width="50" height="50" relative="1" as="geometry">
            <mxPoint x="1230" y="230" as="sourcePoint" />
            <mxPoint x="1760" y="222" as="targetPoint" />
          </mxGeometry>
        </mxCell>
        <mxCell id="m9P4-m5ET00KoZv7AFJx-5" value="IFID_PC8" style="text;html=1;align=center;verticalAlign=middle;resizable=0;points=[];autosize=1;strokeColor=none;fillColor=none;" parent="1" vertex="1">
          <mxGeometry x="1670" y="223" width="80" height="30" as="geometry" />
        </mxCell>
        <mxCell id="m9P4-m5ET00KoZv7AFJx-6" value="IFID_PC4" style="text;html=1;align=center;verticalAlign=middle;resizable=0;points=[];autosize=1;strokeColor=none;fillColor=none;" parent="1" vertex="1">
          <mxGeometry x="1670" y="193" width="80" height="30" as="geometry" />
        </mxCell>
        <mxCell id="m9P4-m5ET00KoZv7AFJx-9" value="i_risk" style="text;html=1;align=center;verticalAlign=middle;resizable=0;points=[];autosize=1;strokeColor=none;fillColor=none;" parent="1" vertex="1">
          <mxGeometry x="1715" y="-912" width="50" height="30" as="geometry" />
        </mxCell>
        <mxCell id="NwUbeB443bCVUs3IPGjA-1" value="IDEX_RT" style="text;html=1;align=center;verticalAlign=middle;resizable=0;points=[];autosize=1;strokeColor=none;fillColor=none;" parent="1" vertex="1">
          <mxGeometry x="1290" y="-380" width="70" height="30" as="geometry" />
        </mxCell>
        <mxCell id="NwUbeB443bCVUs3IPGjA-2" style="edgeStyle=orthogonalEdgeStyle;rounded=0;orthogonalLoop=1;jettySize=auto;html=1;exitX=0.25;exitY=0.96;exitDx=0;exitDy=0;entryX=0.062;entryY=-0.018;entryDx=0;entryDy=0;entryPerimeter=0;exitPerimeter=0;fillColor=#f8cecc;strokeColor=#b85450;" parent="1" source="wfumtmsn9IRY_r2d7sni-1" target="NUGC_-o1-TNJPC-z7ICF-11" edge="1">
          <mxGeometry relative="1" as="geometry">
            <Array as="points">
              <mxPoint x="1106" y="-860" />
              <mxPoint x="1060" y="-860" />
              <mxPoint x="1060" y="-660" />
              <mxPoint x="1131" y="-660" />
            </Array>
          </mxGeometry>
        </mxCell>
        <mxCell id="NwUbeB443bCVUs3IPGjA-4" value="ctl_unit_jal_R" style="text;html=1;align=center;verticalAlign=middle;resizable=0;points=[];autosize=1;strokeColor=none;fillColor=none;" parent="1" vertex="1">
          <mxGeometry x="1052.5" y="-810" width="100" height="30" as="geometry" />
        </mxCell>
        <mxCell id="NwUbeB443bCVUs3IPGjA-5" value="ctl_unit_halt" style="text;html=1;align=center;verticalAlign=middle;resizable=0;points=[];autosize=1;strokeColor=none;fillColor=none;" parent="1" vertex="1">
          <mxGeometry x="1140" y="-810" width="90" height="30" as="geometry" />
        </mxCell>
        <mxCell id="NwUbeB443bCVUs3IPGjA-10" style="edgeStyle=orthogonalEdgeStyle;rounded=0;orthogonalLoop=1;jettySize=auto;html=1;entryX=0;entryY=0.25;entryDx=0;entryDy=0;exitX=0;exitY=0.5;exitDx=0;exitDy=0;" parent="1" source="NUGC_-o1-TNJPC-z7ICF-7" target="ktexYi1xWLIS-waPTfyc-2" edge="1">
          <mxGeometry relative="1" as="geometry">
            <Array as="points">
              <mxPoint x="1660" y="70" />
              <mxPoint x="1660" y="140" />
              <mxPoint x="1605" y="140" />
            </Array>
          </mxGeometry>
        </mxCell>
        <mxCell id="NwUbeB443bCVUs3IPGjA-11" value="o_ID_JUMP" style="text;html=1;align=center;verticalAlign=middle;resizable=0;points=[];autosize=1;strokeColor=none;fillColor=none;" parent="1" vertex="1">
          <mxGeometry x="1660" y="90" width="90" height="30" as="geometry" />
        </mxCell>
        <mxCell id="Ghwof6MFSF0Sdk-0VfBn-35" style="edgeStyle=orthogonalEdgeStyle;rounded=0;orthogonalLoop=1;jettySize=auto;html=1;entryX=0;entryY=0.75;entryDx=0;entryDy=0;" parent="1" source="Ghwof6MFSF0Sdk-0VfBn-3" target="Ghwof6MFSF0Sdk-0VfBn-30" edge="1">
          <mxGeometry relative="1" as="geometry" />
        </mxCell>
        <mxCell id="Ghwof6MFSF0Sdk-0VfBn-3" value="IDEX_extension" style="text;html=1;align=center;verticalAlign=middle;resizable=0;points=[];autosize=1;strokeColor=none;fillColor=none;" parent="1" vertex="1">
          <mxGeometry x="1805" y="895" width="110" height="30" as="geometry" />
        </mxCell>
        <mxCell id="Ghwof6MFSF0Sdk-0VfBn-53" style="edgeStyle=orthogonalEdgeStyle;rounded=0;orthogonalLoop=1;jettySize=auto;html=1;exitX=0;exitY=0.5;exitDx=0;exitDy=0;entryX=0.543;entryY=0.933;entryDx=0;entryDy=0;entryPerimeter=0;" parent="1" target="u0YVO1Xili40BDTapkqs-20" edge="1" source="_TVw85CBntGOAsQvyyHS-2">
          <mxGeometry relative="1" as="geometry">
            <mxPoint x="3200" y="600.3809523809523" as="targetPoint" />
            <mxPoint x="3090" y="600.7499999999995" as="sourcePoint" />
          </mxGeometry>
        </mxCell>
        <mxCell id="Ghwof6MFSF0Sdk-0VfBn-28" style="edgeStyle=orthogonalEdgeStyle;rounded=0;orthogonalLoop=1;jettySize=auto;html=1;entryX=0.75;entryY=1;entryDx=0;entryDy=0;" parent="1" source="Ghwof6MFSF0Sdk-0VfBn-11" target="_TVw85CBntGOAsQvyyHS-2" edge="1">
          <mxGeometry relative="1" as="geometry">
            <mxPoint x="2820" y="467.24999999999955" as="targetPoint" />
          </mxGeometry>
        </mxCell>
        <mxCell id="Ghwof6MFSF0Sdk-0VfBn-11" value="mux_alu_datoA" style="triangle;whiteSpace=wrap;html=1;" parent="1" vertex="1">
          <mxGeometry x="2341" y="264.5" width="140" height="145" as="geometry" />
        </mxCell>
        <mxCell id="Ghwof6MFSF0Sdk-0VfBn-19" style="edgeStyle=orthogonalEdgeStyle;rounded=0;orthogonalLoop=1;jettySize=auto;html=1;entryX=0;entryY=0.25;entryDx=0;entryDy=0;fillColor=#f8cecc;strokeColor=#b85450;" parent="1" source="Ghwof6MFSF0Sdk-0VfBn-12" target="Ghwof6MFSF0Sdk-0VfBn-11" edge="1">
          <mxGeometry relative="1" as="geometry">
            <Array as="points">
              <mxPoint x="2510" y="951" />
              <mxPoint x="2290" y="951" />
              <mxPoint x="2290" y="301" />
            </Array>
          </mxGeometry>
        </mxCell>
        <mxCell id="Ghwof6MFSF0Sdk-0VfBn-12" value="UNIT CORTOCICUITO" style="ellipse;whiteSpace=wrap;html=1;fillColor=#f8cecc;strokeColor=#b85450;" parent="1" vertex="1">
          <mxGeometry x="2410" y="1330" width="310" height="110" as="geometry" />
        </mxCell>
        <mxCell id="Ghwof6MFSF0Sdk-0VfBn-13" style="edgeStyle=orthogonalEdgeStyle;rounded=0;orthogonalLoop=1;jettySize=auto;html=1;entryX=0.234;entryY=0.097;entryDx=0;entryDy=0;entryPerimeter=0;fillColor=#f8cecc;strokeColor=#b85450;" parent="1" source="NUGC_-o1-TNJPC-z7ICF-3" target="Ghwof6MFSF0Sdk-0VfBn-12" edge="1">
          <mxGeometry relative="1" as="geometry">
            <Array as="points">
              <mxPoint x="2150" y="420" />
              <mxPoint x="2150" y="1156" />
              <mxPoint x="2483" y="1156" />
              <mxPoint x="2480" y="1160" />
            </Array>
          </mxGeometry>
        </mxCell>
        <mxCell id="Ghwof6MFSF0Sdk-0VfBn-15" value="IDEX_RS" style="text;html=1;align=center;verticalAlign=middle;resizable=0;points=[];autosize=1;strokeColor=none;fillColor=none;" parent="1" vertex="1">
          <mxGeometry x="1805" y="393" width="70" height="30" as="geometry" />
        </mxCell>
        <mxCell id="Ghwof6MFSF0Sdk-0VfBn-16" value="IDEX_RT" style="text;html=1;align=center;verticalAlign=middle;resizable=0;points=[];autosize=1;strokeColor=none;fillColor=none;" parent="1" vertex="1">
          <mxGeometry x="1805" y="458" width="70" height="30" as="geometry" />
        </mxCell>
        <mxCell id="Ghwof6MFSF0Sdk-0VfBn-17" value="i_rs" style="text;html=1;align=center;verticalAlign=middle;resizable=0;points=[];autosize=1;strokeColor=none;fillColor=none;" parent="1" vertex="1">
          <mxGeometry x="2450" y="1290" width="40" height="30" as="geometry" />
        </mxCell>
        <mxCell id="Ghwof6MFSF0Sdk-0VfBn-18" value="i_rt" style="text;html=1;align=center;verticalAlign=middle;resizable=0;points=[];autosize=1;strokeColor=none;fillColor=none;" parent="1" vertex="1">
          <mxGeometry x="2420" y="1290" width="40" height="30" as="geometry" />
        </mxCell>
        <mxCell id="Ghwof6MFSF0Sdk-0VfBn-20" value="corto_register_A" style="text;html=1;align=center;verticalAlign=middle;resizable=0;points=[];autosize=1;strokeColor=none;fillColor=none;" parent="1" vertex="1">
          <mxGeometry x="2290" y="920" width="110" height="30" as="geometry" />
        </mxCell>
        <mxCell id="Ghwof6MFSF0Sdk-0VfBn-21" style="edgeStyle=orthogonalEdgeStyle;rounded=0;orthogonalLoop=1;jettySize=auto;html=1;entryX=0.012;entryY=0.102;entryDx=0;entryDy=0;entryPerimeter=0;" parent="1" source="u0YVO1Xili40BDTapkqs-73" target="Ghwof6MFSF0Sdk-0VfBn-11" edge="1">
          <mxGeometry relative="1" as="geometry">
            <Array as="points">
              <mxPoint x="2150" y="420" />
              <mxPoint x="2150" y="279" />
            </Array>
          </mxGeometry>
        </mxCell>
        <mxCell id="Ghwof6MFSF0Sdk-0VfBn-22" value="IDEX_register1" style="text;html=1;align=center;verticalAlign=middle;resizable=0;points=[];autosize=1;strokeColor=none;fillColor=none;" parent="1" vertex="1">
          <mxGeometry x="2220" y="240" width="100" height="30" as="geometry" />
        </mxCell>
        <mxCell id="Ghwof6MFSF0Sdk-0VfBn-23" value="" style="endArrow=classic;html=1;rounded=0;entryX=0.214;entryY=0.941;entryDx=0;entryDy=0;entryPerimeter=0;" parent="1" target="Ghwof6MFSF0Sdk-0VfBn-11" edge="1">
          <mxGeometry width="50" height="50" relative="1" as="geometry">
            <mxPoint x="2620" y="1250" as="sourcePoint" />
            <mxPoint x="2420" y="438" as="targetPoint" />
            <Array as="points">
              <mxPoint x="2371" y="1250" />
            </Array>
          </mxGeometry>
        </mxCell>
        <mxCell id="Ghwof6MFSF0Sdk-0VfBn-24" value="" style="endArrow=classic;html=1;rounded=0;entryX=0.214;entryY=0.941;entryDx=0;entryDy=0;entryPerimeter=0;fillColor=#ffe6cc;strokeColor=#d79b00;" parent="1" edge="1">
          <mxGeometry width="50" height="50" relative="1" as="geometry">
            <mxPoint x="2650" y="980" as="sourcePoint" />
            <mxPoint x="2441" y="368" as="targetPoint" />
            <Array as="points">
              <mxPoint x="2720" y="980" />
              <mxPoint x="2720" y="460" />
              <mxPoint x="2441" y="460" />
            </Array>
          </mxGeometry>
        </mxCell>
        <mxCell id="Ghwof6MFSF0Sdk-0VfBn-25" value="i_exmem_register" style="text;html=1;align=center;verticalAlign=middle;resizable=0;points=[];autosize=1;strokeColor=none;fillColor=none;rotation=90;" parent="1" vertex="1">
          <mxGeometry x="2320" y="498" width="120" height="30" as="geometry" />
        </mxCell>
        <mxCell id="Ghwof6MFSF0Sdk-0VfBn-27" value="i_wb_data_write" style="text;html=1;align=center;verticalAlign=middle;resizable=0;points=[];autosize=1;strokeColor=none;fillColor=none;rotation=90;" parent="1" vertex="1">
          <mxGeometry x="2410" y="390" width="110" height="30" as="geometry" />
        </mxCell>
        <mxCell id="Ghwof6MFSF0Sdk-0VfBn-29" value="DATA A" style="text;html=1;align=center;verticalAlign=middle;resizable=0;points=[];autosize=1;strokeColor=none;fillColor=none;" parent="1" vertex="1">
          <mxGeometry x="2785" y="358" width="60" height="30" as="geometry" />
        </mxCell>
        <mxCell id="Ghwof6MFSF0Sdk-0VfBn-46" style="edgeStyle=orthogonalEdgeStyle;rounded=0;orthogonalLoop=1;jettySize=auto;html=1;entryX=1;entryY=0.25;entryDx=0;entryDy=0;" parent="1" source="Ghwof6MFSF0Sdk-0VfBn-30" target="_TVw85CBntGOAsQvyyHS-2" edge="1">
          <mxGeometry relative="1" as="geometry">
            <mxPoint x="2820" y="600.7499999999995" as="targetPoint" />
          </mxGeometry>
        </mxCell>
        <mxCell id="Ghwof6MFSF0Sdk-0VfBn-30" value="&lt;div&gt;mux_alu_datoB&lt;/div&gt;" style="triangle;whiteSpace=wrap;html=1;" parent="1" vertex="1">
          <mxGeometry x="2560" y="728" width="140" height="145" as="geometry" />
        </mxCell>
        <mxCell id="Ghwof6MFSF0Sdk-0VfBn-32" value="IDEX_ctl_alu_src" style="text;html=1;align=center;verticalAlign=middle;resizable=0;points=[];autosize=1;strokeColor=none;fillColor=none;" parent="1" vertex="1">
          <mxGeometry x="2450" y="728" width="120" height="30" as="geometry" />
        </mxCell>
        <mxCell id="Ghwof6MFSF0Sdk-0VfBn-34" value="IDEX_register2" style="text;html=1;align=center;verticalAlign=middle;resizable=0;points=[];autosize=1;strokeColor=none;fillColor=none;" parent="1" vertex="1">
          <mxGeometry x="2460" y="768" width="100" height="30" as="geometry" />
        </mxCell>
        <mxCell id="Ghwof6MFSF0Sdk-0VfBn-36" value="i_id_extension" style="text;html=1;align=center;verticalAlign=middle;resizable=0;points=[];autosize=1;strokeColor=none;fillColor=none;" parent="1" vertex="1">
          <mxGeometry x="2450" y="810" width="100" height="30" as="geometry" />
        </mxCell>
        <mxCell id="Ghwof6MFSF0Sdk-0VfBn-39" value="" style="endArrow=classic;html=1;rounded=0;entryX=0.214;entryY=0.941;entryDx=0;entryDy=0;entryPerimeter=0;exitX=0.539;exitY=-0.218;exitDx=0;exitDy=0;exitPerimeter=0;" parent="1" source="u0YVO1Xili40BDTapkqs-92" edge="1">
          <mxGeometry width="50" height="50" relative="1" as="geometry">
            <mxPoint x="2620" y="928" as="sourcePoint" />
            <mxPoint x="2621" y="841" as="targetPoint" />
            <Array as="points" />
          </mxGeometry>
        </mxCell>
        <mxCell id="Ghwof6MFSF0Sdk-0VfBn-40" value="i_exmem_register" style="text;html=1;align=center;verticalAlign=middle;resizable=0;points=[];autosize=1;strokeColor=none;fillColor=none;rotation=90;" parent="1" vertex="1">
          <mxGeometry x="2570" y="938" width="120" height="30" as="geometry" />
        </mxCell>
        <mxCell id="Ghwof6MFSF0Sdk-0VfBn-41" value="" style="endArrow=classic;html=1;rounded=0;entryX=0.214;entryY=0.941;entryDx=0;entryDy=0;entryPerimeter=0;fillColor=#ffe6cc;strokeColor=#d79b00;" parent="1" edge="1">
          <mxGeometry width="50" height="50" relative="1" as="geometry">
            <mxPoint x="6140" y="630" as="sourcePoint" />
            <mxPoint x="2646" y="825" as="targetPoint" />
            <Array as="points">
              <mxPoint x="6140" y="1490" />
              <mxPoint x="4360" y="1490" />
              <mxPoint x="3080" y="1490" />
              <mxPoint x="2650" y="1200" />
            </Array>
          </mxGeometry>
        </mxCell>
        <mxCell id="Ghwof6MFSF0Sdk-0VfBn-42" value="i_wb_data_write" style="text;html=1;align=center;verticalAlign=middle;resizable=0;points=[];autosize=1;strokeColor=none;fillColor=none;rotation=90;" parent="1" vertex="1">
          <mxGeometry x="2610" y="895" width="110" height="30" as="geometry" />
        </mxCell>
        <mxCell id="Ghwof6MFSF0Sdk-0VfBn-44" style="edgeStyle=orthogonalEdgeStyle;rounded=0;orthogonalLoop=1;jettySize=auto;html=1;exitX=0.5;exitY=0;exitDx=0;exitDy=0;fillColor=#f8cecc;strokeColor=#b85450;" parent="1" source="Ghwof6MFSF0Sdk-0VfBn-12" edge="1">
          <mxGeometry relative="1" as="geometry">
            <mxPoint x="2565" y="880" as="targetPoint" />
          </mxGeometry>
        </mxCell>
        <mxCell id="Ghwof6MFSF0Sdk-0VfBn-45" value="corto_register_B" style="text;html=1;align=center;verticalAlign=middle;resizable=0;points=[];autosize=1;strokeColor=none;fillColor=none;rotation=90;" parent="1" vertex="1">
          <mxGeometry x="2530" y="910" width="110" height="30" as="geometry" />
        </mxCell>
        <mxCell id="Ghwof6MFSF0Sdk-0VfBn-47" value="DATA B" style="text;html=1;align=center;verticalAlign=middle;resizable=0;points=[];autosize=1;strokeColor=none;fillColor=none;" parent="1" vertex="1">
          <mxGeometry x="2750" y="570" width="60" height="30" as="geometry" />
        </mxCell>
        <mxCell id="Ghwof6MFSF0Sdk-0VfBn-48" value="" style="endArrow=classic;html=1;rounded=0;entryX=0.332;entryY=1.016;entryDx=0;entryDy=0;fillColor=#e1d5e7;strokeColor=#9673a6;exitX=0;exitY=0;exitDx=0;exitDy=0;entryPerimeter=0;" parent="1" source="u0YVO1Xili40BDTapkqs-1" edge="1">
          <mxGeometry width="50" height="50" relative="1" as="geometry">
            <mxPoint x="2610" y="534" as="sourcePoint" />
            <mxPoint x="2909.6400000000012" y="671.7719999999999" as="targetPoint" />
          </mxGeometry>
        </mxCell>
        <mxCell id="Ghwof6MFSF0Sdk-0VfBn-49" value="i_alu_op" style="text;html=1;align=center;verticalAlign=middle;resizable=0;points=[];autosize=1;strokeColor=none;fillColor=none;" parent="1" vertex="1">
          <mxGeometry x="2845" y="680" width="70" height="30" as="geometry" />
        </mxCell>
        <mxCell id="Ghwof6MFSF0Sdk-0VfBn-50" value="" style="endArrow=classic;html=1;rounded=0;fillColor=#e1d5e7;strokeColor=#9673a6;" parent="1" source="u0YVO1Xili40BDTapkqs-1" edge="1">
          <mxGeometry width="50" height="50" relative="1" as="geometry">
            <mxPoint x="2945" y="754.5" as="sourcePoint" />
            <mxPoint x="2950" y="670" as="targetPoint" />
          </mxGeometry>
        </mxCell>
        <mxCell id="Ghwof6MFSF0Sdk-0VfBn-51" value="i_flag_shamt" style="text;html=1;align=center;verticalAlign=middle;resizable=0;points=[];autosize=1;strokeColor=none;fillColor=none;rotation=0;" parent="1" vertex="1">
          <mxGeometry x="2955" y="688" width="90" height="30" as="geometry" />
        </mxCell>
        <mxCell id="Ghwof6MFSF0Sdk-0VfBn-55" value="o_result" style="text;html=1;align=center;verticalAlign=middle;resizable=0;points=[];autosize=1;strokeColor=none;fillColor=none;" parent="1" vertex="1">
          <mxGeometry x="3125" y="568" width="70" height="30" as="geometry" />
        </mxCell>
        <mxCell id="Ghwof6MFSF0Sdk-0VfBn-68" style="edgeStyle=orthogonalEdgeStyle;rounded=0;orthogonalLoop=1;jettySize=auto;html=1;" parent="1" source="Ghwof6MFSF0Sdk-0VfBn-57" edge="1">
          <mxGeometry relative="1" as="geometry">
            <mxPoint x="3510" y="1055" as="targetPoint" />
          </mxGeometry>
        </mxCell>
        <mxCell id="Ghwof6MFSF0Sdk-0VfBn-57" value="MUX RTRD" style="triangle;whiteSpace=wrap;html=1;" parent="1" vertex="1">
          <mxGeometry x="2810" y="982.5" width="140" height="145" as="geometry" />
        </mxCell>
        <mxCell id="Ghwof6MFSF0Sdk-0VfBn-60" value="" style="endArrow=classic;html=1;rounded=0;entryX=0;entryY=0.25;entryDx=0;entryDy=0;" parent="1" target="Ghwof6MFSF0Sdk-0VfBn-57" edge="1">
          <mxGeometry width="50" height="50" relative="1" as="geometry">
            <mxPoint x="1810" y="1020" as="sourcePoint" />
            <mxPoint x="2771" y="1140" as="targetPoint" />
          </mxGeometry>
        </mxCell>
        <mxCell id="Ghwof6MFSF0Sdk-0VfBn-62" value="" style="endArrow=classic;html=1;rounded=0;entryX=0;entryY=0.25;entryDx=0;entryDy=0;" parent="1" edge="1">
          <mxGeometry width="50" height="50" relative="1" as="geometry">
            <mxPoint x="1810" y="1049.95" as="sourcePoint" />
            <mxPoint x="2810" y="1048.95" as="targetPoint" />
          </mxGeometry>
        </mxCell>
        <mxCell id="Ghwof6MFSF0Sdk-0VfBn-63" value="IDEX_RT" style="text;html=1;align=center;verticalAlign=middle;resizable=0;points=[];autosize=1;strokeColor=none;fillColor=none;" parent="1" vertex="1">
          <mxGeometry x="2735" y="1050" width="70" height="30" as="geometry" />
        </mxCell>
        <mxCell id="Ghwof6MFSF0Sdk-0VfBn-64" value="IDEX_RS" style="text;html=1;align=center;verticalAlign=middle;resizable=0;points=[];autosize=1;strokeColor=none;fillColor=none;" parent="1" vertex="1">
          <mxGeometry x="2735" y="1018" width="70" height="30" as="geometry" />
        </mxCell>
        <mxCell id="Ghwof6MFSF0Sdk-0VfBn-67" value="IDEX_ctl_register_rd" style="text;html=1;align=center;verticalAlign=middle;resizable=0;points=[];autosize=1;strokeColor=none;fillColor=none;" parent="1" vertex="1">
          <mxGeometry x="2660" y="1108" width="130" height="30" as="geometry" />
        </mxCell>
        <mxCell id="Ghwof6MFSF0Sdk-0VfBn-70" value="o_mux_register_rd" style="text;html=1;align=center;verticalAlign=middle;resizable=0;points=[];autosize=1;strokeColor=none;fillColor=none;" parent="1" vertex="1">
          <mxGeometry x="2980" y="1058" width="120" height="30" as="geometry" />
        </mxCell>
        <mxCell id="u0YVO1Xili40BDTapkqs-1" value="CTL ALU" style="ellipse;whiteSpace=wrap;html=1;fillColor=#e1d5e7;strokeColor=#9673a6;" parent="1" vertex="1">
          <mxGeometry x="2895" y="860" width="120" height="80" as="geometry" />
        </mxCell>
        <mxCell id="u0YVO1Xili40BDTapkqs-2" value="o_shamt" style="text;html=1;align=center;verticalAlign=middle;resizable=0;points=[];autosize=1;strokeColor=none;fillColor=none;" parent="1" vertex="1">
          <mxGeometry x="2950" y="830" width="70" height="30" as="geometry" />
        </mxCell>
        <mxCell id="u0YVO1Xili40BDTapkqs-3" value="EX_ctl_alu_op" style="text;html=1;align=center;verticalAlign=middle;resizable=0;points=[];autosize=1;strokeColor=none;fillColor=none;" parent="1" vertex="1">
          <mxGeometry x="2820" y="748" width="100" height="30" as="geometry" />
        </mxCell>
        <mxCell id="u0YVO1Xili40BDTapkqs-4" value="o_alu_op" style="text;html=1;align=center;verticalAlign=middle;resizable=0;points=[];autosize=1;strokeColor=none;fillColor=none;" parent="1" vertex="1">
          <mxGeometry x="2835" y="830" width="70" height="30" as="geometry" />
        </mxCell>
        <mxCell id="u0YVO1Xili40BDTapkqs-10" value="EX_alu_shamt&lt;div&gt;IDEX_instruction [10:6]&lt;br&gt;&lt;/div&gt;" style="text;html=1;align=center;verticalAlign=middle;resizable=0;points=[];autosize=1;strokeColor=none;fillColor=none;" parent="1" vertex="1">
          <mxGeometry x="1785" y="590" width="150" height="40" as="geometry" />
        </mxCell>
        <mxCell id="u0YVO1Xili40BDTapkqs-11" value="i_alu_shamt" style="text;html=1;align=center;verticalAlign=middle;resizable=0;points=[];autosize=1;strokeColor=none;fillColor=none;" parent="1" vertex="1">
          <mxGeometry x="2730" y="503" width="90" height="30" as="geometry" />
        </mxCell>
        <mxCell id="u0YVO1Xili40BDTapkqs-15" value="i_funct" style="text;html=1;align=center;verticalAlign=middle;resizable=0;points=[];autosize=1;strokeColor=none;fillColor=none;" parent="1" vertex="1">
          <mxGeometry x="2810" y="873" width="60" height="30" as="geometry" />
        </mxCell>
        <mxCell id="u0YVO1Xili40BDTapkqs-16" value="" style="endArrow=classic;html=1;rounded=0;entryX=0.5;entryY=1;entryDx=0;entryDy=0;fillColor=#e1d5e7;strokeColor=#9673a6;" parent="1" target="u0YVO1Xili40BDTapkqs-1" edge="1">
          <mxGeometry width="50" height="50" relative="1" as="geometry">
            <mxPoint x="2740" y="900" as="sourcePoint" />
            <mxPoint x="2850" y="940" as="targetPoint" />
            <Array as="points">
              <mxPoint x="2740" y="940" />
            </Array>
          </mxGeometry>
        </mxCell>
        <mxCell id="u0YVO1Xili40BDTapkqs-17" value="i_opcode" style="text;html=1;align=center;verticalAlign=middle;resizable=0;points=[];autosize=1;strokeColor=none;fillColor=none;" parent="1" vertex="1">
          <mxGeometry x="2835" y="910" width="70" height="30" as="geometry" />
        </mxCell>
        <mxCell id="u0YVO1Xili40BDTapkqs-18" value="" style="endArrow=classic;html=1;rounded=0;entryX=1;entryY=1;entryDx=0;entryDy=0;fillColor=#e1d5e7;strokeColor=#9673a6;" parent="1" target="u0YVO1Xili40BDTapkqs-1" edge="1">
          <mxGeometry width="50" height="50" relative="1" as="geometry">
            <mxPoint x="2740" y="940" as="sourcePoint" />
            <mxPoint x="2965" y="950" as="targetPoint" />
            <Array as="points">
              <mxPoint x="2740" y="980" />
              <mxPoint x="3000" y="980" />
            </Array>
          </mxGeometry>
        </mxCell>
        <mxCell id="u0YVO1Xili40BDTapkqs-19" value="i_op" style="text;html=1;align=center;verticalAlign=middle;resizable=0;points=[];autosize=1;strokeColor=none;fillColor=none;" parent="1" vertex="1">
          <mxGeometry x="2950" y="952.5" width="50" height="30" as="geometry" />
        </mxCell>
        <mxCell id="u0YVO1Xili40BDTapkqs-54" style="edgeStyle=orthogonalEdgeStyle;rounded=0;orthogonalLoop=1;jettySize=auto;html=1;exitX=0.079;exitY=-0.039;exitDx=0;exitDy=0;entryX=1;entryY=1;entryDx=0;entryDy=0;exitPerimeter=0;fillColor=#1ba1e2;strokeColor=#006EAF;" parent="1" source="u0YVO1Xili40BDTapkqs-20" target="Ghwof6MFSF0Sdk-0VfBn-12" edge="1">
          <mxGeometry relative="1" as="geometry">
            <Array as="points">
              <mxPoint x="3770" y="-126" />
              <mxPoint x="3770" y="1550" />
              <mxPoint x="2675" y="1550" />
            </Array>
          </mxGeometry>
        </mxCell>
        <mxCell id="_TVw85CBntGOAsQvyyHS-26" style="edgeStyle=orthogonalEdgeStyle;rounded=0;orthogonalLoop=1;jettySize=auto;html=1;entryX=0.75;entryY=0;entryDx=0;entryDy=0;fillColor=#1ba1e2;strokeColor=#006EAF;" parent="1" target="_TVw85CBntGOAsQvyyHS-8" edge="1">
          <mxGeometry relative="1" as="geometry">
            <mxPoint x="3559.999999999999" y="-234.92307692307713" as="sourcePoint" />
            <mxPoint x="4752.25" y="-320" as="targetPoint" />
          </mxGeometry>
        </mxCell>
        <mxCell id="u0YVO1Xili40BDTapkqs-20" value="" style="rounded=1;whiteSpace=wrap;html=1;direction=south;fillColor=#d5e8d4;strokeColor=#82b366;" parent="1" vertex="1">
          <mxGeometry x="3520" y="-250" width="40" height="1570" as="geometry" />
        </mxCell>
        <mxCell id="u0YVO1Xili40BDTapkqs-21" value="&lt;div&gt;EX/MEM&lt;/div&gt;" style="text;html=1;align=center;verticalAlign=middle;resizable=0;points=[];autosize=1;strokeColor=none;fillColor=none;" parent="1" vertex="1">
          <mxGeometry x="3510" y="-290" width="70" height="30" as="geometry" />
        </mxCell>
        <mxCell id="u0YVO1Xili40BDTapkqs-23" value="" style="shape=flexArrow;endArrow=classic;html=1;rounded=0;fillColor=#1ba1e2;strokeColor=#006EAF;exitX=0.179;exitY=0.05;exitDx=0;exitDy=0;exitPerimeter=0;" parent="1" source="NUGC_-o1-TNJPC-z7ICF-3" edge="1">
          <mxGeometry width="50" height="50" relative="1" as="geometry">
            <mxPoint x="1810" y="-130" as="sourcePoint" />
            <mxPoint x="3530" y="-130" as="targetPoint" />
            <Array as="points">
              <mxPoint x="1870" y="-130" />
            </Array>
          </mxGeometry>
        </mxCell>
        <mxCell id="u0YVO1Xili40BDTapkqs-24" value="&lt;div&gt;&lt;br&gt;&lt;/div&gt;&lt;div&gt;IDEX_ctl_jal&lt;/div&gt;&lt;div&gt;IDEX_ctl_mem_write&lt;/div&gt;&lt;div&gt;IDEX_ctl_mem_read&lt;/div&gt;&lt;div&gt;IDEX_ctl_datomem_size&lt;/div&gt;&lt;div&gt;IDEX_ctl_mem_to_reg&lt;/div&gt;&lt;div&gt;IDEX_ctl_register_write&lt;/div&gt;&lt;div&gt;IDEX_ctL_dataload_size&lt;/div&gt;&lt;div&gt;IDEX_ctl_zero_extend&lt;/div&gt;&lt;div&gt;IDEX_ctl_lui&lt;/div&gt;&lt;div&gt;IDEX_ctl_halt&lt;/div&gt;" style="text;html=1;align=center;verticalAlign=middle;resizable=0;points=[];autosize=1;strokeColor=none;fillColor=none;" parent="1" vertex="1">
          <mxGeometry x="3100" y="-315" width="150" height="170" as="geometry" />
        </mxCell>
        <mxCell id="u0YVO1Xili40BDTapkqs-30" style="edgeStyle=orthogonalEdgeStyle;rounded=0;orthogonalLoop=1;jettySize=auto;html=1;" parent="1" edge="1">
          <mxGeometry relative="1" as="geometry">
            <mxPoint x="1810" y="241" as="sourcePoint" />
            <mxPoint x="5190" y="240" as="targetPoint" />
          </mxGeometry>
        </mxCell>
        <mxCell id="u0YVO1Xili40BDTapkqs-33" value="IDEX_PC8" style="text;html=1;align=center;verticalAlign=middle;resizable=0;points=[];autosize=1;strokeColor=none;fillColor=none;" parent="1" vertex="1">
          <mxGeometry x="3420" y="245" width="80" height="30" as="geometry" />
        </mxCell>
        <mxCell id="u0YVO1Xili40BDTapkqs-34" style="edgeStyle=orthogonalEdgeStyle;rounded=0;orthogonalLoop=1;jettySize=auto;html=1;" parent="1" edge="1">
          <mxGeometry relative="1" as="geometry">
            <mxPoint x="1810" y="180" as="sourcePoint" />
            <mxPoint x="5190" y="310" as="targetPoint" />
            <Array as="points">
              <mxPoint x="1810" y="150" />
              <mxPoint x="3660" y="150" />
              <mxPoint x="3660" y="310" />
              <mxPoint x="5150" y="310" />
            </Array>
          </mxGeometry>
        </mxCell>
        <mxCell id="u0YVO1Xili40BDTapkqs-35" value="IDEX_instruction" style="text;html=1;align=center;verticalAlign=middle;resizable=0;points=[];autosize=1;strokeColor=none;fillColor=none;" parent="1" vertex="1">
          <mxGeometry x="3400" y="110" width="110" height="30" as="geometry" />
        </mxCell>
        <mxCell id="u0YVO1Xili40BDTapkqs-40" value="" style="endArrow=classic;html=1;rounded=0;entryX=0.646;entryY=0.85;entryDx=0;entryDy=0;entryPerimeter=0;" parent="1" target="u0YVO1Xili40BDTapkqs-20" edge="1">
          <mxGeometry width="50" height="50" relative="1" as="geometry">
            <mxPoint x="3310" y="764" as="sourcePoint" />
            <mxPoint x="2650" y="640" as="targetPoint" />
          </mxGeometry>
        </mxCell>
        <mxCell id="u0YVO1Xili40BDTapkqs-42" value="IDEX_register2" style="text;html=1;align=center;verticalAlign=middle;resizable=0;points=[];autosize=1;strokeColor=none;fillColor=none;" parent="1" vertex="1">
          <mxGeometry x="3390" y="718" width="100" height="30" as="geometry" />
        </mxCell>
        <mxCell id="u0YVO1Xili40BDTapkqs-43" value="" style="endArrow=classic;html=1;rounded=0;entryX=0.646;entryY=0.85;entryDx=0;entryDy=0;entryPerimeter=0;" parent="1" edge="1">
          <mxGeometry width="50" height="50" relative="1" as="geometry">
            <mxPoint x="3304" y="844.17" as="sourcePoint" />
            <mxPoint x="3520" y="844.17" as="targetPoint" />
          </mxGeometry>
        </mxCell>
        <mxCell id="u0YVO1Xili40BDTapkqs-44" value="IDEX_extension" style="text;html=1;align=center;verticalAlign=middle;resizable=0;points=[];autosize=1;strokeColor=none;fillColor=none;" parent="1" vertex="1">
          <mxGeometry x="3385" y="810" width="110" height="30" as="geometry" />
        </mxCell>
        <mxCell id="u0YVO1Xili40BDTapkqs-45" value="" style="endArrow=classic;html=1;rounded=0;entryX=0;entryY=1;entryDx=0;entryDy=0;fillColor=#f8cecc;strokeColor=#b85450;" parent="1" target="Ghwof6MFSF0Sdk-0VfBn-12" edge="1">
          <mxGeometry width="50" height="50" relative="1" as="geometry">
            <mxPoint x="5410" y="1035.7142857142858" as="sourcePoint" />
            <mxPoint x="2650" y="1240" as="targetPoint" />
            <Array as="points">
              <mxPoint x="5410" y="1580" />
              <mxPoint x="2455" y="1590" />
            </Array>
          </mxGeometry>
        </mxCell>
        <mxCell id="u0YVO1Xili40BDTapkqs-46" value="i_MEM_WR_rd" style="text;html=1;align=center;verticalAlign=middle;resizable=0;points=[];autosize=1;strokeColor=none;fillColor=none;" parent="1" vertex="1">
          <mxGeometry x="2350" y="1460" width="100" height="30" as="geometry" />
        </mxCell>
        <mxCell id="u0YVO1Xili40BDTapkqs-48" value="" style="endArrow=classic;html=1;rounded=0;entryX=0;entryY=1;entryDx=0;entryDy=0;fillColor=#1ba1e2;strokeColor=#006EAF;exitX=1;exitY=0;exitDx=0;exitDy=0;" parent="1" source="_TVw85CBntGOAsQvyyHS-52" edge="1">
          <mxGeometry width="50" height="50" relative="1" as="geometry">
            <mxPoint x="2584" y="1596" as="sourcePoint" />
            <mxPoint x="2584" y="1440" as="targetPoint" />
            <Array as="points">
              <mxPoint x="5240" y="1570" />
              <mxPoint x="2584" y="1570" />
            </Array>
          </mxGeometry>
        </mxCell>
        <mxCell id="u0YVO1Xili40BDTapkqs-49" value="i_MEM_WR_reg_write" style="text;html=1;align=center;verticalAlign=middle;resizable=0;points=[];autosize=1;strokeColor=none;fillColor=none;" parent="1" vertex="1">
          <mxGeometry x="2460" y="1488" width="140" height="30" as="geometry" />
        </mxCell>
        <mxCell id="u0YVO1Xili40BDTapkqs-52" style="edgeStyle=orthogonalEdgeStyle;rounded=0;orthogonalLoop=1;jettySize=auto;html=1;entryX=1;entryY=0.5;entryDx=0;entryDy=0;fillColor=#f8cecc;strokeColor=#b85450;" parent="1" target="Ghwof6MFSF0Sdk-0VfBn-12" edge="1">
          <mxGeometry relative="1" as="geometry">
            <mxPoint x="3720" y="1050" as="sourcePoint" />
            <Array as="points">
              <mxPoint x="3720" y="1385" />
            </Array>
          </mxGeometry>
        </mxCell>
        <mxCell id="_TVw85CBntGOAsQvyyHS-60" style="edgeStyle=orthogonalEdgeStyle;rounded=0;orthogonalLoop=1;jettySize=auto;html=1;" parent="1" source="_TVw85CBntGOAsQvyyHS-62" edge="1">
          <mxGeometry relative="1" as="geometry">
            <mxPoint x="5170" y="1043" as="targetPoint" />
          </mxGeometry>
        </mxCell>
        <mxCell id="u0YVO1Xili40BDTapkqs-51" value="EXMEM_register_dst" style="text;html=1;align=center;verticalAlign=middle;resizable=0;points=[];autosize=1;strokeColor=none;fillColor=none;" parent="1" vertex="1">
          <mxGeometry x="3610" y="1070" width="140" height="30" as="geometry" />
        </mxCell>
        <mxCell id="u0YVO1Xili40BDTapkqs-53" value="i_EXMEM_rd" style="text;html=1;align=center;verticalAlign=middle;resizable=0;points=[];autosize=1;strokeColor=none;fillColor=none;" parent="1" vertex="1">
          <mxGeometry x="2725" y="1390" width="90" height="30" as="geometry" />
        </mxCell>
        <mxCell id="u0YVO1Xili40BDTapkqs-55" value="EXMEM_register_write" style="text;html=1;align=center;verticalAlign=middle;resizable=0;points=[];autosize=1;strokeColor=none;fillColor=none;" parent="1" vertex="1">
          <mxGeometry x="3560" y="-160" width="150" height="30" as="geometry" />
        </mxCell>
        <mxCell id="u0YVO1Xili40BDTapkqs-56" value="i_EXMEM_register_write" style="text;html=1;align=center;verticalAlign=middle;resizable=0;points=[];autosize=1;strokeColor=none;fillColor=none;" parent="1" vertex="1">
          <mxGeometry x="2675" y="1518" width="160" height="30" as="geometry" />
        </mxCell>
        <mxCell id="_TVw85CBntGOAsQvyyHS-14" style="edgeStyle=orthogonalEdgeStyle;rounded=0;orthogonalLoop=1;jettySize=auto;html=1;" parent="1" source="u0YVO1Xili40BDTapkqs-58" target="_TVw85CBntGOAsQvyyHS-10" edge="1">
          <mxGeometry relative="1" as="geometry">
            <Array as="points">
              <mxPoint x="3950" y="585" />
              <mxPoint x="3950" y="485" />
            </Array>
          </mxGeometry>
        </mxCell>
        <mxCell id="u0YVO1Xili40BDTapkqs-58" value="EXMEM_alu" style="text;html=1;align=center;verticalAlign=middle;resizable=0;points=[];autosize=1;strokeColor=none;fillColor=none;" parent="1" vertex="1">
          <mxGeometry x="3560" y="570" width="90" height="30" as="geometry" />
        </mxCell>
        <mxCell id="u0YVO1Xili40BDTapkqs-72" value="" style="endArrow=classic;html=1;rounded=0;entryX=0;entryY=0.5;entryDx=0;entryDy=0;" parent="1" target="u0YVO1Xili40BDTapkqs-71" edge="1">
          <mxGeometry width="50" height="50" relative="1" as="geometry">
            <mxPoint x="880" y="560" as="sourcePoint" />
            <mxPoint x="1090" y="965" as="targetPoint" />
            <Array as="points" />
          </mxGeometry>
        </mxCell>
        <mxCell id="u0YVO1Xili40BDTapkqs-71" value="-" style="ellipse;whiteSpace=wrap;html=1;aspect=fixed;fillColor=#0D0D0D;" parent="1" vertex="1">
          <mxGeometry x="870" y="554" width="20" height="20" as="geometry" />
        </mxCell>
        <mxCell id="u0YVO1Xili40BDTapkqs-86" value="-" style="ellipse;whiteSpace=wrap;html=1;aspect=fixed;fillColor=#0D0D0D;" parent="1" vertex="1">
          <mxGeometry x="2100" y="488" width="20" height="20" as="geometry" />
        </mxCell>
        <mxCell id="u0YVO1Xili40BDTapkqs-73" value="-" style="ellipse;whiteSpace=wrap;html=1;aspect=fixed;fillColor=#0D0D0D;" parent="1" vertex="1">
          <mxGeometry x="2140" y="408" width="20" height="20" as="geometry" />
        </mxCell>
        <mxCell id="u0YVO1Xili40BDTapkqs-93" value="" style="endArrow=classic;html=1;rounded=0;entryX=0.214;entryY=0.941;entryDx=0;entryDy=0;entryPerimeter=0;exitX=0.539;exitY=-0.218;exitDx=0;exitDy=0;exitPerimeter=0;" parent="1" source="u0YVO1Xili40BDTapkqs-20" target="u0YVO1Xili40BDTapkqs-92" edge="1">
          <mxGeometry width="50" height="50" relative="1" as="geometry">
            <mxPoint x="3569" y="596" as="sourcePoint" />
            <mxPoint x="2621" y="841" as="targetPoint" />
            <Array as="points">
              <mxPoint x="3600" y="596" />
              <mxPoint x="3600" y="1360" />
              <mxPoint x="2810" y="1360" />
              <mxPoint x="2621" y="1250" />
            </Array>
          </mxGeometry>
        </mxCell>
        <mxCell id="u0YVO1Xili40BDTapkqs-92" value="-" style="ellipse;whiteSpace=wrap;html=1;aspect=fixed;fillColor=#0D0D0D;" parent="1" vertex="1">
          <mxGeometry x="2610" y="1240" width="20" height="20" as="geometry" />
        </mxCell>
        <mxCell id="u0YVO1Xili40BDTapkqs-98" value="" style="edgeStyle=orthogonalEdgeStyle;rounded=0;orthogonalLoop=1;jettySize=auto;html=1;" parent="1" source="jJp0ub6KG7U2lXxTCfqB-9" target="u0YVO1Xili40BDTapkqs-97" edge="1">
          <mxGeometry relative="1" as="geometry">
            <mxPoint x="739.9999999999995" y="358" as="targetPoint" />
            <mxPoint x="300" y="358" as="sourcePoint" />
          </mxGeometry>
        </mxCell>
        <mxCell id="u0YVO1Xili40BDTapkqs-97" value="-" style="ellipse;whiteSpace=wrap;html=1;aspect=fixed;fillColor=#0D0D0D;" parent="1" vertex="1">
          <mxGeometry x="460" y="348" width="20" height="20" as="geometry" />
        </mxCell>
        <mxCell id="u0YVO1Xili40BDTapkqs-99" value="EXMEM_mem_read" style="text;html=1;align=center;verticalAlign=middle;resizable=0;points=[];autosize=1;strokeColor=none;fillColor=none;fontStyle=1" parent="1" vertex="1">
          <mxGeometry x="3495" y="-690" width="130" height="30" as="geometry" />
        </mxCell>
        <mxCell id="u0YVO1Xili40BDTapkqs-100" value="-" style="ellipse;whiteSpace=wrap;html=1;aspect=fixed;fillColor=#0D0D0D;" parent="1" vertex="1">
          <mxGeometry x="870" y="488" width="20" height="20" as="geometry" />
        </mxCell>
        <mxCell id="u0YVO1Xili40BDTapkqs-106" value="" style="endArrow=classic;html=1;rounded=0;entryX=0;entryY=0.5;entryDx=0;entryDy=0;" parent="1" target="u0YVO1Xili40BDTapkqs-103" edge="1">
          <mxGeometry width="50" height="50" relative="1" as="geometry">
            <mxPoint x="880" y="420" as="sourcePoint" />
            <mxPoint x="1300" y="40" as="targetPoint" />
            <Array as="points" />
          </mxGeometry>
        </mxCell>
        <mxCell id="u0YVO1Xili40BDTapkqs-103" value="-" style="ellipse;whiteSpace=wrap;html=1;aspect=fixed;fillColor=#0D0D0D;" parent="1" vertex="1">
          <mxGeometry x="870" y="403" width="20" height="20" as="geometry" />
        </mxCell>
        <mxCell id="u0YVO1Xili40BDTapkqs-108" value="" style="endArrow=classic;html=1;rounded=0;entryX=0.25;entryY=1;entryDx=0;entryDy=0;fillColor=#f8cecc;strokeColor=#b85450;" parent="1" target="u0YVO1Xili40BDTapkqs-107" edge="1">
          <mxGeometry width="50" height="50" relative="1" as="geometry">
            <mxPoint x="880" y="190" as="sourcePoint" />
            <mxPoint x="1163" y="-290" as="targetPoint" />
            <Array as="points" />
          </mxGeometry>
        </mxCell>
        <mxCell id="u0YVO1Xili40BDTapkqs-107" value="-" style="ellipse;whiteSpace=wrap;html=1;aspect=fixed;fillColor=#0D0D0D;" parent="1" vertex="1">
          <mxGeometry x="870" y="170" width="20" height="20" as="geometry" />
        </mxCell>
        <mxCell id="u0YVO1Xili40BDTapkqs-116" value="IDEX_ctl_JALR" style="text;html=1;align=center;verticalAlign=middle;resizable=0;points=[];autosize=1;strokeColor=none;fillColor=none;" parent="1" vertex="1">
          <mxGeometry x="1795" y="1148" width="110" height="30" as="geometry" />
        </mxCell>
        <mxCell id="u0YVO1Xili40BDTapkqs-117" value="IDEX_ctl_jump" style="text;html=1;align=center;verticalAlign=middle;resizable=0;points=[];autosize=1;strokeColor=none;fillColor=none;" parent="1" vertex="1">
          <mxGeometry x="1800" y="1088" width="100" height="30" as="geometry" />
        </mxCell>
        <mxCell id="_TVw85CBntGOAsQvyyHS-2" value="ALU" style="shape=dataStorage;whiteSpace=wrap;html=1;fixedSize=1;direction=west;" parent="1" vertex="1">
          <mxGeometry x="2835" y="440" width="245" height="200" as="geometry" />
        </mxCell>
        <mxCell id="_TVw85CBntGOAsQvyyHS-48" style="edgeStyle=orthogonalEdgeStyle;rounded=0;orthogonalLoop=1;jettySize=auto;html=1;exitX=1;exitY=0.25;exitDx=0;exitDy=0;" parent="1" source="_TVw85CBntGOAsQvyyHS-8" edge="1">
          <mxGeometry relative="1" as="geometry">
            <mxPoint x="5190" y="505" as="targetPoint" />
          </mxGeometry>
        </mxCell>
        <mxCell id="_TVw85CBntGOAsQvyyHS-49" style="edgeStyle=orthogonalEdgeStyle;rounded=0;orthogonalLoop=1;jettySize=auto;html=1;exitX=1;exitY=0.75;exitDx=0;exitDy=0;" parent="1" source="_TVw85CBntGOAsQvyyHS-8" edge="1">
          <mxGeometry relative="1" as="geometry">
            <mxPoint x="5009.999999999999" y="614.3076923076924" as="targetPoint" />
          </mxGeometry>
        </mxCell>
        <mxCell id="_TVw85CBntGOAsQvyyHS-8" value="" style="swimlane;startSize=0;" parent="1" vertex="1">
          <mxGeometry x="4549" y="450" width="271" height="220" as="geometry" />
        </mxCell>
        <mxCell id="_TVw85CBntGOAsQvyyHS-9" value="MEM DATO" style="text;html=1;align=center;verticalAlign=middle;resizable=0;points=[];autosize=1;strokeColor=none;fillColor=none;" parent="_TVw85CBntGOAsQvyyHS-8" vertex="1">
          <mxGeometry x="90.5" y="105" width="90" height="30" as="geometry" />
        </mxCell>
        <mxCell id="_TVw85CBntGOAsQvyyHS-10" value="ADDR" style="text;html=1;align=center;verticalAlign=middle;resizable=0;points=[];autosize=1;strokeColor=none;fillColor=none;" parent="_TVw85CBntGOAsQvyyHS-8" vertex="1">
          <mxGeometry y="20" width="60" height="30" as="geometry" />
        </mxCell>
        <mxCell id="_TVw85CBntGOAsQvyyHS-15" value="i_alu_address" style="text;html=1;align=center;verticalAlign=middle;resizable=0;points=[];autosize=1;strokeColor=none;fillColor=none;" parent="1" vertex="1">
          <mxGeometry x="4440" y="448" width="100" height="30" as="geometry" />
        </mxCell>
        <mxCell id="_TVw85CBntGOAsQvyyHS-17" value="" style="endArrow=classic;html=1;rounded=0;exitX=0.033;exitY=0.027;exitDx=0;exitDy=0;exitPerimeter=0;entryX=0.139;entryY=-0.015;entryDx=0;entryDy=0;entryPerimeter=0;fillColor=#1ba1e2;strokeColor=#006EAF;" parent="1" source="_TVw85CBntGOAsQvyyHS-18" target="_TVw85CBntGOAsQvyyHS-8" edge="1">
          <mxGeometry width="50" height="50" relative="1" as="geometry">
            <mxPoint x="3700" y="-30" as="sourcePoint" />
            <mxPoint x="4600" y="440" as="targetPoint" />
            <Array as="points">
              <mxPoint x="4590" y="-209" />
            </Array>
          </mxGeometry>
        </mxCell>
        <mxCell id="_TVw85CBntGOAsQvyyHS-18" value="-" style="ellipse;whiteSpace=wrap;html=1;aspect=fixed;fillColor=#0D0D0D;" parent="1" vertex="1">
          <mxGeometry x="3630" y="-210" width="20" height="20" as="geometry" />
        </mxCell>
        <mxCell id="_TVw85CBntGOAsQvyyHS-25" value="EXMEM_mem_read" style="text;html=1;align=center;verticalAlign=middle;resizable=0;points=[];autosize=1;strokeColor=none;fillColor=none;" parent="1" vertex="1">
          <mxGeometry x="3785" y="-270" width="130" height="30" as="geometry" />
        </mxCell>
        <mxCell id="_TVw85CBntGOAsQvyyHS-27" value="&lt;span style=&quot;color: rgb(0, 0, 0); font-family: Helvetica; font-size: 12px; font-style: normal; font-variant-ligatures: normal; font-variant-caps: normal; font-weight: 400; letter-spacing: normal; orphans: 2; text-align: center; text-indent: 0px; text-transform: none; widows: 2; word-spacing: 0px; -webkit-text-stroke-width: 0px; white-space: nowrap; background-color: rgb(251, 251, 251); text-decoration-thickness: initial; text-decoration-style: initial; text-decoration-color: initial; display: inline !important; float: none;&quot;&gt;&amp;nbsp;EXMEM_mem_write&lt;/span&gt;" style="text;whiteSpace=wrap;html=1;" parent="1" vertex="1">
          <mxGeometry x="3790" y="-240" width="150" height="40" as="geometry" />
        </mxCell>
        <mxCell id="_TVw85CBntGOAsQvyyHS-28" style="edgeStyle=orthogonalEdgeStyle;rounded=0;orthogonalLoop=1;jettySize=auto;html=1;entryX=0;entryY=0.5;entryDx=0;entryDy=0;" parent="1" target="_TVw85CBntGOAsQvyyHS-8" edge="1">
          <mxGeometry relative="1" as="geometry">
            <mxPoint x="3570" y="760" as="sourcePoint" />
            <mxPoint x="4530.206" y="376.25999999999976" as="targetPoint" />
            <Array as="points">
              <mxPoint x="4060" y="761" />
              <mxPoint x="4520" y="760" />
              <mxPoint x="4520" y="560" />
            </Array>
          </mxGeometry>
        </mxCell>
        <mxCell id="_TVw85CBntGOAsQvyyHS-29" value="i_data_register" style="text;html=1;align=center;verticalAlign=middle;resizable=0;points=[];autosize=1;strokeColor=none;fillColor=none;" parent="1" vertex="1">
          <mxGeometry x="4440" y="528" width="100" height="30" as="geometry" />
        </mxCell>
        <mxCell id="_TVw85CBntGOAsQvyyHS-36" value="i_flag_mem_read" style="text;html=1;align=center;verticalAlign=middle;resizable=0;points=[];autosize=1;strokeColor=none;fillColor=none;" parent="1" vertex="1">
          <mxGeometry x="4480" y="388" width="120" height="30" as="geometry" />
        </mxCell>
        <mxCell id="_TVw85CBntGOAsQvyyHS-37" value="i_flag_mem_write" style="text;html=1;align=center;verticalAlign=middle;resizable=0;points=[];autosize=1;strokeColor=none;fillColor=none;" parent="1" vertex="1">
          <mxGeometry x="4750" y="388" width="120" height="30" as="geometry" />
        </mxCell>
        <mxCell id="_TVw85CBntGOAsQvyyHS-41" style="edgeStyle=orthogonalEdgeStyle;rounded=0;orthogonalLoop=1;jettySize=auto;html=1;fillColor=#1ba1e2;strokeColor=#006EAF;entryX=0.5;entryY=0;entryDx=0;entryDy=0;" parent="1" target="_TVw85CBntGOAsQvyyHS-8" edge="1">
          <mxGeometry relative="1" as="geometry">
            <Array as="points">
              <mxPoint x="4684" y="-167" />
            </Array>
            <mxPoint x="3550" y="-167.06" as="sourcePoint" />
            <mxPoint x="4672.500000000001" y="449.94" as="targetPoint" />
          </mxGeometry>
        </mxCell>
        <mxCell id="_TVw85CBntGOAsQvyyHS-44" value="EXMEM_ctl_datomem_size" style="text;html=1;align=center;verticalAlign=middle;resizable=0;points=[];autosize=1;strokeColor=none;fillColor=none;" parent="1" vertex="1">
          <mxGeometry x="3780" y="-190" width="170" height="30" as="geometry" />
        </mxCell>
        <mxCell id="_TVw85CBntGOAsQvyyHS-50" value="o_data_read" style="text;html=1;align=center;verticalAlign=middle;resizable=0;points=[];autosize=1;strokeColor=none;fillColor=none;" parent="1" vertex="1">
          <mxGeometry x="4820" y="508" width="90" height="30" as="geometry" />
        </mxCell>
        <mxCell id="_TVw85CBntGOAsQvyyHS-51" value="o_debug_data" style="text;html=1;align=center;verticalAlign=middle;resizable=0;points=[];autosize=1;strokeColor=none;fillColor=none;" parent="1" vertex="1">
          <mxGeometry x="4830" y="628" width="100" height="30" as="geometry" />
        </mxCell>
        <mxCell id="9KpFJVqTiT7YMJcwT3f9-15" style="edgeStyle=orthogonalEdgeStyle;rounded=0;orthogonalLoop=1;jettySize=auto;html=1;exitX=0.75;exitY=0;exitDx=0;exitDy=0;entryX=0.161;entryY=0.924;entryDx=0;entryDy=0;entryPerimeter=0;" parent="1" target="9KpFJVqTiT7YMJcwT3f9-35" edge="1">
          <mxGeometry relative="1" as="geometry">
            <mxPoint x="5900" y="1188" as="targetPoint" />
            <mxPoint x="5240" y="1187.4999999999995" as="sourcePoint" />
          </mxGeometry>
        </mxCell>
        <mxCell id="9KpFJVqTiT7YMJcwT3f9-23" style="edgeStyle=orthogonalEdgeStyle;rounded=0;orthogonalLoop=1;jettySize=auto;html=1;entryX=0;entryY=0.5;entryDx=0;entryDy=0;" parent="1" target="9KpFJVqTiT7YMJcwT3f9-35" edge="1">
          <mxGeometry relative="1" as="geometry">
            <mxPoint x="5250" y="803" as="sourcePoint" />
            <mxPoint x="5790" y="780" as="targetPoint" />
          </mxGeometry>
        </mxCell>
        <mxCell id="9KpFJVqTiT7YMJcwT3f9-36" style="edgeStyle=orthogonalEdgeStyle;rounded=0;orthogonalLoop=1;jettySize=auto;html=1;exitX=0.822;exitY=0.025;exitDx=0;exitDy=0;exitPerimeter=0;entryX=0;entryY=1;entryDx=0;entryDy=0;" parent="1" source="9KpFJVqTiT7YMJcwT3f9-49" target="CIXFdN_R7IZpRCdpcp0h-8" edge="1">
          <mxGeometry relative="1" as="geometry">
            <mxPoint x="5690" y="980" as="targetPoint" />
            <Array as="points">
              <mxPoint x="5416" y="1045" />
              <mxPoint x="6290" y="1045" />
            </Array>
          </mxGeometry>
        </mxCell>
        <mxCell id="_TVw85CBntGOAsQvyyHS-52" value="" style="rounded=1;whiteSpace=wrap;html=1;direction=south;fillColor=#d5e8d4;strokeColor=#82b366;" parent="1" vertex="1">
          <mxGeometry x="5200" y="-250" width="40" height="1570" as="geometry" />
        </mxCell>
        <mxCell id="_TVw85CBntGOAsQvyyHS-54" value="EXMEM_PC8" style="text;html=1;align=center;verticalAlign=middle;resizable=0;points=[];autosize=1;strokeColor=none;fillColor=none;" parent="1" vertex="1">
          <mxGeometry x="5080" y="245" width="100" height="30" as="geometry" />
        </mxCell>
        <mxCell id="_TVw85CBntGOAsQvyyHS-55" value="EXMEM_Instr" style="text;html=1;align=center;verticalAlign=middle;resizable=0;points=[];autosize=1;strokeColor=none;fillColor=none;" parent="1" vertex="1">
          <mxGeometry x="5090" y="328" width="100" height="30" as="geometry" />
        </mxCell>
        <mxCell id="_TVw85CBntGOAsQvyyHS-56" style="edgeStyle=orthogonalEdgeStyle;rounded=0;orthogonalLoop=1;jettySize=auto;html=1;entryX=0.671;entryY=1.05;entryDx=0;entryDy=0;entryPerimeter=0;" parent="1" source="u0YVO1Xili40BDTapkqs-58" target="_TVw85CBntGOAsQvyyHS-52" edge="1">
          <mxGeometry relative="1" as="geometry" />
        </mxCell>
        <mxCell id="_TVw85CBntGOAsQvyyHS-58" value="EXMEM_alu" style="text;html=1;align=center;verticalAlign=middle;resizable=0;points=[];autosize=1;strokeColor=none;fillColor=none;" parent="1" vertex="1">
          <mxGeometry x="5095" y="768" width="90" height="30" as="geometry" />
        </mxCell>
        <mxCell id="_TVw85CBntGOAsQvyyHS-59" value="i_dato_mem" style="text;html=1;align=center;verticalAlign=middle;resizable=0;points=[];autosize=1;strokeColor=none;fillColor=none;" parent="1" vertex="1">
          <mxGeometry x="5110" y="513" width="90" height="30" as="geometry" />
        </mxCell>
        <mxCell id="_TVw85CBntGOAsQvyyHS-61" value="EXMEM_register_dst" style="text;html=1;align=center;verticalAlign=middle;resizable=0;points=[];autosize=1;strokeColor=none;fillColor=none;" parent="1" vertex="1">
          <mxGeometry x="5000" y="1058" width="140" height="30" as="geometry" />
        </mxCell>
        <mxCell id="_TVw85CBntGOAsQvyyHS-62" value="-" style="ellipse;whiteSpace=wrap;html=1;aspect=fixed;fillColor=#0D0D0D;" parent="1" vertex="1">
          <mxGeometry x="3690" y="1033" width="20" height="20" as="geometry" />
        </mxCell>
        <mxCell id="_TVw85CBntGOAsQvyyHS-65" style="edgeStyle=orthogonalEdgeStyle;rounded=0;orthogonalLoop=1;jettySize=auto;html=1;" parent="1" edge="1">
          <mxGeometry relative="1" as="geometry">
            <mxPoint x="3560" y="843" as="sourcePoint" />
            <mxPoint x="5180" y="1183" as="targetPoint" />
            <Array as="points">
              <mxPoint x="3880" y="844" />
              <mxPoint x="3880" y="1184" />
            </Array>
          </mxGeometry>
        </mxCell>
        <mxCell id="_TVw85CBntGOAsQvyyHS-66" value="EXMEM_extension" style="text;html=1;align=center;verticalAlign=middle;resizable=0;points=[];autosize=1;strokeColor=none;fillColor=none;" parent="1" vertex="1">
          <mxGeometry x="4995" y="1148" width="130" height="30" as="geometry" />
        </mxCell>
        <mxCell id="_TVw85CBntGOAsQvyyHS-67" value="" style="shape=flexArrow;endArrow=classic;html=1;rounded=0;fillColor=#1ba1e2;strokeColor=#006EAF;exitX=0.179;exitY=0.05;exitDx=0;exitDy=0;exitPerimeter=0;entryX=0.126;entryY=0.863;entryDx=0;entryDy=0;entryPerimeter=0;endWidth=22.5;endSize=10.124999999999998;" parent="1" target="_TVw85CBntGOAsQvyyHS-52" edge="1">
          <mxGeometry width="50" height="50" relative="1" as="geometry">
            <mxPoint x="3560" y="-50" as="sourcePoint" />
            <mxPoint x="5287" y="-171" as="targetPoint" />
            <Array as="points">
              <mxPoint x="3610" y="-50" />
            </Array>
          </mxGeometry>
        </mxCell>
        <mxCell id="_TVw85CBntGOAsQvyyHS-69" value="EXMEM_mem_to_reg&lt;div&gt;EXMEM_register_write&lt;br&gt;&lt;/div&gt;&lt;div&gt;EXMEM_ctL_dataload_size&lt;br&gt;&lt;/div&gt;&lt;div&gt;EXMEM_zero_extend&lt;br&gt;&lt;/div&gt;&lt;div&gt;EXMEM_lui&lt;br&gt;&lt;/div&gt;&lt;div&gt;EXMEM_jal&lt;br&gt;&lt;/div&gt;&lt;div&gt;EXMEM_halt&lt;br&gt;&lt;/div&gt;" style="text;html=1;align=center;verticalAlign=middle;resizable=0;points=[];autosize=1;strokeColor=none;fillColor=none;" parent="1" vertex="1">
          <mxGeometry x="5020" y="-170" width="170" height="110" as="geometry" />
        </mxCell>
        <mxCell id="_TVw85CBntGOAsQvyyHS-70" value="MEMWB" style="text;html=1;align=center;verticalAlign=middle;resizable=0;points=[];autosize=1;strokeColor=none;fillColor=none;" parent="1" vertex="1">
          <mxGeometry x="5190" y="-295" width="70" height="30" as="geometry" />
        </mxCell>
        <mxCell id="9KpFJVqTiT7YMJcwT3f9-8" style="edgeStyle=orthogonalEdgeStyle;rounded=0;orthogonalLoop=1;jettySize=auto;html=1;entryX=0;entryY=0.25;entryDx=0;entryDy=0;" parent="1" edge="1">
          <mxGeometry relative="1" as="geometry">
            <mxPoint x="5890" y="629.7499999999995" as="targetPoint" />
          </mxGeometry>
        </mxCell>
        <mxCell id="9KpFJVqTiT7YMJcwT3f9-2" style="edgeStyle=orthogonalEdgeStyle;rounded=0;orthogonalLoop=1;jettySize=auto;html=1;fillColor=#1ba1e2;strokeColor=#006EAF;" parent="1" target="9KpFJVqTiT7YMJcwT3f9-35" edge="1">
          <mxGeometry relative="1" as="geometry">
            <mxPoint x="5250" y="-50" as="sourcePoint" />
            <mxPoint x="5745" y="250" as="targetPoint" />
            <Array as="points">
              <mxPoint x="5930" y="-50" />
            </Array>
          </mxGeometry>
        </mxCell>
        <mxCell id="9KpFJVqTiT7YMJcwT3f9-3" style="edgeStyle=orthogonalEdgeStyle;rounded=0;orthogonalLoop=1;jettySize=auto;html=1;fillColor=#1ba1e2;strokeColor=#006EAF;entryX=0.091;entryY=0.031;entryDx=0;entryDy=0;entryPerimeter=0;" parent="1" target="9KpFJVqTiT7YMJcwT3f9-35" edge="1">
          <mxGeometry relative="1" as="geometry">
            <mxPoint x="5260" y="-40" as="sourcePoint" />
            <mxPoint x="5760" y="260" as="targetPoint" />
            <Array as="points">
              <mxPoint x="5900" y="-39" />
            </Array>
          </mxGeometry>
        </mxCell>
        <mxCell id="9KpFJVqTiT7YMJcwT3f9-5" value="&lt;div&gt;&lt;br&gt;&lt;/div&gt;" style="text;html=1;align=center;verticalAlign=middle;resizable=0;points=[];autosize=1;strokeColor=none;fillColor=none;" parent="1" vertex="1">
          <mxGeometry x="5610" y="325" width="20" height="30" as="geometry" />
        </mxCell>
        <mxCell id="9KpFJVqTiT7YMJcwT3f9-6" style="edgeStyle=orthogonalEdgeStyle;rounded=0;orthogonalLoop=1;jettySize=auto;html=1;entryX=-0.008;entryY=0.054;entryDx=0;entryDy=0;entryPerimeter=0;exitX=0.482;exitY=-0.004;exitDx=0;exitDy=0;exitPerimeter=0;" parent="1" source="_TVw85CBntGOAsQvyyHS-52" target="9KpFJVqTiT7YMJcwT3f9-35" edge="1">
          <mxGeometry relative="1" as="geometry">
            <mxPoint x="5640" y="528.2999999999997" as="targetPoint" />
          </mxGeometry>
        </mxCell>
        <mxCell id="9KpFJVqTiT7YMJcwT3f9-7" value="MEMWB_dato_mem" style="text;html=1;align=center;verticalAlign=middle;resizable=0;points=[];autosize=1;strokeColor=none;fillColor=none;" parent="1" vertex="1">
          <mxGeometry x="5740" y="490" width="130" height="30" as="geometry" />
        </mxCell>
        <mxCell id="9KpFJVqTiT7YMJcwT3f9-21" style="edgeStyle=orthogonalEdgeStyle;rounded=0;orthogonalLoop=1;jettySize=auto;html=1;exitX=1;exitY=0.5;exitDx=0;exitDy=0;entryX=0;entryY=0.5;entryDx=0;entryDy=0;" parent="1" edge="1">
          <mxGeometry relative="1" as="geometry">
            <mxPoint x="6000" y="656.5" as="sourcePoint" />
          </mxGeometry>
        </mxCell>
        <mxCell id="9KpFJVqTiT7YMJcwT3f9-12" style="edgeStyle=orthogonalEdgeStyle;rounded=0;orthogonalLoop=1;jettySize=auto;html=1;fillColor=#1ba1e2;strokeColor=#006EAF;" parent="1" target="9KpFJVqTiT7YMJcwT3f9-35" edge="1">
          <mxGeometry relative="1" as="geometry">
            <mxPoint x="5270" y="-30" as="sourcePoint" />
            <mxPoint x="5960" y="290" as="targetPoint" />
            <Array as="points">
              <mxPoint x="5960" y="-30" />
            </Array>
          </mxGeometry>
        </mxCell>
        <mxCell id="9KpFJVqTiT7YMJcwT3f9-13" value="MEMWB_ctl_lui" style="text;html=1;align=center;verticalAlign=middle;resizable=0;points=[];autosize=1;strokeColor=none;fillColor=none;" parent="1" vertex="1">
          <mxGeometry x="5800" y="433" width="110" height="30" as="geometry" />
        </mxCell>
        <mxCell id="9KpFJVqTiT7YMJcwT3f9-19" style="edgeStyle=orthogonalEdgeStyle;rounded=0;orthogonalLoop=1;jettySize=auto;html=1;fillColor=#1ba1e2;strokeColor=#006EAF;" parent="1" target="9KpFJVqTiT7YMJcwT3f9-35" edge="1">
          <mxGeometry relative="1" as="geometry">
            <mxPoint x="5270" y="-30" as="sourcePoint" />
            <mxPoint x="6120" y="280" as="targetPoint" />
          </mxGeometry>
        </mxCell>
        <mxCell id="9KpFJVqTiT7YMJcwT3f9-29" value="MEMWB_ctl_jal" style="text;html=1;align=center;verticalAlign=middle;resizable=0;points=[];autosize=1;strokeColor=none;fillColor=none;" parent="1" vertex="1">
          <mxGeometry x="6320" y="498" width="110" height="30" as="geometry" />
        </mxCell>
        <mxCell id="9KpFJVqTiT7YMJcwT3f9-30" style="edgeStyle=orthogonalEdgeStyle;rounded=0;orthogonalLoop=1;jettySize=auto;html=1;exitX=0.314;exitY=0.025;exitDx=0;exitDy=0;entryX=0;entryY=1;entryDx=0;entryDy=0;exitPerimeter=0;" parent="1" source="_TVw85CBntGOAsQvyyHS-52" target="CIXFdN_R7IZpRCdpcp0h-8" edge="1">
          <mxGeometry relative="1" as="geometry">
            <Array as="points">
              <mxPoint x="5300" y="243" />
              <mxPoint x="5300" y="929" />
              <mxPoint x="6210" y="929" />
            </Array>
            <mxPoint x="6324.84" y="928.5959999999995" as="targetPoint" />
          </mxGeometry>
        </mxCell>
        <mxCell id="9KpFJVqTiT7YMJcwT3f9-31" value="i_pc8" style="text;html=1;align=center;verticalAlign=middle;resizable=0;points=[];autosize=1;strokeColor=none;fillColor=none;" parent="1" vertex="1">
          <mxGeometry x="6170" y="658" width="50" height="30" as="geometry" />
        </mxCell>
        <mxCell id="9KpFJVqTiT7YMJcwT3f9-32" value="MEMWB_PC8" style="text;html=1;align=center;verticalAlign=middle;resizable=0;points=[];autosize=1;strokeColor=none;fillColor=none;" parent="1" vertex="1">
          <mxGeometry x="5230" y="208" width="100" height="30" as="geometry" />
        </mxCell>
        <mxCell id="9KpFJVqTiT7YMJcwT3f9-34" value="o_wb_data_write" style="text;html=1;align=center;verticalAlign=middle;resizable=0;points=[];autosize=1;strokeColor=none;fillColor=none;" parent="1" vertex="1">
          <mxGeometry x="6415" y="598" width="110" height="30" as="geometry" />
        </mxCell>
        <mxCell id="CIXFdN_R7IZpRCdpcp0h-10" style="edgeStyle=orthogonalEdgeStyle;rounded=0;orthogonalLoop=1;jettySize=auto;html=1;entryX=0;entryY=0.5;entryDx=0;entryDy=0;" parent="1" source="9KpFJVqTiT7YMJcwT3f9-44" target="CIXFdN_R7IZpRCdpcp0h-8" edge="1">
          <mxGeometry relative="1" as="geometry" />
        </mxCell>
        <mxCell id="9KpFJVqTiT7YMJcwT3f9-35" value="MUX&lt;div&gt;REG RD&lt;/div&gt;" style="triangle;whiteSpace=wrap;html=1;" parent="1" vertex="1">
          <mxGeometry x="5880" y="513" width="220" height="225" as="geometry" />
        </mxCell>
        <mxCell id="9KpFJVqTiT7YMJcwT3f9-37" value="MEMWB_register_dst" style="text;html=1;align=center;verticalAlign=middle;resizable=0;points=[];autosize=1;strokeColor=none;fillColor=none;" parent="1" vertex="1">
          <mxGeometry x="5250" y="1005" width="140" height="30" as="geometry" />
        </mxCell>
        <mxCell id="9KpFJVqTiT7YMJcwT3f9-39" style="edgeStyle=orthogonalEdgeStyle;rounded=0;orthogonalLoop=1;jettySize=auto;html=1;fillColor=#1ba1e2;strokeColor=#006EAF;entryX=0.5;entryY=0;entryDx=0;entryDy=0;" parent="1" target="CIXFdN_R7IZpRCdpcp0h-8" edge="1">
          <mxGeometry relative="1" as="geometry">
            <mxPoint x="5250" y="-10" as="sourcePoint" />
            <mxPoint x="6150" y="570" as="targetPoint" />
            <Array as="points">
              <mxPoint x="5250" y="80" />
              <mxPoint x="6330" y="80" />
            </Array>
          </mxGeometry>
        </mxCell>
        <mxCell id="9KpFJVqTiT7YMJcwT3f9-47" value="MEMWB_ctl_register_write" style="text;html=1;align=center;verticalAlign=middle;resizable=0;points=[];autosize=1;strokeColor=none;fillColor=none;" parent="1" vertex="1">
          <mxGeometry x="5110" y="1360" width="170" height="30" as="geometry" />
        </mxCell>
        <mxCell id="9KpFJVqTiT7YMJcwT3f9-48" value="MEMWB_ctl_register_write" style="text;html=1;align=center;verticalAlign=middle;resizable=0;points=[];autosize=1;strokeColor=none;fillColor=none;" parent="1" vertex="1">
          <mxGeometry x="5205" y="-542" width="170" height="30" as="geometry" />
        </mxCell>
        <mxCell id="9KpFJVqTiT7YMJcwT3f9-50" value="" style="edgeStyle=orthogonalEdgeStyle;rounded=0;orthogonalLoop=1;jettySize=auto;html=1;exitX=0.822;exitY=0.025;exitDx=0;exitDy=0;entryX=0;entryY=0.25;entryDx=0;entryDy=0;exitPerimeter=0;" parent="1" source="_TVw85CBntGOAsQvyyHS-52" target="9KpFJVqTiT7YMJcwT3f9-49" edge="1">
          <mxGeometry relative="1" as="geometry">
            <mxPoint x="5239" y="1041" as="sourcePoint" />
            <mxPoint x="5850" y="1075" as="targetPoint" />
          </mxGeometry>
        </mxCell>
        <mxCell id="9KpFJVqTiT7YMJcwT3f9-49" value="-" style="ellipse;whiteSpace=wrap;html=1;aspect=fixed;fillColor=#0D0D0D;" parent="1" vertex="1">
          <mxGeometry x="5400" y="1035" width="20" height="20" as="geometry" />
        </mxCell>
        <mxCell id="CIXFdN_R7IZpRCdpcp0h-1" value="i_ctl_data_size_mem" style="text;html=1;align=center;verticalAlign=middle;resizable=0;points=[];autosize=1;strokeColor=none;fillColor=none;" parent="1" vertex="1">
          <mxGeometry x="4590" y="368" width="140" height="30" as="geometry" />
        </mxCell>
        <mxCell id="CIXFdN_R7IZpRCdpcp0h-2" value="EXMEM_register2" style="text;html=1;align=center;verticalAlign=middle;resizable=0;points=[];autosize=1;strokeColor=none;fillColor=none;" parent="1" vertex="1">
          <mxGeometry x="3590" y="736.5" width="120" height="30" as="geometry" />
        </mxCell>
        <mxCell id="CIXFdN_R7IZpRCdpcp0h-3" value="MEMWB_extension" style="text;html=1;align=center;verticalAlign=middle;resizable=0;points=[];autosize=1;strokeColor=none;fillColor=none;" parent="1" vertex="1">
          <mxGeometry x="5910" y="740" width="130" height="30" as="geometry" />
        </mxCell>
        <mxCell id="CIXFdN_R7IZpRCdpcp0h-4" value="MEMWB_ctL_dataload_size" style="text;html=1;align=center;verticalAlign=middle;resizable=0;points=[];autosize=1;strokeColor=none;fillColor=none;" parent="1" vertex="1">
          <mxGeometry x="5740" y="418" width="170" height="30" as="geometry" />
        </mxCell>
        <mxCell id="CIXFdN_R7IZpRCdpcp0h-5" value="MEMWB_ctl_zero_extend" style="text;html=1;align=center;verticalAlign=middle;resizable=0;points=[];autosize=1;strokeColor=none;fillColor=none;" parent="1" vertex="1">
          <mxGeometry x="5750" y="398" width="160" height="30" as="geometry" />
        </mxCell>
        <mxCell id="CIXFdN_R7IZpRCdpcp0h-6" value="MEMWB_ctl_mem_to_reg" style="text;html=1;align=center;verticalAlign=middle;resizable=0;points=[];autosize=1;strokeColor=none;fillColor=none;" parent="1" vertex="1">
          <mxGeometry x="5750" y="378" width="160" height="30" as="geometry" />
        </mxCell>
        <mxCell id="CIXFdN_R7IZpRCdpcp0h-7" value="o_wb_register_adrr_result" style="text;html=1;align=center;verticalAlign=middle;resizable=0;points=[];autosize=1;strokeColor=none;fillColor=none;" parent="1" vertex="1">
          <mxGeometry x="6365" y="688" width="160" height="30" as="geometry" />
        </mxCell>
        <mxCell id="CIXFdN_R7IZpRCdpcp0h-8" value="is_JAL" style="rhombus;whiteSpace=wrap;html=1;" parent="1" vertex="1">
          <mxGeometry x="6250" y="557.75" width="160" height="144.5" as="geometry" />
        </mxCell>
        <mxCell id="CIXFdN_R7IZpRCdpcp0h-13" value="" style="edgeStyle=orthogonalEdgeStyle;rounded=0;orthogonalLoop=1;jettySize=auto;html=1;entryX=0;entryY=0.5;entryDx=0;entryDy=0;" parent="1" source="9KpFJVqTiT7YMJcwT3f9-35" target="9KpFJVqTiT7YMJcwT3f9-44" edge="1">
          <mxGeometry relative="1" as="geometry">
            <mxPoint x="6100" y="626" as="sourcePoint" />
            <mxPoint x="6190" y="626" as="targetPoint" />
          </mxGeometry>
        </mxCell>
        <mxCell id="9KpFJVqTiT7YMJcwT3f9-44" value="-" style="ellipse;whiteSpace=wrap;html=1;aspect=fixed;fillColor=#0D0D0D;" parent="1" vertex="1">
          <mxGeometry x="6130" y="620" width="20" height="20" as="geometry" />
        </mxCell>
        <mxCell id="ktexYi1xWLIS-waPTfyc-1" value="IFID_PC4" style="text;html=1;align=center;verticalAlign=middle;resizable=0;points=[];autosize=1;strokeColor=none;fillColor=none;" vertex="1" parent="1">
          <mxGeometry x="1370" y="60" width="80" height="30" as="geometry" />
        </mxCell>
        <mxCell id="ktexYi1xWLIS-waPTfyc-61" style="edgeStyle=orthogonalEdgeStyle;rounded=0;orthogonalLoop=1;jettySize=auto;html=1;entryX=0;entryY=0.5;entryDx=0;entryDy=0;exitX=1;exitY=0.5;exitDx=0;exitDy=0;" edge="1" parent="1" source="ktexYi1xWLIS-waPTfyc-2" target="jJp0ub6KG7U2lXxTCfqB-3">
          <mxGeometry relative="1" as="geometry">
            <mxPoint x="1487.455256410256" y="1459.996923076923" as="sourcePoint" />
            <mxPoint x="-100.08" y="544.92" as="targetPoint" />
            <Array as="points">
              <mxPoint x="1585" y="1570" />
              <mxPoint x="-240" y="1570" />
              <mxPoint x="-240" y="545" />
            </Array>
          </mxGeometry>
        </mxCell>
        <mxCell id="ktexYi1xWLIS-waPTfyc-2" value="MUX PC" style="triangle;whiteSpace=wrap;html=1;direction=south;" vertex="1" parent="1">
          <mxGeometry x="1530" y="1400" width="110" height="120" as="geometry" />
        </mxCell>
        <mxCell id="ktexYi1xWLIS-waPTfyc-3" value="i_suma_jump" style="text;html=1;align=center;verticalAlign=middle;resizable=0;points=[];autosize=1;strokeColor=none;fillColor=none;" vertex="1" parent="1">
          <mxGeometry x="1570" y="1340" width="90" height="30" as="geometry" />
        </mxCell>
        <mxCell id="ktexYi1xWLIS-waPTfyc-28" style="edgeStyle=orthogonalEdgeStyle;rounded=0;orthogonalLoop=1;jettySize=auto;html=1;exitX=1;exitY=0.5;exitDx=0;exitDy=0;exitPerimeter=0;" edge="1" parent="1" source="ktexYi1xWLIS-waPTfyc-4">
          <mxGeometry relative="1" as="geometry">
            <mxPoint x="1630" y="1453" as="targetPoint" />
            <Array as="points">
              <mxPoint x="1680" y="668" />
              <mxPoint x="1680" y="1453" />
            </Array>
          </mxGeometry>
        </mxCell>
        <mxCell id="ktexYi1xWLIS-waPTfyc-4" value="AND BRNACH" style="shape=or;whiteSpace=wrap;html=1;" vertex="1" parent="1">
          <mxGeometry x="1525" y="628" width="60" height="80" as="geometry" />
        </mxCell>
        <mxCell id="ktexYi1xWLIS-waPTfyc-16" value="" style="endArrow=classic;html=1;rounded=0;entryX=1;entryY=0.25;entryDx=0;entryDy=0;" edge="1" parent="1" source="ktexYi1xWLIS-waPTfyc-34" target="ktexYi1xWLIS-waPTfyc-6">
          <mxGeometry width="50" height="50" relative="1" as="geometry">
            <mxPoint x="794" y="370" as="sourcePoint" />
            <mxPoint x="1480" y="90" as="targetPoint" />
            <Array as="points">
              <mxPoint x="1020" y="370" />
              <mxPoint x="1020" y="260" />
            </Array>
          </mxGeometry>
        </mxCell>
        <mxCell id="ktexYi1xWLIS-waPTfyc-17" style="edgeStyle=orthogonalEdgeStyle;rounded=0;orthogonalLoop=1;jettySize=auto;html=1;entryX=1;entryY=0.25;entryDx=0;entryDy=0;" edge="1" parent="1" source="ktexYi1xWLIS-waPTfyc-6" target="NUGC_-o1-TNJPC-z7ICF-7">
          <mxGeometry relative="1" as="geometry" />
        </mxCell>
        <mxCell id="ktexYi1xWLIS-waPTfyc-6" value="-" style="ellipse;whiteSpace=wrap;html=1;aspect=fixed;fillColor=#0D0D0D;" vertex="1" parent="1">
          <mxGeometry x="1390" y="260" width="10" height="10" as="geometry" />
        </mxCell>
        <mxCell id="ktexYi1xWLIS-waPTfyc-19" value="" style="endArrow=classic;html=1;rounded=0;entryX=0;entryY=0.25;entryDx=0;entryDy=0;entryPerimeter=0;" edge="1" parent="1" target="ktexYi1xWLIS-waPTfyc-4">
          <mxGeometry width="50" height="50" relative="1" as="geometry">
            <mxPoint x="1320" y="500" as="sourcePoint" />
            <mxPoint x="1760" y="500" as="targetPoint" />
            <Array as="points">
              <mxPoint x="1460" y="500" />
              <mxPoint x="1460" y="580" />
              <mxPoint x="1460" y="648" />
            </Array>
          </mxGeometry>
        </mxCell>
        <mxCell id="ktexYi1xWLIS-waPTfyc-20" value="" style="endArrow=classic;html=1;rounded=0;entryX=0;entryY=0.75;entryDx=0;entryDy=0;entryPerimeter=0;" edge="1" parent="1" target="ktexYi1xWLIS-waPTfyc-4">
          <mxGeometry width="50" height="50" relative="1" as="geometry">
            <mxPoint x="1320" y="418" as="sourcePoint" />
            <mxPoint x="1761" y="416" as="targetPoint" />
            <Array as="points">
              <mxPoint x="1420" y="418" />
              <mxPoint x="1420" y="550" />
              <mxPoint x="1420" y="688" />
            </Array>
          </mxGeometry>
        </mxCell>
        <mxCell id="ktexYi1xWLIS-waPTfyc-21" style="edgeStyle=orthogonalEdgeStyle;rounded=0;orthogonalLoop=1;jettySize=auto;html=1;fillColor=#1ba1e2;strokeColor=#006EAF;" edge="1" parent="1">
          <mxGeometry relative="1" as="geometry">
            <mxPoint x="1070" y="-880" as="sourcePoint" />
            <mxPoint x="1550" y="630" as="targetPoint" />
            <Array as="points">
              <mxPoint x="1070" y="-887" />
              <mxPoint x="1040" y="-887" />
              <mxPoint x="1040" y="180" />
              <mxPoint x="1550" y="180" />
              <mxPoint x="1550" y="636" />
            </Array>
          </mxGeometry>
        </mxCell>
        <mxCell id="ktexYi1xWLIS-waPTfyc-22" style="edgeStyle=orthogonalEdgeStyle;rounded=0;orthogonalLoop=1;jettySize=auto;html=1;entryX=0.7;entryY=0.1;entryDx=0;entryDy=0;entryPerimeter=0;fillColor=#1ba1e2;strokeColor=#006EAF;" edge="1" parent="1">
          <mxGeometry relative="1" as="geometry">
            <mxPoint x="1080" y="-870" as="sourcePoint" />
            <mxPoint x="1577" y="646" as="targetPoint" />
            <Array as="points">
              <mxPoint x="1080" y="-877" />
              <mxPoint x="1040" y="-877" />
              <mxPoint x="1040" y="190" />
              <mxPoint x="1577" y="190" />
            </Array>
          </mxGeometry>
        </mxCell>
        <mxCell id="ktexYi1xWLIS-waPTfyc-23" value="ctl_unit_branch" style="text;html=1;align=center;verticalAlign=middle;resizable=0;points=[];autosize=1;strokeColor=none;fillColor=none;" vertex="1" parent="1">
          <mxGeometry x="1480" y="578" width="100" height="30" as="geometry" />
        </mxCell>
        <mxCell id="ktexYi1xWLIS-waPTfyc-24" value="ctl_unit_neq_branch" style="text;html=1;align=center;verticalAlign=middle;resizable=0;points=[];autosize=1;strokeColor=none;fillColor=none;" vertex="1" parent="1">
          <mxGeometry x="1465" y="553" width="130" height="30" as="geometry" />
        </mxCell>
        <mxCell id="ktexYi1xWLIS-waPTfyc-29" value="i_pc_source" style="text;html=1;align=center;verticalAlign=middle;resizable=0;points=[];autosize=1;strokeColor=none;fillColor=none;" vertex="1" parent="1">
          <mxGeometry x="1675" y="1428" width="90" height="30" as="geometry" />
        </mxCell>
        <mxCell id="ktexYi1xWLIS-waPTfyc-39" style="edgeStyle=orthogonalEdgeStyle;rounded=0;orthogonalLoop=1;jettySize=auto;html=1;entryX=0;entryY=0.75;entryDx=0;entryDy=0;" edge="1" parent="1" source="ktexYi1xWLIS-waPTfyc-30" target="ktexYi1xWLIS-waPTfyc-2">
          <mxGeometry relative="1" as="geometry" />
        </mxCell>
        <mxCell id="ktexYi1xWLIS-waPTfyc-30" value="SUMADOR&amp;nbsp;&lt;div&gt;BRANCH&lt;/div&gt;" style="shape=dataStorage;whiteSpace=wrap;html=1;fixedSize=1;direction=west;" vertex="1" parent="1">
          <mxGeometry x="1290" y="778" width="150" height="80" as="geometry" />
        </mxCell>
        <mxCell id="ktexYi1xWLIS-waPTfyc-32" value="" style="endArrow=classic;html=1;rounded=0;" edge="1" parent="1" source="ktexYi1xWLIS-waPTfyc-34">
          <mxGeometry width="50" height="50" relative="1" as="geometry">
            <mxPoint x="797" y="368" as="sourcePoint" />
            <mxPoint x="1290" y="810" as="targetPoint" />
            <Array as="points">
              <mxPoint x="950" y="370" />
              <mxPoint x="950" y="810" />
            </Array>
          </mxGeometry>
        </mxCell>
        <mxCell id="ktexYi1xWLIS-waPTfyc-33" value="IFID_PC4" style="text;html=1;align=center;verticalAlign=middle;resizable=0;points=[];autosize=1;strokeColor=none;fillColor=none;" vertex="1" parent="1">
          <mxGeometry x="1200" y="778" width="80" height="30" as="geometry" />
        </mxCell>
        <mxCell id="ktexYi1xWLIS-waPTfyc-36" value="" style="endArrow=classic;html=1;rounded=0;entryX=1;entryY=0.25;entryDx=0;entryDy=0;" edge="1" parent="1" target="ktexYi1xWLIS-waPTfyc-34">
          <mxGeometry width="50" height="50" relative="1" as="geometry">
            <mxPoint x="794" y="370" as="sourcePoint" />
            <mxPoint x="1400" y="263" as="targetPoint" />
            <Array as="points" />
          </mxGeometry>
        </mxCell>
        <mxCell id="ktexYi1xWLIS-waPTfyc-38" value="" style="endArrow=classic;html=1;rounded=0;" edge="1" parent="1" target="ktexYi1xWLIS-waPTfyc-34">
          <mxGeometry width="50" height="50" relative="1" as="geometry">
            <mxPoint x="660" y="368" as="sourcePoint" />
            <mxPoint x="1290" y="810" as="targetPoint" />
            <Array as="points" />
          </mxGeometry>
        </mxCell>
        <mxCell id="ktexYi1xWLIS-waPTfyc-57" style="edgeStyle=orthogonalEdgeStyle;rounded=0;orthogonalLoop=1;jettySize=auto;html=1;entryX=0.5;entryY=1;entryDx=0;entryDy=0;" edge="1" parent="1" source="ktexYi1xWLIS-waPTfyc-58" target="ktexYi1xWLIS-waPTfyc-2">
          <mxGeometry relative="1" as="geometry">
            <Array as="points">
              <mxPoint x="950" y="1460" />
            </Array>
          </mxGeometry>
        </mxCell>
        <mxCell id="ktexYi1xWLIS-waPTfyc-34" value="-" style="ellipse;whiteSpace=wrap;html=1;aspect=fixed;fillColor=#0D0D0D;" vertex="1" parent="1">
          <mxGeometry x="940" y="360" width="20" height="20" as="geometry" />
        </mxCell>
        <mxCell id="ktexYi1xWLIS-waPTfyc-41" value="i_suma_branch" style="text;whiteSpace=wrap;" vertex="1" parent="1">
          <mxGeometry x="1465" y="1340" width="120" height="40" as="geometry" />
        </mxCell>
        <mxCell id="ktexYi1xWLIS-waPTfyc-45" value="IFID_PC4" style="text;html=1;align=center;verticalAlign=middle;resizable=0;points=[];autosize=1;strokeColor=none;fillColor=none;" vertex="1" parent="1">
          <mxGeometry x="1465" y="1475" width="80" height="30" as="geometry" />
        </mxCell>
        <mxCell id="ktexYi1xWLIS-waPTfyc-46" value="" style="endArrow=classic;html=1;rounded=0;entryX=0.117;entryY=0.927;entryDx=0;entryDy=0;entryPerimeter=0;fillColor=#0050ef;strokeColor=#001DBC;" edge="1" parent="1" target="ktexYi1xWLIS-waPTfyc-2">
          <mxGeometry width="50" height="50" relative="1" as="geometry">
            <mxPoint x="780" y="1410" as="sourcePoint" />
            <mxPoint x="1420" y="1120" as="targetPoint" />
          </mxGeometry>
        </mxCell>
        <mxCell id="ktexYi1xWLIS-waPTfyc-48" value="" style="endArrow=classic;html=1;rounded=0;entryX=0.351;entryY=0.815;entryDx=0;entryDy=0;entryPerimeter=0;fillColor=#1ba1e2;strokeColor=#006EAF;" edge="1" parent="1">
          <mxGeometry width="50" height="50" relative="1" as="geometry">
            <mxPoint x="1110" y="-860" as="sourcePoint" />
            <mxPoint x="1539" y="1440" as="targetPoint" />
            <Array as="points">
              <mxPoint x="780" y="-860" />
              <mxPoint x="780" y="210" />
              <mxPoint x="780" y="1440" />
            </Array>
          </mxGeometry>
        </mxCell>
        <mxCell id="ktexYi1xWLIS-waPTfyc-54" value="ctl_unit_jump" style="text;html=1;align=center;verticalAlign=middle;resizable=0;points=[];autosize=1;strokeColor=none;fillColor=none;" vertex="1" parent="1">
          <mxGeometry x="1305" y="1380" width="90" height="30" as="geometry" />
        </mxCell>
        <mxCell id="ktexYi1xWLIS-waPTfyc-55" value="ctl_unit_jal_R" style="text;html=1;align=center;verticalAlign=middle;resizable=0;points=[];autosize=1;strokeColor=none;fillColor=none;" vertex="1" parent="1">
          <mxGeometry x="1300" y="1410" width="100" height="30" as="geometry" />
        </mxCell>
        <mxCell id="ktexYi1xWLIS-waPTfyc-59" value="" style="edgeStyle=orthogonalEdgeStyle;rounded=0;orthogonalLoop=1;jettySize=auto;html=1;entryX=0.5;entryY=1;entryDx=0;entryDy=0;" edge="1" parent="1" source="ktexYi1xWLIS-waPTfyc-34" target="ktexYi1xWLIS-waPTfyc-58">
          <mxGeometry relative="1" as="geometry">
            <mxPoint x="950" y="380" as="sourcePoint" />
            <mxPoint x="1558" y="1460" as="targetPoint" />
            <Array as="points">
              <mxPoint x="950" y="710" />
              <mxPoint x="950" y="710" />
            </Array>
          </mxGeometry>
        </mxCell>
        <mxCell id="ktexYi1xWLIS-waPTfyc-58" value="-" style="ellipse;whiteSpace=wrap;html=1;aspect=fixed;fillColor=#0D0D0D;" vertex="1" parent="1">
          <mxGeometry x="940" y="798" width="20" height="20" as="geometry" />
        </mxCell>
        <mxCell id="ktexYi1xWLIS-waPTfyc-62" value="o_wire_IF_PC" style="text;html=1;align=center;verticalAlign=middle;resizable=0;points=[];autosize=1;strokeColor=none;fillColor=none;" vertex="1" parent="1">
          <mxGeometry x="1505" y="1580" width="100" height="30" as="geometry" />
        </mxCell>
      </root>
    </mxGraphModel>
  </diagram>
</mxfile>
